<?xml version="1.0" encoding="utf-8"?>
<!-- Generator: Adobe Illustrator 18.1.1, SVG Export Plug-In . SVG Version: 6.00 Build 0)  -->
<svg version="1.1" id="Layer_1" xmlns="http://www.w3.org/2000/svg" xmlns:xlink="http://www.w3.org/1999/xlink" x="0px" y="0px"
	 viewBox="0 0 24 24" enable-background="new 0 0 24 24" xml:space="preserve">
<title>icon_blk/alarm</title>
<desc>Created with Sketch.</desc>
<path d="M21,16h-1V9.6c0-3.9-1.9-6.8-6-7.5V2c0-1.1-0.9-2-2-2c-1.1,0-2,0.9-2,2v0.1C5.8,2.8,4,5.5,4,9.7V16H3c-1.1,0-2,0.9-2,2v0.9
	c0,1.1,0.9,2,2,2h6v0.2c0,1.6,1.3,2.8,3,2.8c1.7,0,3-1.3,3-2.9V21h6c1.1,0,2-0.9,2-2V18C23,16.9,22.1,16,21,16z M12,1
	c0.6,0,1,0.4,1,1v0c-0.3,0-0.7,0-1,0c-0.3,0-0.7,0-1,0C11,1.5,11.5,1,12,1z M5,9.7C5,5.4,7,3,12,3c4.9,0,7,2.6,7,6.6V16H5V9.7z
	 M14,21.1c0,1-0.9,1.9-2,1.9c-1.1,0-2-0.8-2-1.8V21h4V21.1z M22,18.9c0,0.6-0.5,1-1,1H3c-0.6,0-1-0.5-1-1V18c0-0.6,0.5-1,1-1H21
	c0.6,0,1,0.5,1,1V18.9z"/>
</svg>
