<?xml version="1.0" encoding="utf-8"?>
<!-- Generator: Adobe Illustrator 18.1.1, SVG Export Plug-In . SVG Version: 6.00 Build 0)  -->
<svg version="1.1" id="Layer_1" xmlns="http://www.w3.org/2000/svg" xmlns:xlink="http://www.w3.org/1999/xlink" x="0px" y="0px"
	 viewBox="0 0 24 24" enable-background="new 0 0 24 24" xml:space="preserve">
<title>icon_blk/alert</title>
<desc>Created with Sketch.</desc>
<g>
	<path d="M12.5,16c0.3,0,0.5-0.2,0.5-0.5v-7C13,8.2,12.8,8,12.5,8S12,8.2,12,8.5v7C12,15.8,12.2,16,12.5,16z"/>
	<circle cx="12.5" cy="18.5" r="0.8"/>
	<path d="M23.8,20.3L13.5,2.7c-0.3-0.5-0.6-0.7-1-0.7c-0.4,0-0.7,0.2-1,0.7L1.2,20.3c-0.6,1-0.1,1.7,1,1.7h20.5
		C23.9,22,24.3,21.2,23.8,20.3z M22.8,21H2.2c-0.1,0-0.2,0-0.2,0c0,0,0-0.1,0.1-0.2L12.3,3.2c0.1-0.1,0.1-0.2,0.1-0.2
		c0,0,0.1,0.1,0.1,0.2l10.3,17.6c0,0.1,0.1,0.2,0.1,0.2C22.9,21,22.9,21,22.8,21z"/>
</g>
</svg>
