<?xml version="1.0" encoding="utf-8"?>
<!-- Generator: Adobe Illustrator 18.1.1, SVG Export Plug-In . SVG Version: 6.00 Build 0)  -->
<svg version="1.1" id="Layer_1" xmlns="http://www.w3.org/2000/svg" xmlns:xlink="http://www.w3.org/1999/xlink" x="0px" y="0px"
	 viewBox="0 0 24 24" enable-background="new 0 0 24 24" xml:space="preserve">
<title>icon_blk/bookmark</title>
<desc>Created with Sketch.</desc>
<path d="M18.5,2h-13C5.2,2,5,2.2,5,2.5v19c0,0.2,0.1,0.4,0.3,0.5c0.2,0.1,0.4,0,0.6-0.2l6.1-7.5l6.1,7.5c0.1,0.1,0.2,0.2,0.4,0.2
	c0.1,0,0.1,0,0.2,0c0.2-0.1,0.3-0.3,0.3-0.5v-19C19,2.2,18.8,2,18.5,2z M18,20.1l-5.6-6.9C12.3,13.1,12.2,13,12,13s-0.3,0.1-0.4,0.2
	L6,20.1V3h12V20.1z"/>
</svg>
