<?xml version="1.0" encoding="utf-8"?>
<!-- Generator: Adobe Illustrator 18.1.1, SVG Export Plug-In . SVG Version: 6.00 Build 0)  -->
<svg version="1.1" id="Layer_1" xmlns="http://www.w3.org/2000/svg" xmlns:xlink="http://www.w3.org/1999/xlink" x="0px" y="0px"
	 viewBox="0 0 24 24" enable-background="new 0 0 24 24" xml:space="preserve">
<title>icon_blk/brain</title>
<desc>Created with Sketch.</desc>
<g>
	<path d="M10.7,10.2c-0.2-0.1-0.4,0-0.5,0.1c-0.4,0.4-1.3,0.3-1.5,0.3c-0.2,0-0.3,0-0.4,0.1C8.1,10.8,8,11,8,11.1
		c0,0.1-0.4,0.6-1,0.9c-0.5,0.3-0.9,0.4-1.2,0.3c-1.1-0.3-1.9,0-2.1,0.3c-0.2,0.2-0.2,0.5,0,0.7c0.2,0.2,0.5,0.2,0.7,0.1
		c0,0,0.4-0.3,1.2-0.1c0.9,0.3,2-0.3,2.7-0.8c0.2-0.2,0.5-0.5,0.7-0.8c0.3,0,0.7,0,1.1-0.1c0,0.8,0,1.9,0,2.5c0,0.3,0.2,0.5,0.5,0.5
		c0,0,0,0,0,0c0.3,0,0.5-0.2,0.5-0.5c0.1-1.1,0-3.3,0-3.4C11,10.5,10.9,10.3,10.7,10.2z"/>
	<path d="M5.7,11.4c0.1,0,0.2,0.1,0.2,0.1c0.1,0,0.1,0,0.2,0c0.1-0.1,0.2-0.2,0.3-0.3c0.1-0.2,0.5-2.2,0.2-3.3
		C6.5,7.5,6.2,7.4,6,7.4C5.7,7.5,5.6,7.8,5.7,8.1c0.1,0.5,0.1,1.4-0.1,2.2C5,10.1,4,9.9,3,10.2c-0.3,0.1-0.4,0.3-0.3,0.6
		C2.7,11,3,11.2,3.3,11.1C4.6,10.7,5.7,11.4,5.7,11.4z"/>
	<path d="M9.7,6.6C9.4,7.1,9.2,7.9,9.4,9.1c0,0.3,0.2,0.4,0.5,0.4c0,0,0,0,0.1,0c0.3,0,0.5-0.3,0.4-0.5c-0.2-1.6,0.4-2.1,0.4-2.1
		c0.2-0.1,0.2-0.3,0.2-0.5c-0.1-0.2-0.2-0.3-0.4-0.4c-0.5-0.1-0.9-0.7-1-1C9.4,4.7,9.1,4.6,8.9,4.7C8.6,4.8,8.5,5.1,8.6,5.4
		C8.7,5.5,9,6.2,9.7,6.6z"/>
	<path d="M15.4,9.3c0,0,0.1,0,0.1,0c0.1,0,0.2,0,0.3-0.1C15.9,9.2,16,9,16,8.9c0.1-0.4,0.3-1.4,0.7-1.7C16.9,7,17,6.7,16.8,6.5
		c-0.2-0.2-0.5-0.3-0.7-0.1c-0.6,0.4-0.9,1.3-1,1.8c-0.7-0.3-1.2-0.6-1.4-1.1c-0.4-0.8-0.1-1.6-0.1-1.6c0.1-0.3,0-0.5-0.3-0.6
		c-0.3-0.1-0.5,0-0.6,0.3c0,0-0.4,1.2,0.2,2.4C13.3,8.4,14.1,9,15.4,9.3z"/>
	<path d="M22.3,10.2c0-0.1,0-0.1,0-0.2c0-1.9-1.2-3.5-2.9-4.2c-0.8-1.3-2.2-2.2-3.9-2.2c-0.1,0-0.2,0-0.3,0C14.5,3.2,13.7,3,12.9,3
		c-0.7,0-0.9,0.2-1.5,0.5c-0.5-0.2-1-0.3-1.5-0.3C8.6,3.2,8,3.7,7.2,4.5c-0.1,0-0.2,0-0.3,0c-2.2,0-4.1,1.6-4.5,3.7
		C1.4,9.4,0.9,10.1,1,11.9c0.1,2.3,1.2,3.9,3.4,4.3c0.2,0,0.5,0.1,0.7,0.1c0.6,0,1.2-0.1,1.7-0.4c0.8,0.7,1.2,1,2.4,1
		c0.6,0,1.2-0.1,1.8-0.4c0.5,0.8,1.5,1.2,2,1.2V22h5c0,0-0.2-2.8,0.4-3.9c2.3-0.2,3.6-1.8,3.6-3.7c0.8-0.5,1-1.4,1-2.3
		C23,11.2,22.7,10.8,22.3,10.2z M21.5,13.6c-0.3,0.2-0.5,0.5-0.5,0.8c0,1.2-0.7,2.5-2.6,2.7c-0.4,0-0.7,0.2-0.8,0.5
		C17.1,18.5,17,20,17,21h-0.5v-2.1c0-1.2,0.1-2.2,1.2-2.6c1.8-0.6,2.1-1.7,2.1-1.8c0.1-0.3-0.1-0.5-0.4-0.6
		c-0.3-0.1-0.5,0.1-0.6,0.4c0,0-0.2,0.7-1.4,1.1c-1.9,0.7-1.9,2.5-1.9,3.6V21H14v-3.3c0-0.5-0.4-1-1-1c-0.2,0-0.9-0.3-1.2-0.8
		c-0.2-0.3-0.5-0.4-0.8-0.4c-0.1,0-0.3,0-0.4,0.1c-0.4,0.2-0.9,0.3-1.4,0.3c-0.9,0-1.1-0.1-1.7-0.7C7.3,15,7,14.9,6.8,14.9
		c-0.2,0-0.3,0-0.5,0.1c-0.3,0.2-0.8,0.3-1.2,0.3c-0.2,0-0.4,0-0.5,0C2.9,15,2.1,13.8,2,11.9c-0.1-1.5,0.2-1.9,1.2-3
		c0.1-0.1,0.2-0.3,0.2-0.5c0.3-1.7,1.7-2.9,3.5-2.9c0.1,0,0.1,0,0.2,0c0,0,0,0,0.1,0c0.3,0,0.5-0.1,0.7-0.3c0.8-0.8,1.2-1,2-1
		c0.4,0,0.8,0.1,1.2,0.2c0.1,0,0.2,0.1,0.3,0.1c0.2,0,0.3,0,0.4-0.1c0.1-0.1,0.2-0.1,0.3-0.1C12.5,4,12.5,4,12.9,4
		c0.7,0,1.3,0.2,1.8,0.5c0.2,0.1,0.3,0.1,0.5,0.1c0,0,0,0,0.1,0c0.1,0,0.2,0,0.3,0c1.2,0,2.4,0.6,3,1.7c0.1,0.2,0.3,0.3,0.5,0.4
		c1.4,0.5,2.2,1.8,2.2,3.3c0,0,0,0.1,0,0.1c0,0.2,0,0.4,0.1,0.6l0.1,0.1c0.3,0.6,0.5,0.7,0.5,1.3C22,13,21.8,13.4,21.5,13.6z"/>
	<path d="M17.2,12.9c-0.1-0.8-0.4-2.4-2.4-2.4c-0.4,0-0.8-0.3-1.1-0.5c-0.3-0.2-0.6-0.4-0.9-0.3c-0.4,0.2-0.4,0.6-0.1,1.9
		c0.1,0.5,0.2,1,0.2,1.5c0.1,0.9-0.1,1.5-0.2,1.5c-0.1,0.2,0,0.5,0.2,0.7c0.1,0,0.2,0.1,0.2,0.1c0.2,0,0.3-0.1,0.4-0.2
		c0-0.1,0.4-0.8,0.3-2.1c-0.1-0.5-0.2-1.1-0.3-1.5c0-0.1,0-0.2-0.1-0.3c0.3,0.2,0.7,0.4,1.2,0.4c1.1,0,1.3,0.6,1.4,1.6
		c0,0.1,0,0.2,0.1,0.3c0.1,0.3,0.3,0.4,0.6,0.4c0.3-0.1,0.4-0.3,0.4-0.6C17.2,13.1,17.2,13,17.2,12.9z"/>
	<path d="M19.6,11.9c-0.1-0.7-0.4-1.3-0.6-1.7c1-0.8,1-1.9,1-1.9c0-0.3-0.2-0.5-0.5-0.5C19.2,7.8,19,8,19,8.3c0,0-0.1,0.9-1,1.4
		c-0.1,0.1-0.2,0.2-0.2,0.3c0,0.1,0,0.3,0.1,0.4c0,0,0.8,1,0.7,1.9c0,0.2,0,0.3,0.1,0.4c0.1,0.1,0.3,0.2,0.4,0.1
		c0.5-0.1,1.1-0.1,1.2,0c0.1,0.1,0.2,0.1,0.4,0.1c0.1,0,0.3,0,0.4-0.1c0.2-0.2,0.2-0.5,0-0.7C20.7,11.9,20.1,11.9,19.6,11.9z"/>
</g>
</svg>
