<?xml version="1.0" encoding="utf-8"?>
<!-- Generator: Adobe Illustrator 18.1.1, SVG Export Plug-In . SVG Version: 6.00 Build 0)  -->
<svg version="1.1" id="Layer_1" xmlns="http://www.w3.org/2000/svg" xmlns:xlink="http://www.w3.org/1999/xlink" x="0px" y="0px"
	 viewBox="0 0 24 24" enable-background="new 0 0 24 24" xml:space="preserve">
<title>icon_blk/calculator</title>
<desc>Created with Sketch.</desc>
<g>
	<path d="M12.5,19h-1c-0.3,0-0.5,0.2-0.5,0.5s0.2,0.5,0.5,0.5h1c0.3,0,0.5-0.2,0.5-0.5S12.8,19,12.5,19z"/>
	<path d="M12.5,16h-1c-0.3,0-0.5,0.2-0.5,0.5s0.2,0.5,0.5,0.5h1c0.3,0,0.5-0.2,0.5-0.5S12.8,16,12.5,16z"/>
	<path d="M8.5,13h-1C7.2,13,7,13.2,7,13.5S7.2,14,7.5,14h1C8.8,14,9,13.8,9,13.5S8.8,13,8.5,13z"/>
	<path d="M8.5,16h-1C7.2,16,7,16.2,7,16.5S7.2,17,7.5,17h1C8.8,17,9,16.8,9,16.5S8.8,16,8.5,16z"/>
	<path d="M8.5,19h-1C7.2,19,7,19.2,7,19.5S7.2,20,7.5,20h1C8.8,20,9,19.8,9,19.5S8.8,19,8.5,19z"/>
	<path d="M16.5,13h-1c-0.3,0-0.5,0.2-0.5,0.5s0.2,0.5,0.5,0.5h1c0.3,0,0.5-0.2,0.5-0.5S16.8,13,16.5,13z"/>
	<path d="M12.5,13h-1c-0.3,0-0.5,0.2-0.5,0.5s0.2,0.5,0.5,0.5h1c0.3,0,0.5-0.2,0.5-0.5S12.8,13,12.5,13z"/>
	<path d="M16.5,3h-9C6.7,3,6,3.7,6,4.5v4C6,9.3,6.7,10,7.5,10h9c0.8,0,1.5-0.7,1.5-1.5v-4C18,3.7,17.3,3,16.5,3z M17,8.5
		C17,8.8,16.8,9,16.5,9h-9C7.2,9,7,8.8,7,8.5v-4C7,4.2,7.2,4,7.5,4h9C16.8,4,17,4.2,17,4.5V8.5z"/>
	<path d="M19,0H5C3.9,0,3,0.9,3,2v20c0,1.1,0.9,2,2,2h14c1.1,0,2-0.9,2-2V2C21,0.9,20.1,0,19,0z M20,22c0,0.6-0.4,1-1,1H5
		c-0.6,0-1-0.4-1-1V2c0-0.6,0.4-1,1-1h14c0.6,0,1,0.4,1,1V22z"/>
	<path d="M16.5,19h-1c-0.3,0-0.5,0.2-0.5,0.5s0.2,0.5,0.5,0.5h1c0.3,0,0.5-0.2,0.5-0.5S16.8,19,16.5,19z"/>
	<path d="M16.5,16h-1c-0.3,0-0.5,0.2-0.5,0.5s0.2,0.5,0.5,0.5h1c0.3,0,0.5-0.2,0.5-0.5S16.8,16,16.5,16z"/>
</g>
</svg>
