<?xml version="1.0" encoding="utf-8"?>
<!-- Generator: Adobe Illustrator 18.1.1, SVG Export Plug-In . SVG Version: 6.00 Build 0)  -->
<svg version="1.1" id="Layer_1" xmlns="http://www.w3.org/2000/svg" xmlns:xlink="http://www.w3.org/1999/xlink" x="0px" y="0px"
	 viewBox="0 0 24 24" enable-background="new 0 0 24 24" xml:space="preserve">
<title>icon_blk/calendar</title>
<desc>Created with Sketch.</desc>
<g>
	<path d="M11.5,16h1c0.3,0,0.5-0.2,0.5-0.5S12.8,15,12.5,15h-1c-0.3,0-0.5,0.2-0.5,0.5S11.2,16,11.5,16z"/>
	<path d="M15.5,19h1c0.3,0,0.5-0.2,0.5-0.5S16.8,18,16.5,18h-1c-0.3,0-0.5,0.2-0.5,0.5S15.2,19,15.5,19z"/>
	<path d="M11.5,13h1c0.3,0,0.5-0.2,0.5-0.5S12.8,12,12.5,12h-1c-0.3,0-0.5,0.2-0.5,0.5S11.2,13,11.5,13z"/>
	<path d="M15.5,13h1c0.3,0,0.5-0.2,0.5-0.5S16.8,12,16.5,12h-1c-0.3,0-0.5,0.2-0.5,0.5S15.2,13,15.5,13z"/>
	<path d="M15.5,16h1c0.3,0,0.5-0.2,0.5-0.5S16.8,15,16.5,15h-1c-0.3,0-0.5,0.2-0.5,0.5S15.2,16,15.5,16z"/>
	<path d="M19.5,13h1c0.3,0,0.5-0.2,0.5-0.5S20.8,12,20.5,12h-1c-0.3,0-0.5,0.2-0.5,0.5S19.2,13,19.5,13z"/>
	<path d="M19.5,19h1c0.3,0,0.5-0.2,0.5-0.5S20.8,18,20.5,18h-1c-0.3,0-0.5,0.2-0.5,0.5S19.2,19,19.5,19z"/>
	<path d="M19.5,16h1c0.3,0,0.5-0.2,0.5-0.5S20.8,15,20.5,15h-1c-0.3,0-0.5,0.2-0.5,0.5S19.2,16,19.5,16z"/>
	<path d="M3.5,19h1C4.8,19,5,18.8,5,18.5S4.8,18,4.5,18h-1C3.2,18,3,18.2,3,18.5S3.2,19,3.5,19z"/>
	<path d="M11.5,19h1c0.3,0,0.5-0.2,0.5-0.5S12.8,18,12.5,18h-1c-0.3,0-0.5,0.2-0.5,0.5S11.2,19,11.5,19z"/>
	<path d="M23,4h-4V2.5C19,2.2,18.8,2,18.5,2S18,2.2,18,2.5V4H6V2.5C6,2.2,5.8,2,5.5,2S5,2.2,5,2.5V4H1C0.5,4,0,4.5,0,5.1V22
		c0,0.5,0.5,1,1,1h22c0.5,0,1-0.5,1-1V5.1C24,4.5,23.6,4,23,4z M23,22H1V9h22V22z M23,8H1V5h4v1.5C5,6.8,5.2,7,5.5,7S6,6.8,6,6.5V5
		h12v1.5C18,6.8,18.2,7,18.5,7S19,6.8,19,6.5V5h4V8z"/>
	<path d="M3.5,16h1C4.8,16,5,15.8,5,15.5S4.8,15,4.5,15h-1C3.2,15,3,15.2,3,15.5S3.2,16,3.5,16z"/>
	<path d="M7.5,13h1C8.8,13,9,12.8,9,12.5S8.8,12,8.5,12h-1C7.2,12,7,12.2,7,12.5S7.2,13,7.5,13z"/>
	<path d="M7.5,19h1C8.8,19,9,18.8,9,18.5S8.8,18,8.5,18h-1C7.2,18,7,18.2,7,18.5S7.2,19,7.5,19z"/>
	<path d="M7.5,16h1C8.8,16,9,15.8,9,15.5S8.8,15,8.5,15h-1C7.2,15,7,15.2,7,15.5S7.2,16,7.5,16z"/>
</g>
</svg>
