<?xml version="1.0" encoding="utf-8"?>
<!-- Generator: Adobe Illustrator 18.1.1, SVG Export Plug-In . SVG Version: 6.00 Build 0)  -->
<svg version="1.1" id="Layer_1" xmlns="http://www.w3.org/2000/svg" xmlns:xlink="http://www.w3.org/1999/xlink" x="0px" y="0px"
	 viewBox="0 0 24 24" enable-background="new 0 0 24 24" xml:space="preserve">
<title>icon_blk/california</title>
<desc>Created with Sketch.</desc>
<path d="M23,18.8l-0.9-2c0-0.1-0.1-0.1-0.1-0.2L12,7.8V0.5C12,0.2,11.8,0,11.5,0l-9,0h0C2.3,0,2.2,0.1,2.1,0.2C2,0.3,2,0.5,2,0.7
	l0.5,1.4L2,3.9C2,3.9,2,4,2,4.1L3,7.6C3,7.7,3,7.8,3.1,7.8l2.4,2.9l0,1.3c0,0.1,0.1,0.3,0.2,0.4L6.3,13l0.2,1.1c0,0.1,0,0.1,0.1,0.2
	l2.9,4.4c0.1,0.1,0.2,0.2,0.3,0.2l1.5,0.3l0.9,1.1c0.1,0.1,0.2,0.2,0.4,0.2h1.3l2,1.6l0.2,1.4c0,0.2,0.2,0.4,0.5,0.4h5
	c0.3,0,0.5-0.2,0.5-0.5v-2.3l1-1.9C23,19.1,23,19,23,18.8z M21,20.9c0,0.1-0.1,0.1-0.1,0.2V23h-4.1l-0.2-1.2c0-0.1-0.1-0.2-0.2-0.3
	l-2.2-1.9c-0.1-0.1-0.2-0.1-0.3-0.1h-1.3l-0.8-1.1c-0.1-0.1-0.2-0.2-0.3-0.2l-1.4-0.3l-2.7-4.1l-0.2-1.2c0-0.1-0.1-0.2-0.2-0.3
	l-0.6-0.6l0-1.2c0-0.1,0-0.2-0.1-0.3L3.9,7.2L3,4l0.5-1.8c0-0.1,0-0.2,0-0.3L3.2,1L11,1v7c0,0.1,0.1,0.3,0.2,0.4l10,9l0.8,1.6
	L21,20.9z"/>
</svg>
