<?xml version="1.0" encoding="utf-8"?>
<!-- Generator: Adobe Illustrator 18.1.1, SVG Export Plug-In . SVG Version: 6.00 Build 0)  -->
<svg version="1.1" id="Layer_1" xmlns="http://www.w3.org/2000/svg" xmlns:xlink="http://www.w3.org/1999/xlink" x="0px" y="0px"
	 viewBox="0 0 24 24" enable-background="new 0 0 24 24" xml:space="preserve">
<title>icon_blk/camera</title>
<desc>Created with Sketch.</desc>
<g>
	<path d="M21.5,6l-3,0c0,0-2-3-6.5-3S5.5,6,5.5,6l-3,0C1,6,0,7,0,8.5l0,10C0,20,1,21,2.5,21h19c1.5,0,2.5-1,2.5-2.5v-10
		C24,7,23,6,21.5,6z M23,18.5c0,1-0.5,1.5-1.5,1.5h-19c-1,0-1.5-0.5-1.5-1.5l0-10C1,7.5,1.6,7,2.5,7l3,0L6,7l0.3-0.4
		C6.3,6.5,8.1,4,12,4c3.9,0,5.6,2.5,5.7,2.6L18,7l0.5,0l3,0C22.4,7,23,7.6,23,8.5V18.5z"/>
	<path d="M12,8c-2.8,0-5,2.2-5,5s2.2,5,5,5s5-2.2,5-5S14.8,8,12,8z M12,17c-2.2,0-4-1.8-4-4s1.8-4,4-4c2.2,0,4,1.8,4,4
		S14.2,17,12,17z"/>
</g>
</svg>
