<svg id="Layer_1" data-name="Layer 1" xmlns="http://www.w3.org/2000/svg" viewBox="0 0 48 32"><title>card</title><path d="M405,1996H389a1,1,0,0,0,0,2h16A1,1,0,0,0,405,1996Z" transform="translate(-384 -1978)"/><path d="M401,2000H389a1,1,0,0,0,0,2h12A1,1,0,0,0,401,2000Z" transform="translate(-384 -1978)"/><path d="M432,1982.13a4.07,4.07,0,0,0-4-4.13H388a4.07,4.07,0,0,0-4,4.13v23.74a4.07,4.07,0,0,0,4,4.13h40a4.07,4.07,0,0,0,4-4.13v-23.74ZM386,1986h44v2H386v-2Zm2-6h40a2.17,2.17,0,0,1,2,2.22V1984H386v-1.78A2.17,2.17,0,0,1,388,1980Zm40,28H388a2.09,2.09,0,0,1-2-2.13V1990h44v15.87A2.09,2.09,0,0,1,428,2008Z" transform="translate(-384 -1978)"/><path d="M428,1995a1,1,0,0,0-1-1H415a1,1,0,0,0-1,1v6a1,1,0,0,0,1,1h12a1,1,0,0,0,1-1v-6Zm-2,5H416v-4h10v4Z" transform="translate(-384 -1978)"/></svg>