<?xml version="1.0" encoding="utf-8"?>
<!-- Generator: Adobe Illustrator 18.1.1, SVG Export Plug-In . SVG Version: 6.00 Build 0)  -->
<svg version="1.1" id="Layer_1" xmlns="http://www.w3.org/2000/svg" xmlns:xlink="http://www.w3.org/1999/xlink" x="0px" y="0px"
	 viewBox="0 0 24 24" enable-background="new 0 0 24 24" xml:space="preserve">
<title>icon_blk/circleadd</title>
<desc>Created with Sketch.</desc>
<g>
	<path d="M12.5,2C6.7,2,2,6.7,2,12.5S6.7,23,12.5,23S23,18.3,23,12.5S18.3,2,12.5,2z M12.5,22C7.3,22,3,17.7,3,12.5S7.3,3,12.5,3
		S22,7.3,22,12.5S17.7,22,12.5,22z"/>
	<path d="M17.5,12H13l0-4.5C13,7.2,12.8,7,12.5,7C12.2,7,12,7.2,12,7.5l0,4.5H7.5C7.2,12,7,12.2,7,12.5S7.2,13,7.5,13H12l0,4.5
		c0,0.3,0.2,0.5,0.5,0.5h0c0.3,0,0.5-0.2,0.5-0.5l0-4.5h4.5c0.3,0,0.5-0.2,0.5-0.5S17.8,12,17.5,12z"/>
</g>
</svg>
