<?xml version="1.0" encoding="utf-8"?>
<!-- Generator: Adobe Illustrator 18.1.1, SVG Export Plug-In . SVG Version: 6.00 Build 0)  -->
<svg version="1.1" id="Layer_1" xmlns="http://www.w3.org/2000/svg" xmlns:xlink="http://www.w3.org/1999/xlink" x="0px" y="0px"
	 viewBox="0 0 24 24" enable-background="new 0 0 24 24" xml:space="preserve">
<title>icon_blk/circleclose</title>
<desc>Created with Sketch.</desc>
<g>
	<path d="M16.8,8.2c-0.2-0.2-0.6-0.2-0.8,0l-3.5,3.5L9,8.2c-0.2-0.2-0.6-0.2-0.8,0C7.9,8.4,7.9,8.7,8.2,9l3.5,3.5L8.2,16
		c-0.2,0.2-0.2,0.6,0,0.8C8.3,16.9,8.4,17,8.6,17s0.3-0.1,0.4-0.2l3.5-3.5l3.5,3.5c0.1,0.1,0.3,0.2,0.4,0.2s0.3-0.1,0.4-0.2
		c0.2-0.2,0.2-0.6,0-0.8l-3.5-3.5L16.8,9C17.1,8.7,17.1,8.4,16.8,8.2z"/>
	<path d="M12.5,2C6.7,2,2,6.7,2,12.5S6.7,23,12.5,23S23,18.3,23,12.5S18.3,2,12.5,2z M12.5,22C7.3,22,3,17.7,3,12.5S7.3,3,12.5,3
		S22,7.3,22,12.5S17.7,22,12.5,22z"/>
</g>
</svg>
