<?xml version="1.0" encoding="utf-8"?>
<!-- Generator: Adobe Illustrator 18.1.1, SVG Export Plug-In . SVG Version: 6.00 Build 0)  -->
<svg version="1.1" id="Layer_1" xmlns="http://www.w3.org/2000/svg" xmlns:xlink="http://www.w3.org/1999/xlink" x="0px" y="0px"
	 viewBox="0 0 24 24" enable-background="new 0 0 24 24" xml:space="preserve">
<title>icon_blk/circlecheck</title>
<desc>Created with Sketch.</desc>
<g>
	<path d="M17.1,9.1l-5.6,5.6l-2.7-2.6c-0.2-0.2-0.5-0.2-0.7,0c-0.2,0.2-0.2,0.5,0,0.7l3,2.9l0.4,0.3l0.3-0.3l6-6
		c0.2-0.2,0.2-0.5,0-0.7S17.3,9,17.1,9.1z"/>
	<path d="M12.5,2C6.7,2,2,6.7,2,12.5S6.7,23,12.5,23S23,18.3,23,12.5S18.3,2,12.5,2z M12.5,22C7.3,22,3,17.7,3,12.5S7.3,3,12.5,3
		S22,7.3,22,12.5S17.7,22,12.5,22z"/>
</g>
</svg>
