<?xml version="1.0" encoding="utf-8"?>
<!-- Generator: Adobe Illustrator 18.1.1, SVG Export Plug-In . SVG Version: 6.00 Build 0)  -->
<svg version="1.1" id="Layer_1" xmlns="http://www.w3.org/2000/svg" xmlns:xlink="http://www.w3.org/1999/xlink" x="0px" y="0px"
	 viewBox="0 0 24 24" enable-background="new 0 0 24 24" xml:space="preserve">
<title>icon_blk/circleinfo</title>
<desc>Created with Sketch.</desc>
<g>
	<circle cx="12.5" cy="7.6" r="0.8"/>
	<path d="M12.5,10c-0.3,0-0.5,0.2-0.5,0.5v7.9c0,0.3,0.2,0.5,0.5,0.5s0.5-0.2,0.5-0.5v-7.9C13,10.3,12.8,10,12.5,10z"/>
	<path d="M12.5,2C6.7,2,2,6.7,2,12.5S6.7,23,12.5,23S23,18.3,23,12.5S18.3,2,12.5,2z M12.5,22C7.3,22,3,17.7,3,12.5S7.3,3,12.5,3
		S22,7.3,22,12.5S17.7,22,12.5,22z"/>
</g>
</svg>
