<?xml version="1.0" encoding="utf-8"?>
<!-- Generator: Adobe Illustrator 18.1.1, SVG Export Plug-In . SVG Version: 6.00 Build 0)  -->
<svg version="1.1" id="Layer_1" xmlns="http://www.w3.org/2000/svg" xmlns:xlink="http://www.w3.org/1999/xlink" x="0px" y="0px"
	 viewBox="0 0 24 24" enable-background="new 0 0 24 24" xml:space="preserve">
<title>icon_blk/circlequestion</title>
<desc>Created with Sketch.</desc>
<g>
	<circle cx="12.5" cy="19.5" r="0.8"/>
	<path d="M12.5,2C6.7,2,2,6.7,2,12.5S6.7,23,12.5,23S23,18.3,23,12.5S18.3,2,12.5,2z M12.5,22C7.3,22,3,17.7,3,12.5S7.3,3,12.5,3
		S22,7.3,22,12.5S17.7,22,12.5,22z"/>
	<path d="M13,6c-2.6,0-5,2-5,4.5C8,10.8,8.2,11,8.5,11S9,10.8,9,10.5C9,8.6,10.9,7,13,7c2.3,0,4,1.2,4,2.9c0,1.1-0.6,1.8-2.2,2.6
		c-0.1,0.1-0.6,0.3-0.8,0.4c-1.4,0.7-2,1.3-2,2.3v1.3c0,0.3,0.2,0.5,0.5,0.5s0.5-0.2,0.5-0.5v-1.3c0-0.5,0.4-0.8,1.5-1.4
		c0.1-0.1,0.6-0.3,0.8-0.4c1.9-1,2.8-1.9,2.8-3.5C18,7.5,15.7,6,13,6z"/>
</g>
</svg>
