<?xml version="1.0" encoding="utf-8"?>
<!-- Generator: Adobe Illustrator 18.1.1, SVG Export Plug-In . SVG Version: 6.00 Build 0)  -->
<svg version="1.1" id="Layer_1" xmlns="http://www.w3.org/2000/svg" xmlns:xlink="http://www.w3.org/1999/xlink" x="0px" y="0px"
	 viewBox="0 0 24 24" enable-background="new 0 0 24 24" xml:space="preserve">
<title>icon_blk/clipboard</title>
<desc>Created with Sketch.</desc>
<g>
	<path d="M5.1,13.1C5.1,13.2,5,13.4,5,13.5s0.1,0.3,0.1,0.4C5.2,13.9,5.4,14,5.5,14s0.3-0.1,0.4-0.1C5.9,13.8,6,13.6,6,13.5
		s-0.1-0.3-0.1-0.4C5.7,13,5.3,13,5.1,13.1z"/>
	<path d="M5.1,8.1C5.1,8.2,5,8.4,5,8.5c0,0.1,0.1,0.3,0.1,0.4C5.2,8.9,5.4,9,5.5,9s0.3-0.1,0.4-0.1C5.9,8.8,6,8.6,6,8.5
		c0-0.1-0.1-0.3-0.1-0.4C5.7,8,5.3,8,5.1,8.1z"/>
	<path d="M5.1,18.1C5.1,18.2,5,18.4,5,18.5s0.1,0.3,0.1,0.4C5.2,18.9,5.4,19,5.5,19c0.1,0,0.3-0.1,0.4-0.1C5.9,18.8,6,18.6,6,18.5
		s-0.1-0.3-0.1-0.4C5.7,18,5.3,18,5.1,18.1z"/>
	<path d="M17.5,13H8.5C8.2,13,8,13.2,8,13.5S8.2,14,8.5,14h8.9c0.3,0,0.5-0.2,0.5-0.5S17.8,13,17.5,13z"/>
	<path d="M19.5,3H16V1.6C16,0.7,15.3,0,14.5,0H8.5C7.7,0,7,0.7,7,1.6V3H3.5C2.7,3,2,3.7,2,4.5v18C2,23.3,2.7,24,3.5,24h16
		c0.8,0,1.5-0.7,1.5-1.5v-18C21,3.7,20.3,3,19.5,3z M8,1.6C8,1.3,8.2,1,8.5,1h6.1C14.8,1,15,1.3,15,1.6V3H8V1.6z M20,22.5
		c0,0.3-0.2,0.5-0.5,0.5h-16C3.2,23,3,22.8,3,22.5v-18C3,4.2,3.2,4,3.5,4h16C19.8,4,20,4.2,20,4.5V22.5z"/>
	<path d="M17.5,8H8.5C8.2,8,8,8.2,8,8.5S8.2,9,8.5,9h8.9C17.8,9,18,8.8,18,8.5S17.8,8,17.5,8z"/>
	<path d="M17.5,18H8.5C8.2,18,8,18.2,8,18.5S8.2,19,8.5,19h8.9c0.3,0,0.5-0.2,0.5-0.5S17.8,18,17.5,18z"/>
</g>
</svg>
