<?xml version="1.0" encoding="utf-8"?>
<!-- Generator: Adobe Illustrator 19.0.0, SVG Export Plug-In . SVG Version: 6.00 Build 0)  -->
<svg version="1.1" id="Layer_1" xmlns="http://www.w3.org/2000/svg" xmlns:xlink="http://www.w3.org/1999/xlink" x="0px" y="0px"
	 viewBox="0 0 48 48" style="enable-background:new 0 0 48 48;" xml:space="preserve">
<g id="XMLID_3991_">
	<path id="XMLID_4104_" d="M23,4c11.6,0,21,9.4,21,21s-9.4,21-21,21S2,36.6,2,25S11.4,4,23,4 M23,2C10.3,2,0,12.3,0,25
		s10.3,23,23,23s23-10.3,23-23S35.7,2,23,2L23,2z"/>
</g>
<g id="XMLID_3950_">
	<path id="XMLID_4048_" d="M33,36c-0.3,0-0.5-0.1-0.7-0.3l-10-10C22.1,25.5,22,25.3,22,25V7c0-0.6,0.4-1,1-1s1,0.4,1,1v17.6l9.7,9.7
		c0.4,0.4,0.4,1,0,1.4C33.5,35.9,33.3,36,33,36z"/>
</g>
</svg>
