<?xml version="1.0" encoding="utf-8"?>
<!-- Generator: Adobe Illustrator 18.1.1, SVG Export Plug-In . SVG Version: 6.00 Build 0)  -->
<svg version="1.1" id="Layer_1" xmlns="http://www.w3.org/2000/svg" xmlns:xlink="http://www.w3.org/1999/xlink" x="0px" y="0px"
	 viewBox="0 0 24 24" enable-background="new 0 0 24 24" xml:space="preserve">
<title>icon_blk/close</title>
<desc>Created with Sketch.</desc>
<style type="text/css">
	.st0{fill:#0082ca;}
</style>
<path class="st0" d="M12.7,12l7.1-7.1c0.2-0.2,0.2-0.5,0-0.7c-0.2-0.2-0.5-0.2-0.7,0L12,11.3L4.9,4.1C4.7,4,4.3,4,4.1,4.1C4,4.3,4,4.7,4.1,4.9
	l7.2,7.2l-7.1,7.1c-0.2,0.2-0.2,0.5,0,0.7C4.3,20,4.4,20,4.5,20c0.1,0,0.3,0,0.4-0.1l7.1-7.1l7.1,7.1c0.1,0.1,0.2,0.1,0.4,0.1
	s0.3,0,0.4-0.1c0.2-0.2,0.2-0.5,0-0.7L12.7,12z"/>
</svg>
