<?xml version="1.0" encoding="utf-8"?>
<!-- Generator: Adobe Illustrator 18.1.1, SVG Export Plug-In . SVG Version: 6.00 Build 0)  -->
<svg version="1.1" id="Layer_1" xmlns="http://www.w3.org/2000/svg" xmlns:xlink="http://www.w3.org/1999/xlink" x="0px" y="0px"
	 viewBox="0 0 24 24" enable-background="new 0 0 24 24" xml:space="preserve">
<title>icon_blk/coupon</title>
<desc>Created with Sketch.</desc>
<g>
	<path d="M17.5,11c-0.3,0-0.5,0.2-0.5,0.5v1c0,0.3,0.2,0.5,0.5,0.5s0.5-0.2,0.5-0.5v-1C18,11.2,17.8,11,17.5,11z"/>
	<path d="M17.5,14.5c-0.3,0-0.5,0.2-0.5,0.5v1c0,0.3,0.2,0.5,0.5,0.5S18,16.3,18,16v-1C18,14.7,17.8,14.5,17.5,14.5z"/>
	<path d="M21.8,4H2.5C1.1,4,0,5.1,0,6.5l0,1.6c0,0.7,0.5,1.3,1.2,1.5C2.3,9.9,3,10.9,3,12c0,1.1-0.7,2.1-1.8,2.4
		C0.5,14.6,0,15.2,0,15.9l0,1.6C0,18.9,1.1,20,2.5,20h19.3c1.2,0,2.2-1,2.2-2.2V6.2C24,5,23,4,21.8,4z M23,17.8
		c0,0.7-0.5,1.2-1.2,1.2H18v-0.5c0-0.3-0.2-0.5-0.5-0.5S17,18.2,17,18.5V19H2.5C1.7,19,1,18.3,1,17.5l0-1.6c0-0.3,0.2-0.5,0.4-0.6
		C3,14.9,4,13.6,4,12c0-1.6-1-2.9-2.5-3.4C1.2,8.6,1,8.3,1,8.1l0-1.6C1,5.7,1.7,5,2.5,5H17v0.5C17,5.8,17.2,6,17.5,6S18,5.8,18,5.5
		V5h3.8C22.5,5,23,5.5,23,6.2V17.8z"/>
	<path d="M17.5,7.5C17.2,7.5,17,7.7,17,8v1c0,0.3,0.2,0.5,0.5,0.5S18,9.3,18,9V8C18,7.7,17.8,7.5,17.5,7.5z"/>
</g>
</svg>
