<?xml version="1.0" encoding="utf-8"?>
<!-- Generator: Adobe Illustrator 18.1.1, SVG Export Plug-In . SVG Version: 6.00 Build 0)  -->
<svg version="1.1" id="Layer_1" xmlns="http://www.w3.org/2000/svg" xmlns:xlink="http://www.w3.org/1999/xlink" x="0px" y="0px"
	 viewBox="0 0 24 24" enable-background="new 0 0 24 24" xml:space="preserve">
<title>icon_blk/dashboard</title>
<desc>Created with Sketch.</desc>
<g>
	<path d="M5.9,16h-2c-0.3,0-0.5,0.2-0.5,0.5c0,0.3,0.2,0.5,0.5,0.5h2c0.3,0,0.5-0.2,0.5-0.5C6.4,16.2,6.2,16,5.9,16z"/>
	<path d="M6.7,10.2c-0.2-0.2-0.5-0.2-0.7,0c-0.2,0.2-0.2,0.5,0,0.7l1.2,1.2c0.2,0.2,0.5,0.2,0.7,0c0.2-0.2,0.2-0.5,0-0.7L6.7,10.2z"
		/>
	<path d="M13,10.6v-2c0-0.3-0.2-0.5-0.5-0.5c-0.3,0-0.5,0.2-0.5,0.5v2c0,0.3,0.2,0.5,0.5,0.5C12.8,11.1,13,10.9,13,10.6z"/>
	<path d="M12,6C5.9,6,1,11.2,1,17.5C1,17.8,1.2,18,1.5,18C1.8,18,2,17.8,2,17.5C2,11.7,6.5,7,12,7c5.5,0,10,4.7,10,10.5
		c0,0.3,0.2,0.5,0.5,0.5c0.3,0,0.5-0.2,0.5-0.5C23,11.2,18.1,6,12,6z"/>
	<path d="M19.9,16h-2c-0.3,0-0.5,0.2-0.5,0.5c0,0.3,0.2,0.5,0.5,0.5h2c0.3,0,0.5-0.2,0.5-0.5C20.4,16.2,20.2,16,19.9,16z"/>
	<path d="M17.8,10.9c0.2-0.2,0.2-0.5,0-0.7c-0.2-0.2-0.5-0.2-0.7,0L13,14.3c-0.3-0.2-0.6-0.3-1-0.3c-1.1,0-2,0.9-2,2
		c0,1.1,0.9,2,2,2c1.1,0,2-0.9,2-2c0-0.4-0.1-0.7-0.3-1L17.8,10.9z M11.9,17c-0.6,0-1-0.4-1-1s0.4-1,1-1s1,0.4,1,1S12.5,17,11.9,17z
		"/>
</g>
</svg>
