<?xml version="1.0" encoding="utf-8"?>
<!-- Generator: Adobe Illustrator 18.1.1, SVG Export Plug-In . SVG Version: 6.00 Build 0)  -->
<svg version="1.1" id="Layer_1" xmlns="http://www.w3.org/2000/svg" xmlns:xlink="http://www.w3.org/1999/xlink" x="0px" y="0px"
	 viewBox="0 0 24 24" enable-background="new 0 0 24 24" xml:space="preserve">
<title>icon_blk/doctor</title>
<desc>Created with Sketch.</desc>
<g>
	<circle cx="19.5" cy="13.5" r="1.5"/>
	<path d="M23,13.5c0-1.9-1.6-3.5-3.5-3.5c-1.9,0-3.5,1.6-3.5,3.5c0,1.8,1.3,3.2,3,3.5c0,0,0,0,0,0c0,3.4-2,5-5.5,5
		C9.9,22,8,20.2,8,16v-3c3.8-0.2,6-2.4,6-7V0.5C14,0.2,13.8,0,13.5,0H11c-0.3,0-0.5,0.2-0.5,0.5S10.7,1,11,1h2v5c0,4.2-1.9,6-5.5,6
		S2,10.2,2,6V1h2c0.3,0,0.5-0.2,0.5-0.5S4.3,0,4,0H1.5C1.2,0,1,0.2,1,0.5V6c0,4.6,2.2,6.8,6,7v3c0,4.8,2.4,7,6.5,7c4,0,6.5-2,6.5-6
		c0,0,0,0,0,0C21.7,16.7,23,15.3,23,13.5z M19.5,16c-1.4,0-2.5-1.1-2.5-2.5s1.1-2.5,2.5-2.5c1.4,0,2.5,1.1,2.5,2.5S20.9,16,19.5,16z
		"/>
</g>
</svg>
