<?xml version="1.0" encoding="utf-8"?>
<!-- Generator: Adobe Illustrator 18.1.1, SVG Export Plug-In . SVG Version: 6.00 Build 0)  -->
<svg version="1.1" id="Layer_1" xmlns="http://www.w3.org/2000/svg" xmlns:xlink="http://www.w3.org/1999/xlink" x="0px" y="0px"
	 viewBox="0 0 24 24" enable-background="new 0 0 24 24" xml:space="preserve">
<title>icon_blk/eye</title>
<desc>Created with Sketch.</desc>
<g>
	<path d="M12,7c-2.8,0-5,2.2-5,5c0,2.8,2.2,5,5,5s5-2.2,5-5C17,9.2,14.8,7,12,7z M12,16c-2.2,0-4-1.8-4-4s1.8-4,4-4s4,1.8,4,4
		S14.2,16,12,16z"/>
	<path d="M23.9,11.8C23.7,11.5,19.1,5,12,5C4.9,5,0.3,11.5,0.1,11.8c-0.1,0.2-0.1,0.4,0,0.6C0.3,12.6,4.9,19,12,19
		c7.1,0,11.7-6.4,11.9-6.7C24,12.2,24,11.9,23.9,11.8z M12,18c-5.7,0-9.8-4.7-10.7-5.9C2.2,10.8,6.3,6,12,6c5.7,0,9.8,4.8,10.8,6.1
		C21.8,13.3,17.7,18,12,18z"/>
</g>
</svg>
