<?xml version="1.0" encoding="utf-8"?>
<!-- Generator: Adobe Illustrator 18.1.1, SVG Export Plug-In . SVG Version: 6.00 Build 0)  -->
<svg version="1.0" id="Layer_1" xmlns="http://www.w3.org/2000/svg" xmlns:xlink="http://www.w3.org/1999/xlink" x="0px" y="0px"
	 viewBox="0 0 30 30" xml:space="preserve">
	 <style type="text/css">
	    .color{fill:#767676;}
    </style>
<g id="XMLID_6_">
	<path class="color" id="XMLID_13_" d="M30,5.6v18.8c0,3.1-2.5,5.6-5.6,5.6h-3.7V18.4h3.9l0.6-4.5h-4.5V11c0-1.3,0.4-2.2,2.2-2.2l2.4,0v-4
		c-0.4-0.1-1.8-0.2-3.5-0.2c-3.5,0-5.8,2.1-5.8,6v3.3h-3.9v4.5H16V30H5.6C2.5,30,0,27.5,0,24.4V5.6C0,2.5,2.5,0,5.6,0h18.8
		C27.5,0,30,2.5,30,5.6z"/>
</g>
</svg>
