<?xml version="1.0" encoding="utf-8"?>
<!-- Generator: Adobe Illustrator 18.1.1, SVG Export Plug-In . SVG Version: 6.00 Build 0)  -->
<svg version="1.1" id="Layer_1" xmlns="http://www.w3.org/2000/svg" xmlns:xlink="http://www.w3.org/1999/xlink" x="0px" y="0px"
	 viewBox="0 0 24 24" enable-background="new 0 0 24 24" xml:space="preserve">
<title>icon_blk/facilities</title>
<desc>Created with Sketch.</desc>
<g>
	<path d="M5,14h3v-4H5V14z M6,11h1v2H6V11z"/>
	<path d="M5,21h3v-4H5V21z M6,18h1v2H6V18z"/>
	<path d="M5,7h3V3H5V7z M6,4h1v2H6V4z"/>
	<polygon points="17,11 16.5,11 16,11 16,13 14,13 14,13.5 14,14 16,14 16,16 16.5,16 17,16 17,14 19,14 19,13.5 19,13 17,13 	"/>
	<path d="M17,7.7V0H2v24h8h4h3h2h4V11L17,7.7z M10,23H3V1h13v6.8L10,11V23z M18,23h-1h-0.5H16h-1v-4h1h0.5H17h1V23z M22,23h-3v-5h-2
		h-0.5H16h-2v5h-3V11.6L16,9l0.5-0.3L17,8.9l5,2.7V23z"/>
	<path d="M11,7h3V3h-3V7z M12,4h1v2h-1V4z"/>
</g>
</svg>
