<?xml version="1.0" encoding="utf-8"?>
<!-- Generator: Adobe Illustrator 18.1.1, SVG Export Plug-In . SVG Version: 6.00 Build 0)  -->
<svg version="1.1" id="Layer_1" xmlns="http://www.w3.org/2000/svg" xmlns:xlink="http://www.w3.org/1999/xlink" x="0px" y="0px"
	 viewBox="0 0 24 24" enable-background="new 0 0 24 24" xml:space="preserve">
<title>icon_blk/file</title>
<desc>Created with Sketch.</desc>
<path d="M14,1H6C4.9,1,4,1.9,4,3v18c0,1.1,0.9,2,2,2h13c1.1,0,2-0.9,2-2V8.1L14,1z M14,2.4L19.5,8H15c-0.5,0-1-0.4-1-1V2.4z M20,21
	c0,0.6-0.4,1-1,1H6c-0.6,0-1-0.4-1-1V3c0-0.5,0.4-1,1-1h7v5c0,1.1,0.9,2,2,2h5V21z"/>
</svg>
