<?xml version="1.0" encoding="utf-8"?>
<!-- Generator: Adobe Illustrator 19.2.1, SVG Export Plug-In . SVG Version: 6.00 Build 0)  -->
<svg version="1.0" id="Layer_1" xmlns="http://www.w3.org/2000/svg" xmlns:xlink="http://www.w3.org/1999/xlink" x="0px" y="0px"
	 viewBox="0 0 24 24" style="enable-background:new 0 0 24 24;" xml:space="preserve">
<g id="XMLID_11360_">
	<path id="XMLID_11390_" d="M14,1H6C4.9,1,4,1.9,4,3v18c0,1.1,0.9,2,2,2h13c1.1,0,2-0.9,2-2V8.1L14,1z M19.5,8h-4
		C14.2,8,14,7.4,14,6.8V2.4L19.5,8z M20,21c0,0.6-0.4,1-1,1H6c-0.6,0-1-0.4-1-1V3c0-0.6,0.4-1,1-1h7v4.8C13,7.6,13.3,9,15.5,9H20V21
		z"/>
	<path id="XMLID_11401_" d="M8.7,12H7v5h1v-1h0.7c1,0,1.8-1.1,1.8-2S9.7,12,8.7,12z M8.7,15H8v-2h0.7c0.4,0,0.8,0.5,0.8,1
		S9.1,15,8.7,15z"/>
	<polygon id="XMLID_11402_" points="15,14 15,15 15,17 16,17 16,15 18,15 18,14 16,14 16,13 18,13 18,12 15,12 	"/>
	<path id="XMLID_11405_" d="M12.2,12H11l0,5h1.2c1.3,0,2.3-1.1,2.3-2.5S13.5,12,12.2,12z M12.2,16H12l0-3h0.2c0.7,0,1.3,0.6,1.3,1.5
		S12.9,16,12.2,16z"/>
</g>
</svg>
