<?xml version="1.0" encoding="utf-8"?>
<!-- Generator: Adobe Illustrator 19.2.1, SVG Export Plug-In . SVG Version: 6.00 Build 0)  -->
<svg version="1.0" id="Layer_1" xmlns="http://www.w3.org/2000/svg" xmlns:xlink="http://www.w3.org/1999/xlink" x="0px" y="0px"
	 viewBox="0 0 24 24" style="enable-background:new 0 0 24 24;" xml:space="preserve">
<g id="XMLID_9876_">
	<path id="XMLID_9963_" d="M14,1H6C4.9,1,4,1.9,4,3v18c0,1.1,0.9,2,2,2h13c1.1,0,2-0.9,2-2V8.1L14,1z M19.5,8h-4
		C14.2,8,14,7.4,14,6.8V2.4L19.5,8z M20,21c0,0.6-0.4,1-1,1H6c-0.6,0-1-0.4-1-1V3c0-0.6,0.4-1,1-1h7v4.8C13,7.6,13.3,9,15.5,9H20V21
		z"/>
	<path id="XMLID_9968_" d="M7.1,7.9C7.2,8,7.4,8.1,7.5,8.1c0.1,0,0.3,0,0.4-0.1L9,6.7l1.2,1.2c0.1,0.1,0.2,0.1,0.4,0.1
		s0.3,0,0.4-0.1c0.2-0.2,0.2-0.5,0-0.7L9.7,6l1.2-1.2c0.2-0.2,0.2-0.5,0-0.7c-0.2-0.2-0.5-0.2-0.7,0L9,5.3L7.8,4.1
		c-0.2-0.2-0.5-0.2-0.7,0s-0.2,0.5,0,0.7L8.3,6L7.1,7.2C6.9,7.4,6.9,7.7,7.1,7.9z"/>
	<path id="XMLID_9979_" d="M7,19h11v-7H7V19z M8,16l4,0l0,2H8V16z M13,18l0-2l4,0v2H13z M17,15l-4,0l0-2h4V15z M12,13l0,2l-4,0v-2
		H12z"/>
</g>
</svg>
