<?xml version="1.0" encoding="utf-8"?>
<!-- Generator: Adobe Illustrator 19.2.1, SVG Export Plug-In . SVG Version: 6.00 Build 0)  -->
<svg version="1.0" id="Layer_1" xmlns="http://www.w3.org/2000/svg" xmlns:xlink="http://www.w3.org/1999/xlink" x="0px" y="0px"
	 viewBox="0 0 24 24" style="enable-background:new 0 0 24 24;" xml:space="preserve">
<g id="XMLID_10005_">
	<path id="XMLID_11298_" d="M14,1H6C4.9,1,4,1.9,4,3v18c0,1.1,0.9,2,2,2h13c1.1,0,2-0.9,2-2V8.1L14,1z M19.5,8h-4
		C14.2,8,14,7.4,14,6.8V2.4L19.5,8z M20,21c0,0.6-0.4,1-1,1H6c-0.6,0-1-0.4-1-1V3c0-0.6,0.4-1,1-1h7v4.8C13,7.6,13.3,9,15.5,9H20V21
		z"/>
	<rect id="XMLID_11302_" x="7" y="13" width="11" height="1"/>
	<rect id="XMLID_11304_" x="7" y="15" width="11" height="1"/>
	<rect id="XMLID_11305_" x="7" y="17" width="11" height="1"/>
	<polygon id="XMLID_11306_" points="8,8 9,8 9,5 10,5 10,4 9,4 8,4 7,4 7,5 8,5 	"/>
</g>
</svg>
