<?xml version="1.0" encoding="utf-8"?>
<!-- Generator: Adobe Illustrator 18.1.1, SVG Export Plug-In . SVG Version: 6.00 Build 0)  -->
<svg version="1.1" id="Layer_1" xmlns="http://www.w3.org/2000/svg" xmlns:xlink="http://www.w3.org/1999/xlink" x="0px" y="0px"
	 viewBox="0 0 24 24" enable-background="new 0 0 24 24" xml:space="preserve">
<title>icon_blk/filter</title>
<desc>Created with Sketch.</desc>
<g>
	<path d="M7,9.1V3.5C7,3.2,6.8,3,6.5,3C6.2,3,6,3.2,6,3.5v5.6c-0.6,0.2-1,0.8-1,1.4c0,0.7,0.4,1.2,1,1.4c0,0,0,0,0,0.1v8.5
		C6,20.8,6.2,21,6.5,21C6.8,21,7,20.8,7,20.5V12c0,0,0,0,0-0.1c0.6-0.2,1-0.8,1-1.4C8,9.9,7.6,9.3,7,9.1z M6.5,11
		C6.2,11,6,10.8,6,10.5C6,10.2,6.2,10,6.5,10S7,10.2,7,10.5C7,10.8,6.8,11,6.5,11z"/>
	<path d="M20,7.5c0-0.7-0.4-1.2-1-1.4V3.5C19,3.2,18.8,3,18.5,3C18.2,3,18,3.2,18,3.5v2.6c-0.6,0.2-1,0.8-1,1.4c0,0.7,0.4,1.2,1,1.4
		c0,0,0,0,0,0.1v11.5c0,0.3,0.2,0.5,0.5,0.5c0.3,0,0.5-0.2,0.5-0.5V9c0,0,0,0,0-0.1C19.6,8.7,20,8.2,20,7.5z M18.5,8
		C18.2,8,18,7.8,18,7.5C18,7.3,18.2,7,18.5,7S19,7.3,19,7.5C19,7.8,18.8,8,18.5,8z"/>
	<path d="M13,15.1C13,15.1,13,15,13,15.1l0-11.6C13,3.2,12.8,3,12.5,3C12.2,3,12,3.2,12,3.5V15c0,0,0,0.1,0,0.1
		c-0.6,0.2-1,0.8-1,1.4c0,0.6,0.4,1.2,1,1.4v2.6c0,0.3,0.2,0.5,0.5,0.5c0.3,0,0.5-0.2,0.5-0.5v-2.6c0.6-0.2,1-0.8,1-1.4
		C14,15.9,13.6,15.3,13,15.1z M12.5,17C12.5,17,12.5,17,12.5,17C12.5,17,12.5,17,12.5,17c-0.3,0-0.5-0.2-0.5-0.5
		c0-0.3,0.2-0.5,0.5-0.5s0.5,0.2,0.5,0.5C13,16.8,12.8,17,12.5,17z"/>
</g>
</svg>
