<?xml version="1.0" encoding="utf-8"?>
<!-- Generator: Adobe Illustrator 18.1.1, SVG Export Plug-In . SVG Version: 6.00 Build 0)  -->
<svg version="1.1" id="Layer_1" xmlns="http://www.w3.org/2000/svg" xmlns:xlink="http://www.w3.org/1999/xlink" x="0px" y="0px"
	 viewBox="0 0 24 24" enable-background="new 0 0 24 24" xml:space="preserve">
<title>icon_blk/folder</title>
<desc>Created with Sketch.</desc>
<path d="M22.6,9.8c-0.4-0.5-1-0.8-1.7-0.8H20V8.3C20,6.9,19,6,17.7,6H8.9V4.5c0-0.4-0.2-0.8-0.4-1.1C8.2,3.2,7.8,3,7.4,3H2.5
	C1.6,3,1,3.7,1,4.5v2v15C1,21.8,1.1,22,1.4,22h2H7h10.9c1.3,0,2.7-1,3-2.3l2.1-8.1C23.1,10.9,23,10.2,22.6,9.8z M2,6.5v-2
	C2,4.3,2.2,4,2.5,4h5C7.9,4,8,4.4,8,4.5v2C8,6.8,8.1,7,8.4,7h9.4C18,7,19,7,19,8.3V9H6.6c-1.4,0-2.7,1-3,2.3L2,17.8V6.5z M21.9,11.3
	l-2.1,8.1c-0.2,0.8-1.1,1.6-2,1.6H7H3.4H2.1l2.4-9.4C4.8,10.7,5.7,10,6.6,10h14.3c0.4,0,0.7,0.1,0.9,0.4C22,10.6,22,11,21.9,11.3z"
	/>
</svg>
