<?xml version="1.0" encoding="utf-8"?>
<!-- Generator: Adobe Illustrator 18.1.1, SVG Export Plug-In . SVG Version: 6.00 Build 0)  -->
<svg version="1.1" id="Layer_1" xmlns="http://www.w3.org/2000/svg" xmlns:xlink="http://www.w3.org/1999/xlink" x="0px" y="0px"
	 viewBox="0 0 24 24" enable-background="new 0 0 24 24" xml:space="preserve">
<title>icon_blk/genderfemale</title>
<desc>Created with Sketch.</desc>
<path d="M17.5,17H13v-2c3.3-0.3,6-3.1,6-6.5C19,4.9,16.1,2,12.5,2S6,4.9,6,8.5c0,3.4,2.7,6.2,6,6.5v2H7.5C7.2,17,7,17.2,7,17.5
	S7.2,18,7.5,18H12v3.5c0,0.3,0.2,0.5,0.5,0.5c0.3,0,0.5-0.2,0.5-0.5V18h4.5c0.3,0,0.5-0.2,0.5-0.5S17.8,17,17.5,17z M7,8.5
	C7,5.5,9.5,3,12.5,3S18,5.5,18,8.5c0,3-2.4,5.5-5.4,5.5c0,0,0,0,0,0c0,0,0,0,0,0c0,0,0,0,0,0C9.5,14,7,11.5,7,8.5z"/>
</svg>
