<?xml version="1.0" encoding="utf-8"?>
<!-- Generator: Adobe Illustrator 18.1.1, SVG Export Plug-In . SVG Version: 6.00 Build 0)  -->
<svg version="1.1" id="Layer_1" xmlns="http://www.w3.org/2000/svg" xmlns:xlink="http://www.w3.org/1999/xlink" x="0px" y="0px"
	 viewBox="0 0 24 24" enable-background="new 0 0 24 24" xml:space="preserve">
<title>icon_blk/gendermale</title>
<desc>Created with Sketch.</desc>
<path d="M20.5,3h-6C14.2,3,14,3.2,14,3.5C14,3.8,14.2,4,14.5,4h4.8l-5.7,5.7c0,0,0,0,0,0C12.4,8.6,10.8,8,9,8c-3.9,0-7,3.1-7,7
	s3.1,7,7,7s7-3.1,7-7c0-1.8-0.7-3.4-1.7-4.6c0,0,0,0,0,0L20,4.7v4.8c0,0.3,0.2,0.5,0.5,0.5S21,9.8,21,9.5v-6V3H20.5z M9,21
	c-3.3,0-6-2.7-6-6s2.7-6,6-6c3.3,0,6,2.7,6,6S12.3,21,9,21z"/>
</svg>
