<?xml version="1.0" encoding="utf-8"?>
<!-- Generator: Adobe Illustrator 18.1.1, SVG Export Plug-In . SVG Version: 6.00 Build 0)  -->
<svg version="1.1" id="Layer_1" xmlns="http://www.w3.org/2000/svg" xmlns:xlink="http://www.w3.org/1999/xlink" x="0px" y="0px"
	 viewBox="0 0 24 24" enable-background="new 0 0 24 24" xml:space="preserve">
<title>icon_blk/glasses</title>
<desc>Created with Sketch.</desc>
<path d="M23.5,12h-1c0,0,0,0,0,0c-0.2-2.2-2.2-4-4.5-4c-2.1,0-3.9,1.5-4.4,3.5c-0.5-0.3-1-0.5-1.6-0.5c-0.6,0-1.2,0.2-1.6,0.5
	C9.9,9.5,8.1,8,6,8c-2.3,0-4.2,1.8-4.5,4h-1C0.2,12,0,12.2,0,12.5C0,12.8,0.2,13,0.5,13h1c0.2,2.2,2.2,4,4.5,4
	c2.4,0,4.4-1.9,4.5-4.3c0.3-0.4,0.9-0.7,1.5-0.7c0.6,0,1.2,0.3,1.5,0.7c0.1,2.4,2.1,4.3,4.5,4.3c2.3,0,4.2-1.8,4.5-4c0,0,0,0,0,0h1
	c0.3,0,0.5-0.2,0.5-0.5C24,12.2,23.8,12,23.5,12z M6,16c-1.9,0-3.5-1.6-3.5-3.5S4.1,9,6,9c1.9,0,3.5,1.6,3.5,3.5S7.9,16,6,16z
	 M18,16c-1.9,0-3.5-1.6-3.5-3.5c0-1.9,1.6-3.5,3.5-3.5c1.9,0,3.5,1.6,3.5,3.5C21.5,14.4,19.9,16,18,16z"/>
</svg>
