<?xml version="1.0" encoding="utf-8"?>
<!-- Generator: Adobe Illustrator 18.1.1, SVG Export Plug-In . SVG Version: 6.00 Build 0)  -->
<svg version="1.1" id="Layer_1" xmlns="http://www.w3.org/2000/svg" xmlns:xlink="http://www.w3.org/1999/xlink" x="0px" y="0px"
	 viewBox="0 0 24 24" enable-background="new 0 0 24 24" xml:space="preserve">
<title>icon_blk/globe</title>
<desc>Created with Sketch.</desc>
<path d="M12,2C6.5,2,2,6.5,2,12c0,5.5,4.5,10,10,10c0.8,0,1.5-0.1,2.2-0.3c0.5,0,0.9-0.2,1.3-0.4c3.8-1.4,6.5-5.1,6.5-9.3
	C22,6.5,17.5,2,12,2z M14.3,18.8c-0.1,0.5-0.3,1-0.5,1.5c-0.1,0.2-0.2,0.4-0.2,0.6C13,20.9,12.5,21,12,21c-5,0-9-4-9-9
	c0-2.1,0.8-4.1,2-5.6c1.7-0.1,2.8,0,3.2,1.6c0.1,0.4,0.1,0.9,0.2,1.3c0.1,0.8,0.2,1.7,0.7,2.6c0.5,0.8,1.3,1.9,2.2,2.4
	c0.3,0.2,0.7,0.3,1,0.4c0.4,0.1,0.7,0.2,1,0.4c0,0,0.1,0.1,0.1,0.1c0,0.1-0.1,0.3-0.1,0.5c0,0.5,0.1,1.6,0.4,2.2
	c0.2,0.4,0.4,0.6,0.5,0.7c0,0,0,0,0,0C14.3,18.5,14.3,18.6,14.3,18.8z M16.9,18.5c-0.5,0.8-1.1,1.5-1.9,1.9c-0.1,0-0.3,0.1-0.4,0.1
	c0.2-0.5,0.5-1,0.6-1.6c0.1-0.7,0.1-0.9-0.3-1.3c-0.1-0.1-0.2-0.2-0.3-0.4c-0.2-0.3-0.3-1.2-0.3-1.7c0-0.1,0-0.2,0-0.2
	c0.3-0.5-0.1-0.8-0.5-1.1c-0.4-0.3-0.8-0.4-1.3-0.6c-0.3-0.1-0.6-0.2-0.8-0.3c-0.6-0.4-1.4-1.2-1.9-2C9.5,10.6,9.4,10,9.4,9.2
	c0-0.5-0.1-1-0.2-1.5c-0.5-1.9-1.7-2.3-3-2.4C6.3,5.2,6.5,5,6.7,4.9l0.1-0.1C7.4,4.3,7.7,4,8.1,4.1c0.2,0,0.4,0.2,0.6,0.3
	C9.2,4.6,9.6,4.9,10,4.8c0.2,0,0.5-0.1,0.8-0.2c0.2-0.1,0.4-0.1,0.6-0.1c0.3,0,0.4,0,0.6,0.2c0.2,0.1,0.5,0.3,1,0.4
	c0.2,0,0.4,0,0.6,0c0.2,0,0.3,0,0.5,0c-0.4,0.3-0.7,0.7-0.8,1.2c-0.1,0.8,0.5,1.2,0.8,1.4c0.1,0.1,0.2,0.1,0.3,0.2
	c0.1,0.1,0.2,0.2,0.2,0.2c0.1,0.1,0.3,0.4,0.6,0.3c0.4,0,0.6-0.4,0.7-0.8C16,7.5,16.1,7.5,16.1,7h0.2c0.1,0,0.1,0.3,0.2,0.4
	c0.2,0.4,0.3,0.6,0.4,0.7c0.1,0.2,0.3,0.3,0.3,0.3c0,0,0,0,0,0c0,0,0,0,0,0.1c0,0.5-0.1,0.8-0.6,1c-0.5,0.3-0.8,0.6-1,0.9
	c-0.3,0.3-0.5,0.5-0.8,0.6c-0.1,0-0.6,0-0.9,0c-0.9-0.1-2-0.1-2.3,0.6c-0.4,1,0.8,1.8,1.4,2.1c0.1,0,0.1,0.1,0.2,0.1l0.2,0.1
	c0.4,0.2,0.9,0.6,1.4,0.6c0.4,0,0.6-0.2,0.7-0.3c0,0,0,0,0,0c1.1-0.2,2,0.4,2.1,1.4c0,0.2,0.2,0.3,0.3,0.4c0.2,0.1,0.2,0.1,0.2,0.2
	c0.1,0.3-0.2,1-1,2.1L16.9,18.5z M18.1,18.6c0.7-1,1.3-2,1-2.8c-0.1-0.2-0.2-0.5-0.6-0.7c-0.4-1.4-1.7-2.2-3.3-1.9
	c-0.3,0-0.5,0.2-0.6,0.3c0,0,0,0,0,0c-0.2,0-0.6-0.3-0.8-0.4L13.8,13c-0.1,0-0.1-0.1-0.2-0.1c-0.9-0.5-1-0.8-1-0.8
	c0.2-0.1,0.9-0.1,1.3,0c0.5,0,1,0.1,1.3,0c0.6-0.2,0.9-0.6,1.2-0.9c0.2-0.3,0.4-0.5,0.8-0.7c0.8-0.4,1.1-1,1.1-1.9
	c0-0.5-0.2-0.7-0.4-0.9c-0.1-0.1-0.1-0.1-0.2-0.2c0-0.1-0.2-0.4-0.3-0.6C17,6.2,16.9,6,16.6,6h-0.8c-0.2,0-0.4,0.2-0.5,0.5
	c0,0.2-0.1,0.6-0.2,0.8c0,0-0.1,0-0.1-0.1c-0.1-0.1-0.2-0.2-0.3-0.2c-0.4-0.2-0.4-0.3-0.3-0.4c0-0.3,0.5-0.7,0.9-0.9
	c0.1-0.1,0.2-0.2,0.3-0.3c0-0.1,0-0.3-0.1-0.4c-0.5-0.7-1.2-0.7-1.8-0.7c-0.2,0-0.3,0-0.5,0c-0.2,0-0.4-0.1-0.6-0.2
	c-0.3-0.2-0.6-0.4-1.2-0.3c-0.2,0-0.5,0.1-0.7,0.2c-0.2,0.1-0.5,0.1-0.6,0.1c-0.1,0-0.5-0.2-0.7-0.3c0,0-0.1,0-0.1,0
	C10,3.2,11,3,12,3c5,0,9,4,9,9C21,14.6,19.9,17,18.1,18.6z"/>
</svg>
