<?xml version="1.0" encoding="utf-8"?>
<!-- Generator: Adobe Illustrator 18.1.1, SVG Export Plug-In . SVG Version: 6.00 Build 0)  -->
<svg version="1.1" id="Layer_1" xmlns="http://www.w3.org/2000/svg" xmlns:xlink="http://www.w3.org/1999/xlink" x="0px" y="0px"
	 viewBox="0 0 24 24" enable-background="new 0 0 24 24" xml:space="preserve">
<title>icon_blk/graph</title>
<desc>Created with Sketch.</desc>
<g>
	<path d="M5,21h4V7H5V21z M6,8h2v12H6V8z"/>
	<path d="M10,21h4V4h-4V21z M11,5h2v15h-2V5z"/>
	<path d="M22,0H2C0.9,0,0,0.9,0,2v20c0,1.1,0.9,2,2,2h20c1.1,0,2-0.9,2-2V2C24,0.9,23.1,0,22,0z M23,22c0,0.6-0.4,1-1,1H2
		c-0.6,0-1-0.4-1-1V2c0-0.6,0.4-1,1-1h20c0.6,0,1,0.4,1,1V22z"/>
	<path d="M15,21h4V11h-4V21z M16,12h2v8h-2V12z"/>
</g>
</svg>
