<?xml version="1.0" encoding="utf-8"?>
<!-- Generator: Adobe Illustrator 18.1.1, SVG Export Plug-In . SVG Version: 6.00 Build 0)  -->
<svg version="1.1" id="Layer_1" xmlns="http://www.w3.org/2000/svg" xmlns:xlink="http://www.w3.org/1999/xlink" x="0px" y="0px"
	 viewBox="0 0 24 24" enable-background="new 0 0 24 24" xml:space="preserve">
<title>icon_blk/hamburger</title>
<desc>Created with Sketch.</desc>
<g>
	<path d="M19.5,17h-14C5.2,17,5,17.2,5,17.5S5.2,18,5.5,18h14c0.3,0,0.5-0.2,0.5-0.5S19.8,17,19.5,17z"/>
	<path d="M5.5,8h14C19.8,8,20,7.8,20,7.5S19.8,7,19.5,7h-14C5.2,7,5,7.2,5,7.5S5.2,8,5.5,8z"/>
	<path d="M19.5,12h-14C5.2,12,5,12.2,5,12.5S5.2,13,5.5,13h14c0.3,0,0.5-0.2,0.5-0.5S19.8,12,19.5,12z"/>
</g>
</svg>
