<?xml version="1.0" encoding="utf-8"?>
<!-- Generator: Adobe Illustrator 18.1.1, SVG Export Plug-In . SVG Version: 6.00 Build 0)  -->
<svg version="1.1" id="Layer_1" xmlns="http://www.w3.org/2000/svg" xmlns:xlink="http://www.w3.org/1999/xlink" x="0px" y="0px"
	 viewBox="0 0 24 24" enable-background="new 0 0 24 24" xml:space="preserve">
<title>icon_blk/healthspending</title>
<desc>Created with Sketch.</desc>
<g>
	<path d="M20.6,14H19v-1.6c0-0.2-0.2-0.4-0.5-0.4S18,12.2,18,12.4V14h-1.6c-0.2,0-0.4,0.2-0.4,0.5s0.2,0.5,0.4,0.5H18v1.6
		c0,0.2,0.2,0.4,0.5,0.4s0.5-0.2,0.5-0.4V15h1.6c0.2,0,0.4-0.2,0.4-0.5S20.8,14,20.6,14z"/>
	<path d="M22.7,11c0,0.1,0,0.3-0.1,0.4c-0.1,0.3-0.4,0.4-0.6,0.3c0,0,0,0-0.1,0c0.6,0.8,1,1.8,1,2.9c0,2.5-2,4.5-4.5,4.5
		S14,17,14,14.5c0-2.5,2-4.5,4.5-4.5c1.2,0,2.3,0.5,3.2,1.3c0-0.1,0-0.2,0-0.2c0.1-0.3,0.1-0.6,0.2-0.9C20.9,9.4,19.8,9,18.5,9
		c-3,0-5.5,2.5-5.5,5.5c0,1.9,1,3.7,2.5,4.6c0.1-0.1,0.2-0.2,0.3-0.2c0.2-0.2,0.5-0.1,0.7,0.1c0.2,0.2,0.1,0.5,0,0.7
		c0.6,0.2,1.3,0.4,2,0.4c3,0,5.5-2.5,5.5-5.5C24,13.2,23.5,11.9,22.7,11z"/>
	<path d="M13.7,20.5c-0.9,0.6-1.7,1.1-2.2,1.4c-0.1,0-0.1-0.1-0.2-0.2C8.8,20.1,1,15,1,8.7C1,5.6,3.2,3.4,5.4,3
		C7.8,2.7,9.9,4.5,11,7.9c0.1,0.2,0.3,0.3,0.5,0.3h0c0.2,0,0.4-0.1,0.5-0.3c1.1-3.4,3.3-5.3,5.7-4.9C19.8,3.4,22,5.6,22,8.7
		c0,0.5-0.1,0.9-0.1,1.4c0.3,0.2,0.6,0.5,0.8,0.8c0.2-0.7,0.3-1.5,0.3-2.2c0-3.3-2.3-6.2-5.2-6.7c-2.6-0.4-4.9,1.2-6.3,4.3
		c-1.4-3.1-3.7-4.7-6.3-4.3C2.3,2.5,0,5.5,0,8.7c0,6.8,8.1,12.1,10.8,13.8c0.2,0.1,0.4,0.2,0.5,0.3c0.1,0.1,0.2,0.1,0.3,0.1
		c0.1,0,0.2,0,0.3-0.1c0.5-0.3,1.4-0.8,2.5-1.6c0.8-0.5,1.5-1.1,2.2-1.7c0,0,0,0,0,0c-0.3-0.1-0.7-0.3-1-0.5
		C15,19.6,14.3,20.1,13.7,20.5z"/>
	<path d="M21.7,11.3c0,0.2,0.1,0.3,0.3,0.3C21.9,11.5,21.8,11.4,21.7,11.3z"/>
</g>
</svg>
