<?xml version="1.0" encoding="utf-8"?>
<!-- Generator: Adobe Illustrator 19.0.0, SVG Export Plug-In . SVG Version: 6.00 Build 0)  -->
<svg version="1.1" id="Layer_1" xmlns="http://www.w3.org/2000/svg" xmlns:xlink="http://www.w3.org/1999/xlink" x="0px" y="0px"
	 viewBox="-287 389 24 24" style="enable-background:new -287 389 24 24;" xml:space="preserve">
<title>icon_blk/heart</title>
<desc>Created with Sketch.</desc>
<path id="XMLID_4053_" d="M-278.7,401.4c-0.2-0.2-0.5-0.3-0.7-0.1c-0.2,0.2-0.3,0.5-0.1,0.7l3.6,4.6l12.7-10.7
	c0.2-0.2,0.2-0.4,0.1-0.6c0,0,0,0,0,0c-0.6-3-3.2-5.2-6.1-5.2c-2.7,0-4.8,2.2-5.8,4.8c-0.9-2.6-3.1-4.8-5.8-4.8
	c-3.5,0-6.3,3-6.3,6.7c0,3.8,2,7.6,5.9,11.1c2.9,2.6,5.7,4.1,5.9,4.1l0.2,0.1l0.2-0.1c0.4-0.2,9.2-5,11.3-12.2
	c0.1-0.3-0.1-0.5-0.3-0.6c-0.3-0.1-0.5,0.1-0.6,0.3c-1.8,6.2-9.2,10.7-10.6,11.5c-1.6-0.9-11-6.4-11-14.2c0-3.1,2.4-5.7,5.3-5.7
	c3,0,5.3,3.5,5.3,6.5c0,0.3,0.2,0.5,0.5,0.5s0.5-0.2,0.5-0.5c0-3,2.3-6.5,5.3-6.5c2.4,0,4.5,1.8,5.1,4.3l-11.6,9.8L-278.7,401.4z"/>
</svg>
