<?xml version="1.0" encoding="utf-8"?>
<!-- Generator: Adobe Illustrator 18.1.1, SVG Export Plug-In . SVG Version: 6.00 Build 0)  -->
<svg version="1.1" id="Layer_1" xmlns="http://www.w3.org/2000/svg" xmlns:xlink="http://www.w3.org/1999/xlink" x="0px" y="0px"
	 viewBox="0 0 24 24" enable-background="new 0 0 24 24" xml:space="preserve">
<title>icon_blk/heartrate</title>
<desc>Created with Sketch.</desc>
<g>
	<path d="M16.2,18.1L12,21.8l-4.2-3.7c-0.2-0.2-0.5-0.2-0.7,0c-0.2,0.2-0.2,0.5,0,0.7l4.5,4c0.2,0.2,0.5,0.2,0.7,0l4.5-4
		c0.2-0.2,0.2-0.5,0-0.7C16.7,18,16.4,18,16.2,18.1z"/>
	<path d="M21.5,14h-3.7l-1.4-1.8c-0.2-0.3-0.6-0.3-0.8,0l-2.5,4.2L10,9.3C9.8,8.9,9.2,8.9,9,9.3L7.2,14H2.5C2.2,14,2,14.2,2,14.5
		C2,14.8,2.2,15,2.5,15h5c0.2,0,0.4-0.1,0.5-0.3l1.6-3.9l3,6.9c0.2,0.4,0.7,0.4,0.9,0.1l2.6-4.4l1.1,1.4c0.1,0.1,0.2,0.2,0.4,0.2h4
		c0.3,0,0.5-0.2,0.5-0.5C22,14.2,21.8,14,21.5,14z"/>
	<path d="M18.5,1.1C15.7,0.6,13.2,2,12,4.9C10.8,2,8.3,0.6,5.5,1.1C2.4,1.6,0,4.2,0,7.5c0,2.1,0.2,2.8,1.1,4.3
		c0.1,0.2,0.5,0.3,0.7,0.2c0.2-0.1,0.3-0.5,0.2-0.7C1.1,9.9,1,9.4,1,7.5c0-2.8,2-5,4.6-5.4c2.7-0.4,5.1,1.2,5.9,4.6c0,0,0,0,0,0.1
		c0,0,0,0.1,0,0.1c0,0,0,0,0.1,0.1c0,0,0,0,0.1,0.1c0,0,0.1,0,0.1,0c0,0,0,0,0.1,0c0,0,0,0,0,0c0,0,0.1,0,0.1,0c0,0,0.1,0,0.1,0
		c0,0,0,0,0,0c0,0,0,0,0.1,0c0,0,0.1,0,0.1,0c0,0,0,0,0.1-0.1c0,0,0,0,0.1-0.1c0,0,0-0.1,0-0.1c0,0,0,0,0-0.1c0.8-3.4,3.2-5,5.9-4.6
		C21,2.5,23,4.7,23,7.5c0,1.9-0.1,2.4-0.9,3.7c-0.1,0.2-0.1,0.5,0.2,0.7c0.2,0.1,0.5,0.1,0.7-0.2c0.9-1.5,1.1-2.2,1.1-4.3
		C24,4.2,21.6,1.6,18.5,1.1z"/>
</g>
</svg>
