<?xml version="1.0" encoding="utf-8"?>
<!-- Generator: Adobe Illustrator 18.1.1, SVG Export Plug-In . SVG Version: 6.00 Build 0)  -->
<svg version="1.1" id="Layer_1" xmlns="http://www.w3.org/2000/svg" xmlns:xlink="http://www.w3.org/1999/xlink" x="0px" y="0px"
	 viewBox="0 0 24 24" enable-background="new 0 0 24 24" xml:space="preserve">
<title>icon_blk/home</title>
<desc>Created with Sketch.</desc>
<path d="M23.9,13.2l-11-11.1c-0.2-0.2-0.5-0.2-0.7,0l-11,11.1c-0.2,0.2-0.2,0.5,0,0.7c0.2,0.2,0.5,0.2,0.7,0L4,11.7V22
	c0,0.6,0.4,1,1,1h15c0.6,0,1-0.4,1-1V11.7l2.1,2.2c0.1,0.1,0.2,0.1,0.4,0.1c0.1,0,0.3,0,0.4-0.1C24,13.7,24,13.4,23.9,13.2z M14,22
	h-3l0-6c0,0,0,0,0,0h3c0,0,0,0,0,0V22z M15,22v-6c0-0.5-0.5-1-1-1h-3c-0.5,0-1,0.4-1,1l0,6H5c0,0,0-11.1,0-11.2l7.5-7.6l7.5,7.6
	c0,0.1,0,11.2,0,11.2L15,22z"/>
</svg>
