<?xml version="1.0" encoding="utf-8"?>
<!-- Generator: Adobe Illustrator 18.1.1, SVG Export Plug-In . SVG Version: 6.00 Build 0)  -->
<svg version="1.0" id="Layer_1" xmlns="http://www.w3.org/2000/svg" xmlns:xlink="http://www.w3.org/1999/xlink" x="0px" y="0px"
	 viewBox="0 0 30 30" style="enable-background:new 0 0 30 30;" xml:space="preserve">
<g id="XMLID_2_">
	<path id="XMLID_3_" d="M30,26.1c0,2.1-1.7,3.8-3.8,3.8H3.8C1.7,30,0,28.2,0,26.1V3.8C0,1.7,1.7,0,3.8,0h22.3C28.3,0,30,1.7,30,3.8
		V26.1z M26.6,12.7H24c0.3,0.8,0.4,1.7,0.4,2.6c0,5-4.2,9-9.3,9c-5.1,0-9.3-4-9.3-9c0-0.9,0.1-1.8,0.4-2.6H3.3v12.7
		c0,0.7,0.5,1.2,1.2,1.2h20.9c0.7,0,1.2-0.5,1.2-1.2V12.7z M15,9.1c-3.3,0-6,2.6-6,5.8c0,3.2,2.7,5.8,6,5.8c3.3,0,6-2.6,6-5.8
		C21.1,11.7,18.4,9.1,15,9.1z M26.6,4.6c0-0.7-0.6-1.3-1.3-1.3h-3.4c-0.7,0-1.3,0.6-1.3,1.3v3.2c0,0.7,0.6,1.3,1.3,1.3h3.4
		c0.7,0,1.3-0.6,1.3-1.3V4.6z"/>
</g>
</svg>
