<?xml version="1.0" encoding="utf-8"?>
<!-- Generator: Adobe Illustrator 18.1.1, SVG Export Plug-In . SVG Version: 6.00 Build 0)  -->
<svg version="1.1" id="Layer_1" xmlns="http://www.w3.org/2000/svg" xmlns:xlink="http://www.w3.org/1999/xlink" x="0px" y="0px"
	 viewBox="0 0 24 24" enable-background="new 0 0 24 24" xml:space="preserve">
<title>icon_blk/key</title>
<desc>Created with Sketch.</desc>
<g>
	<path d="M24,12.5c0-1-0.2-1.7-0.7-2.1C23,10.1,22.7,10,22.4,10l0,0l-10.8,0C10.8,7.6,8.6,6,6,6c-3.3,0-6,2.7-6,6s2.7,6,6,6
		c2.2,0,4.1-1.2,5.2-3l3.8,0l0.9,0.9L16,16h0.2h2.1h0.2l0.1-0.1l0.9-0.9h2.9c0,0,0,0,0,0c0.3,0,0.6-0.1,0.9-0.4
		C23.8,14.2,24,13.5,24,12.5z M22.6,13.9C22.6,14,22.5,14,22.5,14c0,0,0,0,0,0l-3.2,0h-0.2L19,14.1L18.1,15h-1.7l-0.9-0.9L15.3,14
		h-0.2l-4.2,0l-0.3,0l-0.1,0.3C9.6,15.9,7.9,17,6,17c-2.8,0-5-2.2-5-5s2.2-5,5-5c2.3,0,4.2,1.5,4.8,3.6l0.1,0.4l0.4,0l11.2,0l0,0
		c0,0,0,0,0,0c0,0,0.1,0,0.2,0.1c0.2,0.2,0.4,0.6,0.4,1.4S22.9,13.7,22.6,13.9z"/>
	<circle cx="3.5" cy="12.5" r="1"/>
</g>
</svg>
