<?xml version="1.0" encoding="utf-8"?>
<!-- Generator: Adobe Illustrator 18.1.1, SVG Export Plug-In . SVG Version: 6.00 Build 0)  -->
<svg version="1.1" id="Layer_1" xmlns="http://www.w3.org/2000/svg" xmlns:xlink="http://www.w3.org/1999/xlink" x="0px" y="0px"
	 viewBox="0 0 24 24" enable-background="new 0 0 24 24" xml:space="preserve">
<title>icon_blk/logout</title>
<desc>Created with Sketch.</desc>
<g>
	<path d="M14.5,17c-0.3,0-0.5,0.2-0.5,0.5l0,4c0,0.3-0.2,0.5-0.5,0.5l-11,0C2.2,22,2,21.8,2,21.5l0-19C2,2.2,2.2,2,2.5,2l11,0
		C13.8,2,14,2.2,14,2.5l0,4C14,6.8,14.2,7,14.5,7S15,6.8,15,6.5l0-4C15,1.7,14.3,1,13.5,1l-11,0C1.7,1,1,1.7,1,2.5l0,19
		C1,22.3,1.7,23,2.5,23l11,0c0.8,0,1.5-0.7,1.5-1.5l0-4C15,17.2,14.8,17,14.5,17z"/>
	<path d="M22.7,11.1l-4.8-4.9c-0.2-0.2-0.5-0.2-0.7,0c-0.2,0.2-0.2,0.5,0,0.7l4.1,4.2H8.5C8.2,11,8,11.2,8,11.5
		C8,11.8,8.2,12,8.5,12h12.6l-4,4.2c-0.2,0.2-0.2,0.5,0,0.7s0.5,0.2,0.7,0l4.8-5.1l0.3-0.4L22.7,11.1z"/>
</g>
</svg>
