<?xml version="1.0" encoding="utf-8"?>
<!-- Generator: Adobe Illustrator 18.1.1, SVG Export Plug-In . SVG Version: 6.00 Build 0)  -->
<svg version="1.1" id="Layer_1" xmlns="http://www.w3.org/2000/svg" xmlns:xlink="http://www.w3.org/1999/xlink" x="0px" y="0px"
	 viewBox="0 0 24 24" enable-background="new 0 0 24 24" xml:space="preserve">
<title>icon_blk/mail</title>
<desc>Created with Sketch.</desc>
<path d="M24,4C24,4,24,4,24,4c0-0.6-0.5-1-1-1H1C0.5,3,0,3.5,0,4.1v16C0,20.6,0.5,21,1,21h22c0.5,0,1-0.4,1-0.9L24,4C24,4,24,4,24,4
	z M22.7,4L12,13.3L1.3,4H22.7z M23,20H1V5l10.7,9.3c0.1,0.1,0.2,0.1,0.3,0.1c0.1,0,0.2,0,0.3-0.1L23,5.1V20z"/>
</svg>
