<?xml version="1.0" encoding="utf-8"?>
<!-- Generator: Adobe Illustrator 18.1.1, SVG Export Plug-In . SVG Version: 6.00 Build 0)  -->
<svg version="1.1" id="Layer_1" xmlns="http://www.w3.org/2000/svg" xmlns:xlink="http://www.w3.org/1999/xlink" x="0px" y="0px"
	 viewBox="0 0 24 24" enable-background="new 0 0 24 24" xml:space="preserve">
<title>icon_blk/medical</title>
<desc>Created with Sketch.</desc>
<g>
	<path d="M17,12h-2v-2c0-0.6-0.4-1-1-1h-3c-0.6,0-1,0.4-1,1v2H8c-0.6,0-1,0.4-1,1v3c0,0.6,0.5,1,1,1h2v2c0,0.6,0.5,1,1,1h3
		c0.6,0,1-0.5,1-1v-2h2c0.6,0,1-0.5,1-1v-3C18,12.4,17.6,12,17,12z M15,16h-1v1v2l-3,0v-2v-1h-1H8l0-3h2h1v-1v-2h3v2v1h1h2l0,3H15z"
		/>
	<path d="M22,6h-5V4.4C17,3.1,15.9,2,14.5,2h-4C9.1,2,8,3.1,8,4.4V6H3C1.9,6,1,6.9,1,8v13c0,1.1,0.9,2,2,2h19c1.1,0,2-0.9,2-2V8
		C24,6.9,23.1,6,22,6z M9,4.4C9,3.6,9.7,3,10.5,3h4C15.3,3,16,3.6,16,4.4V6H9V4.4z M23,21c0,0.6-0.4,1-1,1H3c-0.6,0-1-0.4-1-1V8
		c0-0.6,0.4-1,1-1h19c0.6,0,1,0.4,1,1V21z"/>
</g>
</svg>
