<?xml version="1.0" encoding="utf-8"?>
<!-- Generator: Adobe Illustrator 18.1.1, SVG Export Plug-In . SVG Version: 6.00 Build 0)  -->
<svg version="1.1" id="Layer_1" xmlns="http://www.w3.org/2000/svg" xmlns:xlink="http://www.w3.org/1999/xlink" x="0px" y="0px"
	 viewBox="0 0 24 24" enable-background="new 0 0 24 24" xml:space="preserve">
<title>icon_blk/mic</title>
<desc>Created with Sketch.</desc>
<g>
	<path d="M12.5,16c2.5,0,4.5-2,4.5-4.5v-7C17,2,15,0,12.5,0S8,2,8,4.5v7C8,14,10,16,12.5,16z M9,4.5C9,2.6,10.6,1,12.5,1
		C14.4,1,16,2.6,16,4.5v7c0,1.9-1.6,3.5-3.5,3.5C10.6,15,9,13.4,9,11.5V4.5z"/>
	<path d="M20,12c0-0.3-0.2-0.5-0.5-0.5S19,11.7,19,12c0,3.1-2.8,5.5-6.5,5.5S6,15.1,6,12c0-0.3-0.2-0.5-0.5-0.5S5,11.7,5,12
		c0,3.6,3,6.3,7,6.5V23H9.5C9.2,23,9,23.2,9,23.5S9.2,24,9.5,24h6c0.3,0,0.5-0.2,0.5-0.5S15.8,23,15.5,23H13v-4.5
		C17,18.3,20,15.6,20,12z"/>
</g>
</svg>
