<?xml version="1.0" encoding="utf-8"?>
<!-- Generator: Adobe Illustrator 18.1.1, SVG Export Plug-In . SVG Version: 6.00 Build 0)  -->
<svg version="1.1" id="Layer_1" xmlns="http://www.w3.org/2000/svg" xmlns:xlink="http://www.w3.org/1999/xlink" x="0px" y="0px"
	 viewBox="0 0 24 24" enable-background="new 0 0 24 24" xml:space="preserve">
<title>icon_blk/more</title>
<desc>Created with Sketch.</desc>
<g id="Symbols">
	<g id="icon_x5F_blk_x2F_more">
		<path id="icon_blk_more" d="M12,14c-1.1,0-2-0.9-2-2s0.9-2,2-2s2,0.9,2,2S13.1,14,12,14 M12,11c-0.6,0-1,0.4-1,1s0.4,1,1,1
			s1-0.4,1-1S12.6,11,12,11 M5,14c-1.1,0-2-0.9-2-2s0.9-2,2-2s2,0.9,2,2S6.1,14,5,14 M5,11c-0.6,0-1,0.4-1,1s0.4,1,1,1s1-0.4,1-1
			S5.6,11,5,11 M19,14c-1.1,0-2-0.9-2-2s0.9-2,2-2s2,0.9,2,2S20.1,14,19,14 M19,11c-0.6,0-1,0.4-1,1s0.4,1,1,1s1-0.4,1-1
			S19.6,11,19,11"/>
	</g>
</g>
</svg>
