<?xml version="1.0" encoding="utf-8"?>
<!-- Generator: Adobe Illustrator 19.0.0, SVG Export Plug-In . SVG Version: 6.00 Build 0)  -->
<svg version="1.0" id="Layer_1" xmlns="http://www.w3.org/2000/svg" xmlns:xlink="http://www.w3.org/1999/xlink" x="0px" y="0px"
	 viewBox="0 0 24 24" style="enable-background:new 0 0 24 24;" xml:space="preserve">
<g id="Page-1_1_">
	<g id="icon_x5F_blue_x2F_newwindow_1_" transform="translate(-5.000000, -5.000000)">
		<path id="Combined-Shape_4_" d="M23,12.7v3.8c0,0.3,0.2,0.5,0.5,0.5s0.5-0.2,0.5-0.5V11h-5.5c-0.3,0-0.5,0.2-0.5,0.5
			s0.2,0.5,0.5,0.5h3.8l-7.2,7.1c-0.2,0.2-0.2,0.5,0,0.7c0.1,0.2,0.2,0.2,0.4,0.2c0.1,0,0.3,0,0.4-0.1L23,12.7z M22,24h-9
			c-1.3,0-2-1.3-2-2.5V13c0-1.3,0.7-2,2-2h1.5c0.3,0,0.5,0.2,0.5,0.5S14.8,12,14.5,12H13c-0.7,0-1,0.3-1,1v8.5c0,0.6,0.3,1.5,1,1.5
			h9c0.8,0,1-1,1-1.5v-1c0-0.3,0.2-0.5,0.5-0.5s0.5,0.2,0.5,0.5v1C24,22.7,23.3,24,22,24z"/>
	</g>
</g>
</svg>
