<?xml version="1.0" encoding="utf-8"?>
<!-- Generator: Adobe Illustrator 18.1.1, SVG Export Plug-In . SVG Version: 6.00 Build 0)  -->
<svg version="1.1" id="Layer_1" xmlns="http://www.w3.org/2000/svg" xmlns:xlink="http://www.w3.org/1999/xlink" x="0px" y="0px"
	 viewBox="0 0 24 24" enable-background="new 0 0 24 24" xml:space="preserve">
<title>icon_blk/none</title>
<desc>Created with Sketch.</desc>
<path d="M11.5,4C6.8,4,3,7.8,3,12.5c0,4.7,3.8,8.5,8.5,8.5s8.5-3.8,8.5-8.5C20,7.8,16.2,4,11.5,4z M4,12.5C4,8.4,7.4,5,11.5,5
	c2,0,3.8,0.8,5.2,2.1L6.1,17.7c0,0,0,0,0,0C4.8,16.3,4,14.5,4,12.5z M11.5,20c-1.8,0-3.4-0.6-4.7-1.6L17.4,7.8
	c1,1.3,1.6,2.9,1.6,4.7C19,16.6,15.6,20,11.5,20z"/>
</svg>
