<?xml version="1.0" encoding="utf-8"?>
<!-- Generator: Adobe Illustrator 18.1.1, SVG Export Plug-In . SVG Version: 6.00 Build 0)  -->
<svg version="1.1" id="Layer_1" xmlns="http://www.w3.org/2000/svg" xmlns:xlink="http://www.w3.org/1999/xlink" x="0px" y="0px"
	 viewBox="0 0 24 24" enable-background="new 0 0 24 24" xml:space="preserve">
<title>icon_blk/nonprofit</title>
<desc>Created with Sketch.</desc>
<g>
	<path d="M11.5,13.8c0.1,0.1,0.2,0.1,0.2,0.2C11.8,14,11.9,14,12,14c0.1,0,0.2,0,0.2-0.1c0.6-0.4,5.8-3.5,5.8-7.5
		c0-1.7-1.2-3.2-2.7-3.4c-1.1-0.2-2.4,0.4-3.3,2.1C11.2,3.4,9.9,2.9,8.8,3C7.2,3.3,6,4.8,6,6.5C6,10,10.1,12.8,11.5,13.8z M9,4
		C9,4,9.1,4,9.2,4c1.1,0,1.9,1,2.4,2.7C11.6,6.9,11.8,7,12,7c0.2,0,0.4-0.1,0.4-0.3C13,4.9,14,3.8,15.1,4C16.1,4.2,17,5.1,17,6.5
		c0,3.1-4,5.8-5,6.5c-3.3-2.3-5-4.5-5-6.5C7,5.2,8,4.2,9,4z"/>
	<path d="M23.8,10.5c0-0.3,0-0.6-0.1-0.9c-0.1-0.6-0.1-1.3-0.2-1.9c0-0.4-0.1-0.6-0.1-0.8l-0.1-0.2c-0.1-0.1-0.2-0.2-0.3-0.4
		c-0.3-0.3-0.8-0.5-1.2-0.4c-0.4,0.1-0.7,0.4-0.9,0.8c-0.1,0.3-0.1,0.5-0.1,0.7l-0.3,3.9c-0.3,0-0.6,0.1-0.8,0.2
		c-0.2,0.1-1.6,1.8-2.5,2.5c-0.5,0.4-0.9,0.6-1.4,0.8c0,0,0,0,0,0c-0.8,0.3-1.2,0.6-2.1,1.2c-0.7,0.6-1.2,1.4-1.7,2.6
		c-0.4-1.2-0.9-2-1.7-2.6c-0.8-0.7-1.3-0.9-2.1-1.2c0,0,0,0,0,0c-0.6-0.2-0.9-0.4-1.4-0.8c-0.9-0.7-2.4-2.4-2.5-2.5
		c-0.3-0.2-0.6-0.2-0.8-0.2L3.2,7.5c0-0.2,0-0.4-0.1-0.7C2.9,6.4,2.6,6.1,2.1,6c-0.5-0.1-0.9,0-1.2,0.4C0.7,6.5,0.6,6.7,0.6,6.8
		L0.5,6.9c0,0.2,0,0.4-0.1,0.8C0.4,8.4,0.3,9,0.3,9.6c0,0.3-0.1,0.6-0.1,0.9C0,13-0.1,14,0.1,14.3L3,18.6c0.2,0.2,0.5,0.4,1.4,0.7
		c0.1,0,0.3,0.1,0.4,0.2c0.3,0.1,0.7,0.2,1.1,0.4c0.2,0.1,0.4,0.1,0.5,0.2c0.3,0.1,0.5-0.1,0.6-0.3c0.1-0.3-0.1-0.5-0.3-0.6
		c-0.1,0-0.3-0.1-0.5-0.2c-0.4-0.1-0.7-0.2-1.1-0.4c-0.1,0-0.3-0.1-0.4-0.1C4.3,18.2,3.8,18,3.9,18L1,13.7c0.1,0.1,0,0,0-0.1
		c0-0.2,0-0.4,0-0.8c0-0.6,0.1-1.4,0.2-2.3c0-0.3,0-0.6,0.1-0.8c0.1-0.6,0.1-1.3,0.2-1.9c0-0.4,0.1-0.7,0.1-0.7C1.7,7,1.8,7,1.9,7
		C2,7,2.1,7.1,2.1,7.2c0.1,0.1,0.1,0.2,0.1,0.3l0.3,4.3C2.2,12.1,2,12.5,2,13.1C2.1,13.4,2.4,14,3,15C3,15.1,3,15.1,3.1,15.2
		c0.2,0.4,0.5,0.7,0.7,1.1c0.1,0.2,0.3,0.4,0.3,0.5c0.2,0.2,0.5,0.3,0.7,0.1c0.2-0.2,0.3-0.5,0.1-0.7c-0.1-0.1-0.2-0.3-0.3-0.5
		C4.4,15.4,4.2,15,4,14.7c-0.1-0.1-0.1-0.1-0.1-0.2C3.4,13.7,3,13.1,3,13c0-0.4,0.4-0.7,0.8-0.5c0,0,1.4,1.7,2.5,2.5
		c0.6,0.5,1,0.7,1.6,0.9c0,0,0,0,0,0c0.7,0.3,1.1,0.5,1.8,1.1c0.8,0.6,1.3,1.8,1.8,3.6c0,0.2,0.1,0.4,0.4,0.5c0,0,0,0,0.1,0
		c0,0,0.1,0,0.1,0c0,0,0.1,0,0.1,0c0,0,0,0,0.1,0c0.2-0.1,0.4-0.3,0.4-0.5c0.5-1.8,1-3,1.8-3.6c0.8-0.6,1.1-0.8,1.8-1.1c0,0,0,0,0,0
		c0.6-0.3,1-0.5,1.6-0.9c1.1-0.8,2.5-2.5,2.5-2.5c0.4-0.2,0.8,0.1,0.8,0.5c0,0.1-0.3,0.7-0.8,1.5c-0.1,0.1-0.1,0.1-0.1,0.2
		c-0.2,0.4-0.5,0.7-0.7,1.1c-0.1,0.2-0.3,0.4-0.3,0.5c-0.2,0.2-0.1,0.5,0.1,0.7c0.2,0.2,0.5,0.1,0.7-0.1c0.1-0.1,0.2-0.3,0.3-0.5
		c0.2-0.4,0.5-0.7,0.7-1.1C21,15.1,21,15.1,21,15c0.6-1,0.9-1.6,0.9-1.9c0.1-0.5-0.2-1-0.5-1.3l0.3-4.2c0-0.1,0-0.2,0.1-0.4
		C21.9,7.1,22,7,22.1,7c0.1,0,0.2,0,0.4,0.1c0.1,0.1,0.1,0.4,0.1,0.7c0.1,0.6,0.1,1.2,0.2,1.9c0,0.3,0.1,0.6,0.1,0.8
		c0.1,0.9,0.1,1.7,0.2,2.3c0,0.3,0,0.6,0,0.8c0,0.1,0,0.2,0,0.1L20.2,18c0,0-0.4,0.2-0.9,0.4c-0.1,0-0.3,0.1-0.4,0.1
		c-0.3,0.1-0.7,0.2-1,0.4c-0.2,0.1-0.4,0.1-0.5,0.2c-0.3,0.1-0.4,0.4-0.3,0.6c0.1,0.3,0.4,0.4,0.6,0.3c0.1,0,0.3-0.1,0.5-0.2
		c0.4-0.1,0.7-0.2,1.1-0.4c0.1-0.1,0.3-0.1,0.4-0.2c0.8-0.3,1.2-0.5,1.4-0.7l2.9-4.3C24.1,14,24,13,23.8,10.5z"/>
</g>
</svg>
