<?xml version="1.0" encoding="utf-8"?>
<!-- Generator: Adobe Illustrator 18.1.1, SVG Export Plug-In . SVG Version: 6.00 Build 0)  -->
<svg version="1.1" id="Layer_1" xmlns="http://www.w3.org/2000/svg" xmlns:xlink="http://www.w3.org/1999/xlink" x="0px" y="0px"
	 viewBox="0 0 24 24" enable-background="new 0 0 24 24" xml:space="preserve">
<title>icon_blk/paperclip</title>
<desc>Created with Sketch.</desc>
<path d="M20.6,12.6L12,21c-0.8,0.7-1.9,1.1-3.1,1c-1.2-0.1-2.4-0.6-3.3-1.5c-1.9-1.8-2.1-4.7-0.5-6.2L15.8,3.8
	C16.3,3.3,17.1,3,17.9,3c0.8,0,1.6,0.3,2.2,0.8c1.2,1.1,1.2,3.1,0,4.3l-9.7,9.4C10,18,9.1,18,8.6,17.5c-0.2-0.2-0.4-0.5-0.4-0.9
	c0-0.3,0.1-0.7,0.4-0.9l7.1-6.9c0.2-0.2,0.2-0.5,0-0.7c-0.2-0.2-0.5-0.2-0.7,0L7.9,15c-0.4,0.4-0.7,1-0.7,1.6s0.2,1.2,0.7,1.6
	c0.9,0.9,2.4,0.9,3.3,0l9.7-9.4c1.5-1.5,1.5-4.1,0-5.7C20.1,2.4,19,2,17.9,2c-1.1,0-2.2,0.4-2.9,1.1L4.4,13.5
	c-2,1.9-1.8,5.4,0.5,7.6c1.1,1.1,2.5,1.7,4,1.8c0.1,0,0.3,0,0.4,0c1.3,0,2.5-0.5,3.4-1.3l8.6-8.4c0.2-0.2,0.2-0.5,0-0.7
	C21.2,12.4,20.8,12.4,20.6,12.6z"/>
</svg>
