<?xml version="1.0" encoding="utf-8"?>
<!-- Generator: Adobe Illustrator 19.0.0, SVG Export Plug-In . SVG Version: 6.00 Build 0)  -->
<svg version="1.1" id="Layer_1" xmlns="http://www.w3.org/2000/svg" xmlns:xlink="http://www.w3.org/1999/xlink" x="0px" y="0px"
	 viewBox="0 0 48 48" style="enable-background:new 0 0 48 48;" xml:space="preserve">
<g id="XMLID_1_">
	<path id="XMLID_3_" d="M22.6,27.6c6.5,0,11.8-5.3,11.8-11.8C34.4,9.3,29.1,4,22.6,4c-6.5,0-11.8,5.3-11.8,11.8
		C10.8,22.3,16.1,27.6,22.6,27.6z M22.6,6c5.4,0,9.8,4.4,9.8,9.8c0,5.4-4.4,9.8-9.8,9.8c-5.4,0-9.8-4.4-9.8-9.8
		C12.8,10.4,17.2,6,22.6,6z"/>
	<path id="XMLID_2_" d="M40.8,32H38v-2.4c0-0.9-0.3-1.6-1.2-1.6H32c-0.9,0-2,0.7-2,1.6V32h-7.3c-6.5,0-12,2.2-16.8,6.7
		c-0.4,0.4-0.4,1,0,1.4c0.2,0.2,0.5,0.3,0.7,0.3c0.2,0,0.5-0.1,0.7-0.3C11.8,36,16.7,34,22.7,34H26v4.3c0,0.9,1.1,1.7,2,1.7h2v2.4
		c0,0.9,1.2,1.6,2.1,1.6h4.7c0.9,0,1.2-0.7,1.2-1.6V40h2.8c0.9,0,1.2-0.7,1.2-1.7v-4.7C42,32.7,41.7,32,40.8,32z M40,38h-1.6H36v2v2
		h-4v-2v-2h-1.6H28v-4h2.4H32v-2v-2h4v2v2h2.4H40V38z"/>
</g>
</svg>
