<?xml version="1.0" encoding="utf-8"?>
<!-- Generator: Adobe Illustrator 18.1.1, SVG Export Plug-In . SVG Version: 6.00 Build 0)  -->
<svg version="1.1" id="Layer_1" xmlns="http://www.w3.org/2000/svg" xmlns:xlink="http://www.w3.org/1999/xlink" x="0px" y="0px"
	 viewBox="0 0 24 24" enable-background="new 0 0 24 24" xml:space="preserve">
<title>icon_blk/pencil</title>
<desc>Created with Sketch.</desc>
<path d="M22,3c-0.7-0.7-1.4-1.1-2.3-1c-1.5,0.1-2.6,1.3-2.8,1.5L3.2,17L2,23l5.7-1.3L21.5,8.4c0.1-0.1,1.4-1.3,1.5-3
	C23,4.5,22.7,3.7,22,3z M7.3,20.8l-4,0.9L4,17.5L16.5,5.4l3.2,3.4L7.3,20.8z M20.9,7.7l-0.4,0.4l-3.2-3.4l0.4-0.4l0,0
	c0,0,1-1.2,2.1-1.2c0.6,0,1.1,0.2,1.6,0.7c0.5,0.5,0.7,1,0.7,1.6C22,6.6,20.9,7.6,20.9,7.7z"/>
</svg>
