<?xml version="1.0" encoding="utf-8"?>
<!-- Generator: Adobe Illustrator 18.1.1, SVG Export Plug-In . SVG Version: 6.00 Build 0)  -->
<svg version="1.1" id="Layer_1" xmlns="http://www.w3.org/2000/svg" xmlns:xlink="http://www.w3.org/1999/xlink" x="0px" y="0px"
	 viewBox="0 0 24 24" enable-background="new 0 0 24 24" xml:space="preserve">
<title>icon_blk/phone</title>
<desc>Created with Sketch.</desc>
<g id="Symbols">
	<g id="icon_x5F_blk_x2F_phone">
		<path id="Page-1" d="M19.1,23c-1.9,0-3.9-0.5-5.9-1.6c-1.9-1-3.8-2.4-5.5-4.1c-1.7-1.7-3.1-3.6-4.1-5.5C2.5,9.8,2,7.8,2,5.9
			c0-0.8,0.7-1.8,1.5-2.6C4.3,2.6,5.3,2,5.9,2c0.3,0,0.6,0.2,1.2,0.7c0.4,0.4,1,1,1.5,1.6c0.3,0.4,0.7,0.9,1,1.5
			c0.5,0.8,0.8,1.4,0.8,1.7c0,0-0.1,0.2-0.4,0.5C9.7,8.2,9.5,8.4,9.1,8.6C8.8,8.8,7.8,9.4,7.7,9.5L7.6,9.6l0,0.1
			c-0.8,1.9,5.3,8,7.4,7.8c0.3,0,0.4-0.2,0.8-0.6c0.1-0.2,0.6-0.9,0.7-1c0.2-0.2,0.3-0.4,0.4-0.6c0.3-0.4,0.6-0.6,0.6-0.6
			c0.3,0,0.9,0.3,1.7,0.8c0.5,0.3,1.1,0.7,1.5,1c0.7,0.5,1.2,1,1.6,1.5c0.5,0.5,0.7,0.9,0.7,1.2c0,0.6-0.6,1.6-1.3,2.4
			C20.9,22.3,19.9,23,19.1,23c-0.3,0-0.5,0.2-0.5,0.5s0.2,0.5,0.5,0.5c1.2,0,2.3-0.8,3.3-1.9c0.9-1,1.6-2.2,1.6-3
			c0-0.6-0.3-1.2-1-1.9c-0.5-0.5-1.1-1-1.8-1.6c-0.4-0.3-1-0.7-1.6-1.1c-0.9-0.6-1.7-0.9-2.2-0.9c-0.5,0-0.9,0.3-1.4,1
			c-0.1,0.2-0.3,0.4-0.5,0.6c0,0.1-0.5,0.8-0.7,1c-0.1,0.1-0.2,0.2-0.2,0.3c0,0,0,0,0.2,0c-1.5,0.1-6.9-5.2-6.4-6.4L8,9.9l0.3,0.4
			c0,0,1-0.6,1.4-0.8C10,9.2,10.3,9,10.6,8.8c0.5-0.4,0.8-0.8,0.8-1.2c0-0.6-0.3-1.3-0.9-2.2c-0.4-0.6-0.8-1.1-1.1-1.6
			C8.8,3,8.2,2.4,7.8,2C7,1.3,6.5,1,5.9,1C5,1,3.8,1.7,2.8,2.6C1.8,3.6,1,4.7,1,5.9c0,2,0.6,4.2,1.7,6.4c1,2,2.5,4,4.2,5.8
			c1.8,1.8,3.7,3.2,5.8,4.2c2.2,1.1,4.4,1.7,6.4,1.7c0.3,0,0.5-0.2,0.5-0.5C19.6,23.2,19.4,23,19.1,23L19.1,23z"/>
	</g>
</g>
</svg>
