<?xml version="1.0" encoding="utf-8"?>
<!-- Generator: Adobe Illustrator 18.1.1, SVG Export Plug-In . SVG Version: 6.00 Build 0)  -->
<svg version="1.1" id="Layer_1" xmlns="http://www.w3.org/2000/svg" xmlns:xlink="http://www.w3.org/1999/xlink" x="0px" y="0px"
	 viewBox="0 0 24 24" enable-background="new 0 0 24 24" xml:space="preserve">
<title>icon_blk/pill</title>
<desc>Created with Sketch.</desc>
<path d="M17,2c-1.4,0-2.7,0.6-3.6,1.5c0,0-8,8.1-9.4,9.5c-1.4,1.4-2,2.3-2,4c0,2.8,2.2,5,5,5c1.1,0,2.2-0.4,3-1l10.8-10.8
	C21.6,9.3,22,8.2,22,7C22,4.2,19.8,2,17,2z M9.3,20.2C8.7,20.7,7.9,21,7,21c-2.2,0-4-1.8-4-4c0-1.3,0.3-1.9,1.7-3.3
	c0.6-0.6,2.3-2.4,4.2-4.2l5.6,5.6L9.3,20.2z M20.1,9.5l-4.9,4.9L9.6,8.8c2.3-2.3,4.5-4.5,4.5-4.6C14.9,3.4,15.9,3,17,3
	c2.2,0,4,1.8,4,4C21,7.9,20.7,8.8,20.1,9.5z"/>
</svg>
