<?xml version="1.0" encoding="utf-8"?>
<!-- Generator: Adobe Illustrator 18.1.1, SVG Export Plug-In . SVG Version: 6.00 Build 0)  -->
<svg version="1.0" xmlns="http://www.w3.org/2000/svg" xmlns:xlink="http://www.w3.org/1999/xlink" x="0px" y="0px"
	 viewBox="0 0 48 48" style="enable-background:new 0 0 48 48;" xml:space="preserve">
<style type="text/css">
	.st0{fill:none;stroke:#000000;stroke-width:2;stroke-linecap:round;stroke-linejoin:round;stroke-miterlimit:10;}
</style>
<g id="guides">
</g>
<g id="Layer_1">
	<path id="XMLID_8399_" d="M38.1,2H10C8.9,2,8,3,8,4.1V12c0,1.1,0.9,2,2,2v29c0,1.7,1.3,3,3,3l22,0c0,0,0,0,0,0
		c0.8,0,1.6-0.3,2.1-0.9c0.6-0.6,0.9-1.3,0.9-2.1l0-29h0.1c1.1,0,1.9-0.9,1.9-2V4.1C40,3,39.2,2,38.1,2z M38,12h-4V4h4V12z M28,12V4
		h4v8H28z M22,12V4h4v8H22z M16,12V4h4v8H16z M10,4h4v8h-4V4z M36,20H19c-0.6,0-1,0.4-1,1v16c0,0.6,0.4,1,1,1h17l0,5
		c0,0.3-0.1,0.5-0.3,0.7C35.5,43.9,35.3,44,35,44h0l-22,0c-0.5,0-1-0.5-1-1V14h24L36,20z M36,22v14H20V22H36z"/>
</g>
</svg>
