<?xml version="1.0" encoding="utf-8"?>
<!-- Generator: Adobe Illustrator 18.1.1, SVG Export Plug-In . SVG Version: 6.00 Build 0)  -->
<svg version="1.1" id="Layer_1" xmlns="http://www.w3.org/2000/svg" xmlns:xlink="http://www.w3.org/1999/xlink" x="0px" y="0px"
	 viewBox="0 0 24 24" enable-background="new 0 0 24 24" xml:space="preserve">
<title>icon_blk/pin</title>
<desc>Created with Sketch.</desc>
<g>
	<path d="M12.5,0C7.3,0,3,4.5,3,10c0,5.5,9.5,14,9.5,14S22,15.5,22,10C22,4.5,17.7,0,12.5,0z M12.5,22.6C9.6,19.9,4,13.8,4,10
		c0-5,3.8-9,8.5-9c4.7,0,8.5,4,8.5,9C21,13.8,15.4,19.9,12.5,22.6z"/>
	<path d="M12.5,6C10.6,6,9,7.6,9,9.5c0,1.9,1.6,3.5,3.5,3.5c1.9,0,3.5-1.6,3.5-3.5C16,7.6,14.4,6,12.5,6z M12.5,12
		c-1.4,0-2.5-1.1-2.5-2.5C10,8.1,11.1,7,12.5,7C13.9,7,15,8.1,15,9.5C15,10.9,13.9,12,12.5,12z"/>
</g>
</svg>
