<?xml version="1.0" encoding="utf-8"?>
<!-- Generator: Adobe Illustrator 18.1.1, SVG Export Plug-In . SVG Version: 6.00 Build 0)  -->
<svg version="1.1" id="Layer_1" xmlns="http://www.w3.org/2000/svg" xmlns:xlink="http://www.w3.org/1999/xlink" x="0px" y="0px"
	 viewBox="0 0 24 24" enable-background="new 0 0 24 24" xml:space="preserve">
<title>icon_blk/prescription</title>
<desc>Created with Sketch.</desc>
<path d="M16.2,18l3.7-4.2c0.2-0.2,0.2-0.5,0-0.7c-0.2-0.2-0.5-0.2-0.7,0l-3.7,4.1L10.6,12h1.9C15,12,17,9,17,6.5C17,4,15,1,12.5,1
	h-7C5.2,1,5,1.2,5,1.5v16C5,17.7,5.2,18,5.5,18C5.8,18,6,17.7,6,17.5V12h3.3l5.5,6.1l-3.7,4.1c-0.2,0.2-0.2,0.5,0,0.7
	c0.1,0.1,0.2,0.1,0.3,0.1c0.1,0,0.3-0.1,0.4-0.2l3.6-4.1l3.6,4c0.1,0.1,0.2,0.2,0.4,0.2c0.1,0,0.2,0,0.3-0.1c0.2-0.2,0.2-0.5,0-0.7
	L16.2,18z M9.5,11H6V2h6.5C14.4,2,16,4.5,16,6.5c0,2-1.6,4.5-3.5,4.5H10H9.5z"/>
</svg>
