<?xml version="1.0" encoding="utf-8"?>
<!-- Generator: Adobe Illustrator 18.1.1, SVG Export Plug-In . SVG Version: 6.00 Build 0)  -->
<svg version="1.1" id="Layer_1" xmlns="http://www.w3.org/2000/svg" xmlns:xlink="http://www.w3.org/1999/xlink" x="0px" y="0px"
	 viewBox="0 0 24 24" enable-background="new 0 0 24 24" xml:space="preserve">
<title>icon_blk/shield</title>
<desc>Created with Sketch.</desc>
<g>
	<path d="M17,10h-2V8c0-0.6-0.4-1-1-1h-3c-0.6,0-1,0.4-1,1v2H8c-0.6,0-1,0.4-1,1v3c0,0.6,0.5,1,1,1h2v2c0,0.6,0.5,1,1,1h3
		c0.6,0,1-0.5,1-1v-2h2c0.6,0,1-0.5,1-1v-3C18,10.4,17.6,10,17,10z M15,14h-1v1v2l-3,0v-2v-1h-1H8l0-3h2h1v-1V8h3v2v1h1h2l0,3H15z"
		/>
	<path d="M21.5,4.7c-1.8,0-5.1-0.7-9-4.7c-4,4-7.3,4.7-9,4.7C2.5,4.7,2,4.5,2,4.5C2,21.5,12.5,24,12.5,24S23,21.5,23,4.5
		C23,4.5,22.5,4.7,21.5,4.7z M17.1,19.8c-2,2.1-4,2.9-4.6,3.1C11.1,22.4,3.4,19.2,3,5.7c0.1,0,0.3,0,0.5,0c2,0,5.2-0.8,9-4.3
		c3.7,3.5,7,4.3,9,4.3c0.2,0,0.3,0,0.5,0C21.8,11.7,20.2,16.6,17.1,19.8z"/>
</g>
</svg>
