<?xml version="1.0" encoding="utf-8"?>
<!-- Generator: Adobe Illustrator 18.1.1, SVG Export Plug-In . SVG Version: 6.00 Build 0)  -->
<svg version="1.1" id="Layer_1" xmlns="http://www.w3.org/2000/svg" xmlns:xlink="http://www.w3.org/1999/xlink" x="0px" y="0px"
	 viewBox="0 0 24 24" enable-background="new 0 0 24 24" xml:space="preserve">
<title>icon_blk/print</title>
<desc>Created with Sketch.</desc>
<g>
	<path d="M8.5,19h7c0.3,0,0.5-0.2,0.5-0.5S15.8,18,15.5,18h-7C8.2,18,8,18.2,8,18.5S8.2,19,8.5,19z"/>
	<path d="M8.5,17h7c0.3,0,0.5-0.2,0.5-0.5S15.8,16,15.5,16h-7C8.2,16,8,16.2,8,16.5S8.2,17,8.5,17z"/>
	<path d="M21.5,7H20V1.5C20,0.7,19.3,0,18.5,0h-13C4.7,0,4,0.7,4,1.5V7H2.5C1.7,7,1,7.7,1,8.6v10C1,19.4,1.7,20,2.5,20H5v2.5
		C5,23.3,5.7,24,6.5,24h11c0.8,0,1.5-0.7,1.5-1.5V20h2.5c0.8,0,1.5-0.6,1.5-1.4v-10C23,7.7,22.3,7,21.5,7z M5,1.5C5,1.2,5.2,1,5.5,1
		h13C18.8,1,19,1.2,19,1.5V7H5V1.5z M18,22.5c0,0.3-0.2,0.5-0.5,0.5h-11C6.2,23,6,22.8,6,22.5V14h12V22.5z M22,18.6
		c0,0.3-0.3,0.4-0.5,0.4H19v-5h0.5c0.3,0,0.5-0.2,0.5-0.5c0-0.3-0.2-0.5-0.5-0.5h-15C4.2,13,4,13.2,4,13.5C4,13.8,4.2,14,4.5,14H5v5
		H2.5C2.3,19,2,18.8,2,18.6v-10C2,8.3,2.2,8,2.5,8h19C21.8,8,22,8.3,22,8.6V18.6z"/>
	<circle cx="18.5" cy="10.5" r="1"/>
	<path d="M8.5,21h7c0.3,0,0.5-0.2,0.5-0.5S15.8,20,15.5,20h-7C8.2,20,8,20.2,8,20.5S8.2,21,8.5,21z"/>
</g>
</svg>
