<?xml version="1.0" encoding="utf-8"?>
<!-- Generator: Adobe Illustrator 18.1.1, SVG Export Plug-In . SVG Version: 6.00 Build 0)  -->
<svg version="1.1" id="Layer_1" xmlns="http://www.w3.org/2000/svg" xmlns:xlink="http://www.w3.org/1999/xlink" x="0px" y="0px"
	 viewBox="0 0 24 24" enable-background="new 0 0 24 24" xml:space="preserve">
<title>icon_blk/question</title>
<desc>Created with Sketch.</desc>
<g>
	<circle cx="12.5" cy="21.5" r="1"/>
	<path d="M12.5,1C8.5,1,5,4.3,5,8c0,0.3,0.2,0.5,0.5,0.5S6,8.3,6,8c0-3.2,3-6,6.5-6C15.6,2,19,3.6,19,7c0,2.5-1.9,3.6-3.8,4.7
		c-1.6,1-3.2,1.9-3.2,3.7v2.3c0,0.3,0.2,0.5,0.5,0.5S13,18,13,17.7v-2.3c0-1.2,1.3-2,2.7-2.8C17.6,11.4,20,10,20,7
		C20,3.1,16.2,1,12.5,1z"/>
</g>
</svg>
