<?xml version="1.0" encoding="utf-8"?>
<!-- Generator: Adobe Illustrator 18.1.1, SVG Export Plug-In . SVG Version: 6.00 Build 0)  -->
<svg version="1.1" id="Layer_1" xmlns="http://www.w3.org/2000/svg" xmlns:xlink="http://www.w3.org/1999/xlink" x="0px" y="0px"
	 viewBox="0 0 24 24" enable-background="new 0 0 24 24" xml:space="preserve">
<title>icon_blk/refresh</title>
<desc>Created with Sketch.</desc>
<g>
	<path d="M5,16c0-0.3-0.2-0.5-0.5-0.5C4.2,15.5,4,15.7,4,16l0,2c-1.3-1.7-2-3.8-2-6C2,6.5,6.5,2,12,2c1,0,1.9,0.1,2.9,0.4
		c0.3,0.1,0.5-0.1,0.6-0.3c0.1-0.3-0.1-0.5-0.3-0.6C14.1,1.2,13.1,1,12,1C5.9,1,1,5.9,1,12c0,2.6,0.9,5,2.5,7L1,19
		c-0.3,0-0.5,0.2-0.5,0.5C0.5,19.8,0.7,20,1,20l3.5,0L5,20l0-0.5L5,16z"/>
	<path d="M23.5,4.5C23.5,4.2,23.3,4,23,4l-3.5,0L19,4l0,0.5L19,8c0,0.3,0.2,0.5,0.5,0.5S20,8.3,20,8l0-2c1.3,1.7,2,3.8,2,6
		c0,5.5-4.5,10-10,10c-1,0-2-0.1-2.9-0.4c-0.3-0.1-0.5,0.1-0.6,0.3c-0.1,0.3,0.1,0.5,0.3,0.6c1,0.3,2.1,0.5,3.2,0.5
		c6.1,0,11-4.9,11-11c0-2.6-0.9-5.1-2.5-7L23,5C23.3,5,23.5,4.8,23.5,4.5z"/>
</g>
</svg>
