<?xml version="1.0" encoding="utf-8"?>
<!-- Generator: Adobe Illustrator 18.1.1, SVG Export Plug-In . SVG Version: 6.00 Build 0)  -->
<svg version="1.1" id="Layer_1" xmlns="http://www.w3.org/2000/svg" xmlns:xlink="http://www.w3.org/1999/xlink" x="0px" y="0px"
	 viewBox="0 0 24 24" enable-background="new 0 0 24 24" xml:space="preserve">
<title>icon_blk/download</title>
<desc>Created with Sketch.</desc>
<g>
	<path d="M8.1,14.3c-0.2,0.2-0.2,0.5,0,0.7l4.3,4.1l4.4-4.1c0.2-0.2,0.2-0.5,0-0.7c-0.2-0.2-0.5-0.2-0.7,0l-3.2,3V2.5
		C13,2.2,12.8,2,12.5,2C12.2,2,12,2.2,12,2.5v14.7l-3.1-2.9C8.7,14.1,8.3,14.1,8.1,14.3z"/>
	<path d="M18.5,9h-2C16.2,9,16,9.2,16,9.5s0.2,0.5,0.5,0.5h2c0.3,0,0.5,0.2,0.5,0.5v11c0,0.3-0.2,0.5-0.5,0.5h-12
		C6.2,22,6,21.8,6,21.5v-11C6,10.2,6.2,10,6.5,10h2C8.8,10,9,9.8,9,9.5S8.8,9,8.5,9h-2C5.7,9,5,9.7,5,10.5v11C5,22.3,5.7,23,6.5,23
		h12c0.8,0,1.5-0.7,1.5-1.5v-11C20,9.7,19.3,9,18.5,9z"/>
</g>
</svg>
