<?xml version="1.0" encoding="utf-8"?>
<!-- Generator: Adobe Illustrator 18.1.1, SVG Export Plug-In . SVG Version: 6.00 Build 0)  -->
<svg version="1.1" id="Layer_1" xmlns="http://www.w3.org/2000/svg" xmlns:xlink="http://www.w3.org/1999/xlink" x="0px" y="0px"
	 viewBox="0 0 24 24" enable-background="new 0 0 24 24" xml:space="preserve">
<title>icon_blk/share</title>
<desc>Created with Sketch.</desc>
<g>
	<path d="M8.5,7c0.1,0,0.3,0,0.4-0.1l3.2-3v9.7c0,0.3,0.2,0.5,0.5,0.5c0.3,0,0.5-0.2,0.5-0.5V3.8l3.1,3c0.2,0.2,0.5,0.2,0.7,0
		s0.2-0.5,0-0.7L12.5,2L8.1,6.2C8,6.3,8,6.6,8.1,6.8C8.2,6.9,8.4,7,8.5,7z"/>
	<path d="M18.5,9h-2C16.2,9,16,9.2,16,9.5s0.2,0.5,0.5,0.5h2c0.3,0,0.5,0.2,0.5,0.5v11c0,0.3-0.2,0.5-0.5,0.5h-12
		C6.2,22,6,21.8,6,21.5v-11C6,10.2,6.2,10,6.5,10h2C8.8,10,9,9.8,9,9.5S8.8,9,8.5,9h-2C5.7,9,5,9.7,5,10.5v11C5,22.3,5.7,23,6.5,23
		h12c0.8,0,1.5-0.7,1.5-1.5v-11C20,9.7,19.3,9,18.5,9z"/>
</g>
</svg>
