<?xml version="1.0" encoding="utf-8"?>
<!-- Generator: Adobe Illustrator 18.1.1, SVG Export Plug-In . SVG Version: 6.00 Build 0)  -->
<svg version="1.1" id="Layer_1" xmlns="http://www.w3.org/2000/svg" xmlns:xlink="http://www.w3.org/1999/xlink" x="0px" y="0px"
	 viewBox="0 0 24 24" enable-background="new 0 0 24 24" xml:space="preserve">
<title>icon_blk/shoe</title>
<desc>Created with Sketch.</desc>
<path d="M20.6,13.7c-0.1,0-0.1,0-0.1-0.1c-1.5-1-2.3-1.6-2.7-2c-0.3-0.3-0.4-0.6-2.1-4c-0.2-0.5-0.4-0.8-0.6-1.2
	C14.1,4.1,13.4,3,12.5,3c-0.6,0-1.1,0.2-1.7,0.7c-0.1,0.1-0.2,0.2-0.4,0.4C9.5,4.8,9.1,5,8.5,5C8.1,5,7.7,4.9,7.1,4.6
	C6.8,4.5,6.5,4.3,6,4.1C4.1,3,4.1,3,3.5,3C2.1,3,0,7.9,0,10c0,1.8,3.1,4,6.8,5c0.7,0.2,1.4,0.6,2.2,1.2c0.4,0.3,2.1,1.7,2,1.6
	c2.7,2.2,5,3.2,8.4,3.2c0.8,0,1.6-0.2,2.2-0.5c0,0,0,0,0,0c0.7-0.4,1.3-0.9,1.7-1.6c0.5-0.8,0.6-1.7,0.6-2.4
	C24,16,23.9,15.9,20.6,13.7z M9.7,15.4C8.7,14.7,8,14.2,7.1,14C3.8,13.1,1,11.2,1,10c0-0.3,0.1-0.8,0.2-1.4c1.5,1.9,4.2,4,6.1,4.4
	c1,0.2,1.9,0.7,3,1.5c0.2,0.1,0.3,0.2,0.5,0.4c-0.1-0.1,0.4,0.3,0.5,0.4c0.4,0.3,0.7,0.5,0.9,0.7c0.2,0.1,2,1.7,2.7,2.2
	c1.1,0.8,2.2,1.4,3.4,1.8c-2.5-0.2-4.4-1.1-6.6-2.9C11.8,17.1,10.1,15.7,9.7,15.4z M22.5,18.5c-0.3,0.5-0.6,0.8-1.1,1.1
	c-2.2-0.1-4-0.9-5.8-2.2c-0.6-0.5-2.5-2.1-2.8-2.3c-0.2-0.1-0.5-0.3-0.8-0.6c-0.1-0.1-0.6-0.5-0.5-0.4c-0.2-0.2-0.4-0.3-0.5-0.4
	c-1.2-0.9-2.2-1.4-3.4-1.7c-1.8-0.4-4.7-2.7-5.9-4.6C2.2,5.7,3.1,4,3.5,4c0.3,0,0.5,0.1,2,0.9C6,5.2,6.4,5.4,6.7,5.6
	C7.4,5.8,8,6,8.5,6C9.4,6,10,5.7,11,4.9c0.2-0.2,0.3-0.3,0.4-0.4C11.9,4.2,12.2,4,12.5,4c0.2,0,0.8,0.8,1.5,2.2l-2.8,1.9
	c-0.2,0.2-0.3,0.5-0.1,0.7c0.2,0.2,0.5,0.3,0.7,0.1l2.7-1.8c0.1,0.3,0.3,0.6,0.4,0.9c0,0.1,0.1,0.2,0.1,0.2l-2.8,1.8
	c-0.2,0.2-0.3,0.5-0.1,0.7c0.2,0.2,0.5,0.3,0.7,0.1l2.7-1.7c1.2,2.7,1.3,2.7,1.7,3.2c0.4,0.4,1.2,1,2.8,2.1c0.1,0,0.1,0,0.1,0.1
	c1.4,1,1.7,1.1,2.1,1.5c0.3,0.2,0.5,0.4,0.7,0.5c0,0,0.1,0.1,0.1,0.1C23,17.2,22.8,17.8,22.5,18.5z"/>
</svg>
