<?xml version="1.0" encoding="utf-8"?>
<!-- Generator: Adobe Illustrator 18.1.1, SVG Export Plug-In . SVG Version: 6.00 Build 0)  -->
<svg version="1.1" id="Layer_1" xmlns="http://www.w3.org/2000/svg" xmlns:xlink="http://www.w3.org/1999/xlink" x="0px" y="0px"
	 viewBox="0 0 24 24" enable-background="new 0 0 24 24" xml:space="preserve">
<title>icon_blk/speechfeedback</title>
<desc>Created with Sketch.</desc>
<g>
	<path d="M11.5,12h-7C4.2,12,4,12.2,4,12.5C4,12.8,4.2,13,4.5,13h7c0.3,0,0.5-0.2,0.5-0.5C12,12.2,11.8,12,11.5,12z"/>
	<path d="M19.5,9H4.5C4.2,9,4,9.2,4,9.5S4.2,10,4.5,10h14.9c0.3,0,0.5-0.2,0.5-0.5S19.8,9,19.5,9z"/>
	<path d="M22.3,2H1.9C0.9,2,0,2.7,0,3.7v11.5c0,1,0.8,1.8,1.8,1.8L4,17v5l6.6-5l11.6,0c1,0,1.8-0.8,1.8-1.8V3.7
		C24,2.7,23.3,2,22.3,2z M23,15.2c0,0.4-0.3,0.8-0.8,0.8l-11.6,0l-0.3,0L10,16.2L5,20v-3v-1l-1,0l-2.2,0C1.4,16,1,15.6,1,15.2V3.7
		C1,3.3,1.4,3,1.9,3h20.4C22.7,3,23,3.3,23,3.7V15.2z"/>
	<path d="M19.5,6H4.5C4.2,6,4,6.2,4,6.5S4.2,7,4.5,7h14.9C19.8,7,20,6.8,20,6.5S19.8,6,19.5,6z"/>
</g>
</svg>
