<?xml version="1.0" encoding="utf-8"?>
<!-- Generator: Adobe Illustrator 18.1.1, SVG Export Plug-In . SVG Version: 6.00 Build 0)  -->
<svg version="1.1" id="Layer_1" xmlns="http://www.w3.org/2000/svg" xmlns:xlink="http://www.w3.org/1999/xlink" x="0px" y="0px"
	 viewBox="0 0 24 24" enable-background="new 0 0 24 24" xml:space="preserve">
<title>icon_blk/speechchat</title>
<desc>Created with Sketch.</desc>
<g>
	<path d="M6.5,8C5.7,8,5,8.7,5,9.5C5,10.3,5.7,11,6.5,11S8,10.3,8,9.5C8,8.7,7.3,8,6.5,8z M6.5,10C6.2,10,6,9.7,6,9.5
		C6,9.2,6.2,9,6.5,9C6.8,9,7,9.2,7,9.5C7,9.7,6.8,10,6.5,10z"/>
	<path d="M21.3,2H1.7C0.8,2,0,2.8,0,3.8v11.4c0,1,0.8,1.8,1.7,1.8l6.8,0l2.9,5l2.9-5h6.9c1,0,1.7-0.8,1.7-1.8V3.8
		C23,2.8,22.2,2,21.3,2z M22,15.2c0,0.4-0.3,0.8-0.8,0.8h-6.9h-0.5l-0.3,0.5l-2,3.6l-2.1-3.6L9.1,16l-0.5,0l-6.8,0
		C1.3,16,1,15.7,1,15.2V3.8C1,3.4,1.3,3,1.7,3h19.5C21.7,3,22,3.4,22,3.8V15.2z"/>
	<path d="M11.5,8C10.7,8,10,8.7,10,9.5c0,0.8,0.7,1.5,1.5,1.5S13,10.3,13,9.5C13,8.7,12.3,8,11.5,8z M11.5,10C11.2,10,11,9.8,11,9.5
		C11,9.2,11.2,9,11.5,9C11.8,9,12,9.2,12,9.5C12,9.8,11.8,10,11.5,10z"/>
	<path d="M16.5,8C15.7,8,15,8.7,15,9.5c0,0.8,0.7,1.5,1.5,1.5S18,10.3,18,9.5C18,8.7,17.4,8,16.5,8z M16.5,10C16.2,10,16,9.8,16,9.5
		C16,9.2,16.2,9,16.5,9C16.8,9,17,9.2,17,9.5C17,9.8,16.8,10,16.5,10z"/>
</g>
</svg>
