<?xml version="1.0" encoding="utf-8"?>
<!-- Generator: Adobe Illustrator 18.1.1, SVG Export Plug-In . SVG Version: 6.00 Build 0)  -->
<svg version="1.1" id="Layer_1" xmlns="http://www.w3.org/2000/svg" xmlns:xlink="http://www.w3.org/1999/xlink" x="0px" y="0px"
	 viewBox="0 0 24 24" enable-background="new 0 0 24 24" xml:space="preserve">
<title>icon_blk/star</title>
<desc>Created with Sketch.</desc>
<path d="M20.5,9h-6l-2-5.7c-0.2-0.4-0.8-0.4-0.9,0L9.6,9H3.5C3.1,9,2.8,9.6,3.2,9.9l4.4,4.2l-2.5,6.2c-0.2,0.4,0.3,0.9,0.7,0.6
	l6.3-3.9l6.2,3.9c0.4,0.3,0.9-0.2,0.7-0.6l-2.4-6.2l4.3-4.2C21.2,9.6,20.9,9,20.5,9z M11.8,16l-5.2,3.2l2.1-5.1
	c0.1-0.2,0-0.4-0.1-0.5L4.7,10h5.2c0.2,0,0.4-0.1,0.5-0.3L12.1,5l1.7,4.7C13.8,9.9,14,10,14.2,10h5.1l-3.6,3.6
	c-0.1,0.1-0.2,0.3-0.1,0.5l2,5.1L12.3,16C12.2,15.9,12,15.9,11.8,16z"/>
</svg>
