<?xml version="1.0" encoding="utf-8"?>
<!-- Generator: Adobe Illustrator 18.1.1, SVG Export Plug-In . SVG Version: 6.00 Build 0)  -->
<svg version="1.1" id="Layer_1" xmlns="http://www.w3.org/2000/svg" xmlns:xlink="http://www.w3.org/1999/xlink" x="0px" y="0px"
	 viewBox="0 0 24 24" enable-background="new 0 0 24 24" xml:space="preserve">
<title>icon_blk/starhalf</title>
<desc>Created with Sketch.</desc>
<path d="M21,9.3C20.9,9.2,20.7,9,20.5,9h-6l-2-5.7C12.5,3.1,12.3,3,12.1,3c-0.2,0-0.4,0.1-0.5,0.3L9.6,9H3.5C3.3,9,3.1,9.2,3,9.4
	C3,9.5,3,9.8,3.2,9.9l4.4,4.3l-2.5,6.2c-0.1,0.2,0,0.4,0.1,0.6C5.3,21,5.4,21,5.5,21c0.1,0,0.2,0,0.3-0.1l6.3-3.9l6.2,3.9
	c0.2,0.1,0.4,0.1,0.6,0c0.2-0.1,0.2-0.4,0.1-0.6l-2.4-6.2l4.3-4.3C21,9.7,21,9.5,21,9.3z M15.7,13.7c-0.1,0.1-0.2,0.3-0.1,0.5l2,5.1
	l-5.2-3.3C12.2,16,12.2,16,12.1,16c0,0,0,0,0,0V5.1l0-0.1l1.7,4.7C13.8,9.9,14,10,14.2,10h5.1L15.7,13.7z"/>
</svg>
