<?xml version="1.0" encoding="utf-8"?>
<!-- Generator: Adobe Illustrator 18.1.1, SVG Export Plug-In . SVG Version: 6.00 Build 0)  -->
<svg version="1.1" id="Layer_1" xmlns="http://www.w3.org/2000/svg" xmlns:xlink="http://www.w3.org/1999/xlink" x="0px" y="0px"
	 viewBox="0 0 24 24" enable-background="new 0 0 24 24" xml:space="preserve">
<title>icon_blk/support</title>
<desc>Created with Sketch.</desc>
<path d="M24,7.9c0-2.6-1.6-5.1-3.9-6.2c-3.1-1.6-5.9-0.3-7.6,1.4C11.2,1.8,9.5,1,7.8,1C4.1,1,1,4.2,1,8.1c0,2.4,1.5,4.4,2.9,5.9
	c-0.4,0.7-0.3,1.7,0.3,2.3c0.4,0.4,0.8,0.6,1.3,0.6h0c0,0,0.1,0,0.1,0c0,0.5,0.1,1.1,0.5,1.5c0.4,0.4,0.8,0.6,1.3,0.6h0
	c0,0,0.1,0,0.1,0c0,0.5,0.1,1.1,0.5,1.5C8.6,20.7,9,21,9.6,21h0c0,0,0.1,0,0.1,0c0,0.5,0.1,1.1,0.5,1.5c0.4,0.4,0.8,0.6,1.3,0.6h0
	c0.5,0,1-0.2,1.3-0.6l1-1.1c0.3-0.3,0.4-0.6,0.5-1c0.2,0.1,0.5,0.2,0.8,0.2c0.5,0,1-0.2,1.4-0.6c0.4-0.4,0.6-1,0.6-1.6
	c0,0,0.1,0,0.1,0c0.5,0,1-0.2,1.4-0.6c0.4-0.4,0.6-0.9,0.6-1.4c0,0,0-0.1,0-0.1c0,0,0.1,0,0.1,0c0.5,0,1-0.2,1.4-0.6
	c0.4-0.4,0.6-0.9,0.6-1.4c0-0.2,0-0.5-0.1-0.7C22.8,12,24,10.4,24,7.9z M6.2,15.6c-0.2,0.2-0.4,0.3-0.6,0.3h0
	c-0.2,0-0.5-0.1-0.6-0.3c-0.3-0.4-0.3-0.9,0-1.3l1-1.1c0.2-0.2,0.4-0.3,0.6-0.3c0.2,0,0.5,0.1,0.6,0.3c0.2,0.2,0.3,0.4,0.3,0.7
	c0,0.2-0.1,0.5-0.3,0.7L6.2,15.6z M8.2,17.6c-0.2,0.2-0.4,0.3-0.6,0.3h0c-0.2,0-0.5-0.1-0.6-0.3c-0.3-0.4-0.3-0.9,0-1.3l1-1.1
	C8.1,15.1,8.4,15,8.6,15c0.2,0,0.5,0.1,0.6,0.3c0.2,0.2,0.3,0.4,0.3,0.7c0,0.2-0.1,0.5-0.3,0.7L8.2,17.6z M10.2,19.7
	c-0.2,0.2-0.4,0.3-0.6,0.3h0c-0.2,0-0.5-0.1-0.6-0.3c-0.3-0.4-0.3-0.9,0-1.3l1-1.1c0.2-0.2,0.4-0.3,0.6-0.3c0.2,0,0.5,0.1,0.6,0.3
	c0.2,0.2,0.3,0.4,0.3,0.7c0,0.2-0.1,0.5-0.3,0.7L10.2,19.7z M13.2,20.7l-1,1.1C12,21.9,11.8,22,11.6,22c-0.2,0-0.5-0.1-0.6-0.3
	c-0.3-0.4-0.3-0.9,0-1.3l1-1.1c0.2-0.2,0.4-0.3,0.6-0.3c0.2,0,0.4,0.1,0.6,0.3c0,0,0,0,0,0.1l0.1,0.1c0.1,0.1,0.2,0.3,0.2,0.5
	C13.5,20.3,13.4,20.5,13.2,20.7z M20.1,15c-0.4,0.4-1,0.4-1.3,0c0,0,0,0,0,0l-2.3-2.4c-0.2-0.2-0.5-0.2-0.7,0
	c-0.2,0.2-0.2,0.5,0,0.7l2.3,2.4c0,0,0,0,0,0c0,0,0,0,0,0c0.2,0.2,0.3,0.4,0.3,0.7c0,0.3-0.1,0.5-0.3,0.7c-0.4,0.4-1,0.4-1.3,0l0,0
	c0,0,0,0,0,0c0,0,0,0,0,0l-2.5-2.5c-0.2-0.2-0.5-0.2-0.7,0c-0.2,0.2-0.2,0.5,0,0.7l2.5,2.6c0.4,0.4,0.4,1,0,1.4
	c-0.4,0.4-1.1,0.4-1.5,0l-0.4-0.4c0,0-0.1-0.1-0.1-0.1c-0.4-0.4-0.9-0.6-1.5-0.6c0,0,0-0.1,0-0.1c0-0.5-0.2-1-0.6-1.4
	C11.5,16.2,11,16,10.5,16c0,0,0-0.1,0-0.1c0-0.5-0.2-1-0.6-1.4C9.5,14.1,9,13.9,8.5,14c0,0,0-0.1,0-0.1c0-0.5-0.2-1-0.6-1.4
	c-0.7-0.8-1.9-0.8-2.7,0l-0.7,0.7C3.3,11.8,2,10,2,8.1c0-3.3,2.7-6,5.8-6c1.5,0,2.9,0.7,4,1.8L7.4,8.4C7.2,8.7,7.1,9,7.1,9.3
	c0.1,0.3,0.3,0.6,0.6,0.7c0.8,0.4,2.5,0.7,4.1-0.9c0.6-0.6,1.6-1.5,2.1-2l6.1,6.4c0,0,0,0.1,0.1,0.1c0.2,0.2,0.3,0.4,0.3,0.7
	S20.3,14.8,20.1,15z M20.7,12.7l-6.4-6.7C14.2,6,14.1,5.9,14,5.9c-0.1,0-0.2,0-0.3,0.1c-0.1,0.1-1.7,1.5-2.6,2.4
	c-1.1,1.2-2.3,1-3,0.7l4.8-4.9c1.4-1.7,4-3,6.7-1.6c2,1,3.3,3.1,3.3,5.3C23,10,22,11.3,20.7,12.7z"/>
</svg>
