<?xml version="1.0" encoding="utf-8"?>
<!-- Generator: Adobe Illustrator 18.1.1, SVG Export Plug-In . SVG Version: 6.00 Build 0)  -->
<svg version="1.1" id="Layer_1" xmlns="http://www.w3.org/2000/svg" xmlns:xlink="http://www.w3.org/1999/xlink" x="0px" y="0px"
	 viewBox="0 0 24 24" enable-background="new 0 0 24 24" xml:space="preserve">
<title>icon_blk/syringe</title>
<desc>Created with Sketch.</desc>
<path d="M17.2,7.5l2.3-2.3l2.6,2.6c0.2,0.2,0.5,0.2,0.7,0s0.2-0.5,0-0.7l-6-5.9c-0.2-0.2-0.5-0.2-0.7,0c-0.2,0.2-0.2,0.5,0,0.7
	l2.6,2.6l-2.3,2.3l-5.6-5.6c-0.2-0.2-0.5-0.2-0.7,0c-0.2,0.2-0.2,0.5,0,0.7L12.3,4L1.5,14.3c-0.6,0.6-0.6,1.5,0,2.1l2.7,2.7l-2.9,3
	c-0.2,0.2-0.2,0.5,0,0.7c0.2,0.2,0.5,0.2,0.7,0l3-3l2.7,2.7c0.6,0.6,1.5,0.6,2.1,0l10.9-10.5l1.6,1.6c0.2,0.2,0.5,0.2,0.7,0
	s0.2-0.5,0-0.7L17.2,7.5z M17.4,13.7C17.4,13.7,17.4,13.6,17.4,13.7l-3.5-3.6c-0.2-0.2-0.5-0.2-0.7,0c-0.2,0.2-0.2,0.5,0,0.7
	l3.5,3.5c0,0,0.1,0,0.1,0.1l-2.4,2.3c0,0,0,0,0,0l-3.5-3.5c-0.2-0.2-0.5-0.2-0.7,0c-0.2,0.2-0.2,0.5,0,0.7l3.5,3.5c0,0,0,0,0,0
	l-2.3,2.3l-3.5-3.4c-0.2-0.2-0.5-0.2-0.7,0c-0.2,0.2-0.2,0.5,0,0.7l3.4,3.4l-1.7,1.6c-0.2,0.2-0.5,0.2-0.7,0l-6.1-6.1
	c-0.2-0.2-0.2-0.5,0-0.7L13,4.7l6.8,6.7L17.4,13.7z"/>
</svg>
