<?xml version="1.0" encoding="utf-8"?>
<!-- Generator: Adobe Illustrator 18.1.1, SVG Export Plug-In . SVG Version: 6.00 Build 0)  -->
<svg version="1.1" id="Layer_1" xmlns="http://www.w3.org/2000/svg" xmlns:xlink="http://www.w3.org/1999/xlink" x="0px" y="0px"
	 viewBox="0 0 24 24" enable-background="new 0 0 24 24" xml:space="preserve">
<title>icon_blk/tag</title>
<desc>Created with Sketch.</desc>
<g>
	<circle cx="18.5" cy="5.6" r="1"/>
	<path d="M22,3.5C22,2.7,21.3,2,20.5,2h0l-7,0c-0.7,0-1.6,0.4-2,0.9l-9,9.1c-0.6,0.6-0.6,1.5-0.1,2.1L9,21.5c0.3,0.3,0.6,0.5,1,0.5
		h0c0.4,0,0.7-0.1,1-0.4l10.1-10.1c0.5-0.5,0.8-1.4,0.8-2.1L22,3.5z M20.5,10.9L10.4,20.9c-0.1,0.1-0.2,0.1-0.3,0.1
		c-0.1,0-0.2-0.1-0.3-0.2l-6.6-7.5c-0.2-0.2-0.2-0.6,0-0.8l9-9.1C12.5,3.3,13.1,3,13.5,3l7,0h0C20.8,3,21,3.2,21,3.5l0,6
		C21,9.9,20.7,10.6,20.5,10.9z"/>
</g>
</svg>
