<?xml version="1.0" encoding="utf-8"?>
<!-- Generator: Adobe Illustrator 20.1.0, SVG Export Plug-In . SVG Version: 6.00 Build 0)  -->
<svg version="1.1" id="Layer_1" xmlns="http://www.w3.org/2000/svg" xmlns:xlink="http://www.w3.org/1999/xlink" x="0px" y="0px"
	 viewBox="0 0 102 142" style="enable-background:new 0 0 102 142;" xml:space="preserve">
<g>
	<path d="M51,5.5c25.4,0,46,20.6,46,46c0,25.4-20.6,46-46,46c-25.4,0-46-20.6-46-46C5,26.1,25.6,5.5,51,5.5 M51,80.3
		c15.9,0,28.9-12.9,28.9-28.9c0-15.9-12.9-28.9-28.9-28.9c-15.9,0-28.9,12.9-28.9,28.9C22.1,67.4,35.1,80.3,51,80.3 M51,0.5
		c-28.2,0-51,22.8-51,51c0,28.2,22.8,51,51,51c28.2,0,51-22.8,51-51C102,23.3,79.2,0.5,51,0.5L51,0.5z M51,75.3
		c-13.2,0-23.9-10.7-23.9-23.9c0-13.2,10.7-23.9,23.9-23.9c13.2,0,23.9,10.7,23.9,23.9C74.8,64.7,64.2,75.3,51,75.3L51,75.3z"/>
</g>
<g>
	<path d="M97,119.5v8.5c0,4.6-4.1,8.5-9,8.5H5V128c0-4.6,4.1-8.5,9-8.5H97 M102,114.5H14c-7.6,0-14,6-14,13.5v13.5h88
		c7.6,0,14-6,14-13.5V114.5L102,114.5z"/>
</g>
</svg>
