<?xml version="1.0" encoding="utf-8"?>
<!-- Generator: Adobe Illustrator 18.1.1, SVG Export Plug-In . SVG Version: 6.00 Build 0)  -->
<svg version="1.1" id="Layer_1" xmlns="http://www.w3.org/2000/svg" xmlns:xlink="http://www.w3.org/1999/xlink" x="0px" y="0px"
	 viewBox="0 0 24 24" enable-background="new 0 0 24 24" xml:space="preserve">
<title>icon_blk/trash</title>
<desc>Created with Sketch.</desc>
<g>
	<path d="M12.5,22.1c0.3,0,0.5-0.2,0.5-0.5v-13c0-0.3-0.2-0.5-0.5-0.5S12,8.3,12,8.6v13C12,21.9,12.2,22.1,12.5,22.1z"/>
	<path d="M16.5,22.1c0.3,0,0.5-0.2,0.5-0.5v-13c0-0.3-0.2-0.5-0.5-0.5S16,8.3,16,8.6v13C16,21.9,16.2,22.1,16.5,22.1z"/>
	<path d="M8.5,22.1c0.3,0,0.5-0.2,0.5-0.5v-13c0-0.3-0.2-0.5-0.5-0.5S8,8.3,8,8.6v13C8,21.9,8.2,22.1,8.5,22.1z"/>
	<path d="M22.5,2H16V0.5C16,0.2,15.8,0,15.5,0h-6C9.2,0,9,0.2,9,0.5V2H2.5C2.2,2,2,2.2,2,2.5v4C2,6.8,2.2,7,2.5,7H4v14.5
		C4,22.9,5.1,24,6.5,24h12c1.4,0,2.5-1.1,2.5-2.5V7h1.5C22.8,7,23,6.8,23,6.5v-4C23,2.2,22.8,2,22.5,2z M10,1h5v1h-5V1z M20,21.5
		c0,0.8-0.7,1.5-1.5,1.5h-12C5.7,23,5,22.3,5,21.5V7h15V21.5z M22,6H3V3h19V6z"/>
</g>
</svg>
