<?xml version="1.0" encoding="utf-8"?>
<!-- Generator: Adobe Illustrator 18.1.1, SVG Export Plug-In . SVG Version: 6.00 Build 0)  -->
<svg version="1.1" id="Layer_1" xmlns="http://www.w3.org/2000/svg" xmlns:xlink="http://www.w3.org/1999/xlink" x="0px" y="0px"
	 viewBox="0 0 24 24" enable-background="new 0 0 24 24" xml:space="preserve">
<title>icon_blk/treadmill</title>
<desc>Created with Sketch.</desc>
<g>
	<path d="M23.9,6.3c-0.2-0.2-0.5-0.3-0.7-0.1l-5,4c-0.2,0.2-0.3,0.5-0.1,0.7c0.2,0.2,0.5,0.3,0.7,0.1L21,9.2v7.9L0.4,20
		c-0.2,0-0.4,0.2-0.4,0.5v2C0,22.8,0.2,23,0.5,23h21c0.3,0,0.5-0.2,0.5-0.5V8.6c0,0,0-0.1,0-0.1L23.8,7C24,6.8,24.1,6.5,23.9,6.3z
		 M21,18.1V22H1v-1.1L21,18.1z"/>
	<path d="M12,10.9l-0.9,3.3l-2.8,1.9c-0.2,0.2-0.3,0.5-0.1,0.7c0.2,0.2,0.5,0.3,0.7,0.1l3-2c0.1-0.1,0.2-0.2,0.2-0.3l0.8-2.7l2.2,2
		v2.6c0,0.3,0.2,0.5,0.5,0.5c0.3,0,0.5-0.2,0.5-0.5v-2.9c0-0.1-0.1-0.3-0.2-0.4L13,10.8V6.5L15.2,8c0.2,0.1,0.5,0.1,0.6-0.1l2-2.1
		c0.2-0.2,0.2-0.5,0-0.7s-0.5-0.2-0.7,0L15.4,7l-2.6-1.8c0,0,0,0,0,0c0,0-0.1,0-0.1,0c0,0-0.1,0-0.1,0c0,0-0.1,0-0.1,0
		c0,0-0.1,0-0.1,0c0,0,0,0-0.1,0L8.8,6.6C8.6,6.7,8.5,6.8,8.5,7L8,9.5C7.9,9.7,8.1,10,8.4,10C8.7,10.1,8.9,9.9,9,9.7l0.4-2.2L12,6.3
		L12,10.9C12,10.9,12,10.9,12,10.9z"/>
	<path d="M12.5,4c1.1,0,2-0.9,2-2s-0.9-2-2-2c-1.1,0-2,0.9-2,2S11.4,4,12.5,4z M12.5,1c0.6,0,1,0.5,1,1s-0.5,1-1,1s-1-0.5-1-1
		S11.9,1,12.5,1z"/>
</g>
</svg>
