<?xml version="1.0" encoding="utf-8"?>
<!-- Generator: Adobe Illustrator 18.1.1, SVG Export Plug-In . SVG Version: 6.00 Build 0)  -->
<svg version="1.0" id="Layer_1" xmlns="http://www.w3.org/2000/svg" xmlns:xlink="http://www.w3.org/1999/xlink" x="0px" y="0px"
	 viewBox="0 0 30 30" style="enable-background:new 0 0 30 30;" xml:space="preserve">
<g id="XMLID_5_">
	<path id="XMLID_7_" d="M30,24.4c0,3.1-2.5,5.6-5.6,5.6H5.6C2.5,30,0,27.5,0,24.4V5.6C0,2.5,2.5,0,5.6,0h18.8C27.5,0,30,2.5,30,5.6
		V24.4z M22.6,10.1c0.9-0.5,1.5-1.3,1.8-2.3c-0.8,0.5-1.7,0.8-2.6,1c-0.7-0.8-1.8-1.3-3-1.3c-2.3,0-4.1,1.8-4.1,4.1
		c0,0.3,0,0.6,0.1,0.9c-3.4-0.2-6.4-1.8-8.5-4.3C6,8.8,5.8,9.6,5.8,10.3c0,1.4,0.7,2.7,1.8,3.4c-0.7,0-1.3-0.2-2-0.5c0,0,0,0,0,0
		c0,2,1.5,3.7,3.4,4c-0.4,0.1-0.6,0.2-1,0.2c-0.3,0-0.5,0-0.8-0.1c0.5,1.6,2,2.8,3.8,2.9C9.7,21.3,7.9,22,6,22c-0.3,0-0.7,0-1-0.1
		c1.8,1.2,4,1.8,6.3,1.8c7.5,0,11.7-6.2,11.7-11.7c0-0.2,0-0.4,0-0.5c0.8-0.6,1.5-1.3,2.1-2.1C24.3,9.7,23.5,10,22.6,10.1z"/>
</g>
</svg>
