<?xml version="1.0" encoding="utf-8"?>
<!-- Generator: Adobe Illustrator 18.1.1, SVG Export Plug-In . SVG Version: 6.00 Build 0)  -->
<svg version="1.1" id="Layer_1" xmlns="http://www.w3.org/2000/svg" xmlns:xlink="http://www.w3.org/1999/xlink" x="0px" y="0px"
	 viewBox="0 0 24 24" enable-background="new 0 0 24 24" xml:space="preserve">
<title>icon_blk/urgentcare</title>
<desc>Created with Sketch.</desc>
<g>
	<path d="M17,7h-2V5c0-0.6-0.4-1-1-1h-3c-0.6,0-1,0.4-1,1v2H8C7.5,7,7,7.4,7,8v3c0,0.6,0.5,1,1,1h2v2c0,0.6,0.5,1,1,1h3
		c0.6,0,1-0.5,1-1v-2h2c0.6,0,1-0.5,1-1V8C18,7.4,17.6,7,17,7z M15,11h-1v1v2l-3,0v-2v-1h-1H8l0-3h2h1V7V5h3v2v1h1h2l0,3H15z"/>
	<path d="M12.5,0C7.3,0,3,4.5,3,10s9.5,14,9.5,14S22,15.5,22,10S17.7,0,12.5,0z M12.5,22.6C9.6,19.9,4,13.8,4,10c0-5,3.8-9,8.5-9
		S21,5,21,10C21,13.8,15.4,19.9,12.5,22.6z"/>
</g>
</svg>
