<?xml version="1.0" encoding="utf-8"?>
<!-- Generator: Adobe Illustrator 18.1.1, SVG Export Plug-In . SVG Version: 6.00 Build 0)  -->
<svg version="1.1" id="Layer_1" xmlns="http://www.w3.org/2000/svg" xmlns:xlink="http://www.w3.org/1999/xlink" x="0px" y="0px"
	 viewBox="0 0 24 24" enable-background="new 0 0 24 24" xml:space="preserve">
<title>icon_blk/users</title>
<desc>Created with Sketch.</desc>
<g>
	<path d="M5.5,13C7.4,13,9,11.4,9,9.5S7.4,6,5.5,6S2,7.6,2,9.5S3.6,13,5.5,13z M5.5,7C6.9,7,8,8.1,8,9.5S6.9,12,5.5,12S3,10.9,3,9.5
		S4.1,7,5.5,7z"/>
	<path d="M16,14c2.8,0,5-2.2,5-5s-2.2-5-5-5s-5,2.2-5,5S13.2,14,16,14z M15.9,4.9C18.2,4.9,20,6.7,20,9s-1.8,4.1-4.1,4.1
		c-2.3,0-4.1-1.8-4.1-4.1S13.7,4.9,15.9,4.9z"/>
	<path d="M23.9,18.2c-1.8-2-4.5-3.2-7.9-3.2c-1.9,0-3.6,0.4-5.1,1.2C9.7,14.8,7.8,14,5.5,14c-2.2,0-3.9,0.8-5.4,2.1
		c-0.2,0.2-0.2,0.5,0,0.7c0.2,0.2,0.5,0.2,0.7,0C2.1,15.6,3.6,15,5.5,15c1.9,0,3.4,0.6,4.5,1.7c-0.6,0.4-1.2,0.9-1.8,1.4
		c-0.2,0.2-0.2,0.5,0,0.7c0.2,0.2,0.5,0.2,0.7,0c2-1.8,4.2-2.8,7.2-2.8c3.1,0,5.5,1.1,7.1,2.9c0.2,0.2,0.5,0.2,0.7,0
		S24.1,18.4,23.9,18.2z"/>
</g>
</svg>
