<?xml version="1.0" encoding="utf-8"?>
<!-- Generator: Adobe Illustrator 18.1.1, SVG Export Plug-In . SVG Version: 6.00 Build 0)  -->
<svg version="1.1" id="Layer_1" xmlns="http://www.w3.org/2000/svg" xmlns:xlink="http://www.w3.org/1999/xlink" x="0px" y="0px"
	 viewBox="0 0 24 24" enable-background="new 0 0 24 24" xml:space="preserve">
<title>icon_blk/user</title>
<desc>Created with Sketch.</desc>
<g>
	<path d="M22.9,22.2C20.4,19.5,16.5,18,12,18c-4.2,0-7.7,1.4-10.8,4.1c-0.2,0.2-0.2,0.5,0,0.7c0.2,0.2,0.5,0.2,0.7,0
		C4.8,20.2,8,19,12,19c4.2,0,7.8,1.4,10.1,3.8c0.1,0.1,0.2,0.2,0.4,0.2c0.1,0,0.3,0,0.3-0.1C23.1,22.7,23.1,22.4,22.9,22.2z"/>
	<path d="M12,16c3.9,0,7-3.1,7-7s-3.1-7-7-7C8.1,2,5,5.1,5,9S8.1,16,12,16z M12,3c3.3,0,6,2.7,6,6s-2.7,6-6,6c-3.3,0-6-2.7-6-6
		S8.7,3,12,3z"/>
</g>
</svg>
