<?xml version="1.0" encoding="utf-8"?>
<!-- Generator: Adobe Illustrator 18.1.1, SVG Export Plug-In . SVG Version: 6.00 Build 0)  -->
<svg version="1.1" id="Layer_1" xmlns="http://www.w3.org/2000/svg" xmlns:xlink="http://www.w3.org/1999/xlink" x="0px" y="0px"
	 viewBox="0 0 24 24" enable-background="new 0 0 24 24" xml:space="preserve">
<title>icon_blk/video</title>
<desc>Created with Sketch.</desc>
<g>
	<path d="M15,6H3C1.9,6,1,6.9,1,8v9c0,1.1,0.9,2,2,2h12c1.1,0,2-0.9,2-2V8C17,6.9,16.1,6,15,6z M16,17c0,0.6-0.4,1-1,1H3
		c-0.6,0-1-0.4-1-1V8c0-0.6,0.4-1,1-1h12c0.6,0,1,0.4,1,1V17z"/>
	<path d="M23.7,7.1c-0.2-0.1-0.3-0.1-0.5,0l-5,3c-0.1,0.1-0.2,0.3-0.2,0.4v4.5c0,0.2,0.1,0.4,0.3,0.4l5,2.5c0.1,0,0.1,0.1,0.2,0.1
		c0.1,0,0.2,0,0.3-0.1c0.1-0.1,0.2-0.3,0.2-0.4v-10C24,7.4,23.9,7.2,23.7,7.1z M23,16.7l-4-2v-3.9l4-2.4V16.7z"/>
</g>
</svg>
