<?xml version="1.0" encoding="utf-8"?>
<!-- Generator: Adobe Illustrator 18.1.1, SVG Export Plug-In . SVG Version: 6.00 Build 0)  -->
<svg version="1.1" id="Layer_1" xmlns="http://www.w3.org/2000/svg" xmlns:xlink="http://www.w3.org/1999/xlink" x="0px" y="0px"
	 viewBox="0 0 24 24" enable-background="new 0 0 24 24" xml:space="preserve">
<title>icon_blk/viewlist</title>
<desc>Created with Sketch.</desc>
<g>
	<path d="M2.5,12h-1C1.2,12,1,12.2,1,12.5S1.2,13,1.5,13h1C2.8,13,3,12.8,3,12.5S2.8,12,2.5,12z"/>
	<path d="M2.5,19h-1C1.2,19,1,19.2,1,19.5S1.2,20,1.5,20h1C2.8,20,3,19.8,3,19.5S2.8,19,2.5,19z"/>
	<path d="M23.5,12h-17C6.2,12,6,12.2,6,12.5S6.2,13,6.5,13h17c0.3,0,0.5-0.2,0.5-0.5S23.8,12,23.5,12z"/>
	<path d="M6.5,6h17C23.8,6,24,5.8,24,5.5S23.8,5,23.5,5h-17C6.2,5,6,5.2,6,5.5S6.2,6,6.5,6z"/>
	<path d="M2.5,5h-1C1.2,5,1,5.2,1,5.5S1.2,6,1.5,6h1C2.8,6,3,5.8,3,5.5S2.8,5,2.5,5z"/>
	<path d="M23.5,19h-17C6.2,19,6,19.2,6,19.5S6.2,20,6.5,20h17c0.3,0,0.5-0.2,0.5-0.5S23.8,19,23.5,19z"/>
</g>
</svg>
