<?xml version="1.0" encoding="utf-8"?>
<!-- Generator: Adobe Illustrator 19.0.0, SVG Export Plug-In . SVG Version: 6.00 Build 0)  -->
<svg version="1.0" id="Layer_1" xmlns="http://www.w3.org/2000/svg" xmlns:xlink="http://www.w3.org/1999/xlink" x="0px" y="0px"
	 viewBox="0 0 48 48" style="enable-background:new 0 0 48 48;" xml:space="preserve">
<g id="guides">
</g>
<g id="Layer_1_1_">
	<g id="XMLID_138_">
		<path id="XMLID_139_" d="M23.6,22c2.8,0,5-2.2,5-5s-2.2-5-5-5s-5,2.2-5,5C18.6,19.9,20.8,22,23.6,22z M23.6,14.1c1.7,0,3,1.3,3,3
			s-1.3,3-3,3s-3-1.3-3-3S21.9,14.1,23.6,14.1z"/>
		<path id="XMLID_192_" d="M38.6,29.5h-6.9c2.9-4,5.5-8.1,5.5-11.5c0-7.9-6.1-14.4-13.6-14.4S10,10.1,10,18c0,3.4,2.6,7.5,5.5,11.5
			h-6l-9.3,15h47.5L38.6,29.5z M23.6,5.4c6.4,0,11.6,5.5,11.6,12.3c0,2.7-2.2,6.7-6.1,11.4c-0.2,0.2-0.4,0.5-0.6,0.7
			c-1.9,2.2-3.7,4-4.9,5.1c-1.3-1.2-3.3-3.3-5.3-5.6c-4-4.8-6.3-8.9-6.3-11.6C12,10.9,17.2,5.4,23.6,5.4z M10.6,31.5h6.8l-0.3-0.2
			c3.3,3.8,6.5,6.8,6.5,6.8s3.1-3.6,6.4-6.6h7.4l6.8,11H3.8L10.6,31.5z"/>
	</g>
</g>
</svg>
