<?xml version="1.0" encoding="utf-8"?>
<!-- Generator: Adobe Illustrator 18.1.1, SVG Export Plug-In . SVG Version: 6.00 Build 0)  -->
<svg version="1.1" id="Layer_1" xmlns="http://www.w3.org/2000/svg" xmlns:xlink="http://www.w3.org/1999/xlink" x="0px" y="0px"
	 viewBox="0 0 24 24" enable-background="new 0 0 24 24" xml:space="preserve">
<title>icon_blk/wellvolution</title>
<desc>Created with Sketch.</desc>
<g>
	<path d="M18,15.2c0,0-2.4,2.8-6.1,2.8c-3.6,0-6-2.8-6-2.8c-0.2-0.2-0.5-0.3-0.8-0.1c-0.2,0.2-0.3,0.5-0.1,0.7
		C5.2,15.9,7.8,19,12,19c4.2,0,6.8-3.1,6.9-3.2c0.2-0.2,0.1-0.5-0.1-0.7C18.6,14.9,18.2,15,18,15.2z"/>
	<path d="M12,0C5.4,0,0,5.4,0,12s5.4,12,12,12s12-5.4,12-12S18.6,0,12,0z M12,23C5.9,23,1,18.1,1,12S5.9,1,12,1s11,4.9,11,11
		S18.1,23,12,23z"/>
</g>
</svg>
