<?xml version="1.0" encoding="utf-8"?>
<!-- Generator: Adobe Illustrator 18.1.1, SVG Export Plug-In . SVG Version: 6.00 Build 0)  -->
<svg version="1.1" id="Layer_1" xmlns="http://www.w3.org/2000/svg" xmlns:xlink="http://www.w3.org/1999/xlink" x="0px" y="0px"
	 viewBox="0 0 24 24" enable-background="new 0 0 24 24" xml:space="preserve">
<title>icon_blk/wheelchair</title>
<desc>Created with Sketch.</desc>
<g>
	<path d="M16.5,17c-1.4,0-2.5,1.1-2.5,2.5c0,1.4,1.1,2.5,2.5,2.5s2.5-1.1,2.5-2.5C19,18.1,17.9,17,16.5,17z M16.5,21
		c-0.9,0-1.5-0.7-1.5-1.5c0-0.9,0.6-1.5,1.5-1.5c0.9,0,1.5,0.6,1.5,1.5C18,20.4,17.4,21,16.5,21z"/>
	<path d="M23,17.3c-0.1-0.3-0.4-0.4-0.7-0.2l-1.6,0.7l-2.6-4.5L17.9,13h-0.3H17V7h0.5C17.8,7,18,6.8,18,6.5C18,6.2,17.8,6,17.5,6H8
		V4.5C8,2.9,7.2,2,5.5,2h-1C4.2,2,4,2.2,4,2.5C4,2.8,4.2,3,4.5,3h1C6.6,3,7,3.4,7,4.5v5.6c-2.9,0.5-5,2.9-5,5.9c0,3.4,2.6,6,6,6
		c3.4,0,6-2.6,6-6c0-0.7-0.1-1.4-0.3-2h3.7l2.7,4.7l0.2,0.4l0.4-0.2l2-0.9C23,17.8,23.1,17.5,23,17.3z M13,16c0,2.9-2.2,5-5,5
		C5.1,21,3,18.9,3,16c0-2.5,1.7-4.5,4-4.9v2.4V14h0.5h5.2C12.9,14.6,13,15.3,13,16z M8,11C8,11,8,11,8,11c1.7,0,3.2,0.8,4.1,2H8V11z
		 M8,10C8,10,8,10,8,10l0-3h8v6h-2.8C12.2,11.2,10.3,10,8,10z"/>
</g>
</svg>
