<?xml version="1.0" encoding="utf-8"?>
<!-- Generator: Adobe Illustrator 18.1.1, SVG Export Plug-In . SVG Version: 6.00 Build 0)  -->
<svg version="1.1" id="Layer_1" xmlns="http://www.w3.org/2000/svg" xmlns:xlink="http://www.w3.org/1999/xlink" x="0px" y="0px"
	 viewBox="0 0 24 24" enable-background="new 0 0 24 24" xml:space="preserve">
<title>icon_blk/yintang</title>
<desc>Created with Sketch.</desc>
<g>
	<path d="M10,6c0,1.1,0.9,2,2,2s2-0.9,2-2s-0.9-2-2-2S10,4.9,10,6z M13,6c0,0.6-0.4,1-1,1s-1-0.4-1-1s0.4-1,1-1S13,5.4,13,6z"/>
	<path d="M12,16c-1.1,0-2,0.9-2,2s0.9,2,2,2s2-0.9,2-2S13.1,16,12,16z M12,19c-0.6,0-1-0.4-1-1s0.4-1,1-1s1,0.4,1,1S12.6,19,12,19z"
		/>
	<path d="M23,11.1c-0.4-5.2-4.5-9.4-9.7-10C12.9,1,12.4,1,12,1v1c0.4,0,0.8,0,1.1,0.1c0.5,0.1,1,0.2,1.5,0.3c0,0,0.1,0,0.1,0.1
		c0.1,0,0.2,0.1,0.3,0.2c0.3,0.2,0.5,0.4,0.8,0.6C16.6,3.9,17,4.8,17,6c0,2.5-1.9,4.5-5.2,5.5C8.2,12.7,6,14.9,6,18
		c0,0.9,0.2,1.6,0.5,2.3c-2.6-1.7-4.4-4.7-4.5-7.8C1.9,9.7,2.9,7,4.9,5c1.9-2,4.4-3,7.2-3l0-1c0,0,0,0,0,0C5.8,1,0.8,6.2,1,12.5
		c0.2,5.3,4.9,10.1,10.2,10.4c0.2,0,0.5,0,0.7,0C18.4,23,23.5,17.6,23,11.1z M19.4,18.8C17.4,20.8,14.8,22,12,22c-0.2,0-0.4,0-0.7,0
		c-0.7,0-1.5-0.2-2.2-0.4c0,0,0,0,0,0c-0.1,0-0.2-0.1-0.3-0.2c-0.3-0.1-0.5-0.3-0.8-0.6C7.4,20.1,7,19.2,7,18c0-2.6,1.9-4.5,5.1-5.5
		C15.7,11.3,18,9,18,6c0-0.9-0.2-1.7-0.6-2.4c2.6,1.6,4.4,4.4,4.6,7.6C22.2,14,21.3,16.7,19.4,18.8z"/>
</g>
</svg>
