<svg id="icon-globe" viewBox="0 0 24 24" width="100%" height="100%">
    <style type="text/css">
        .color{fill:#fff;}
    </style>
    <title>icon_blk/globe</title>
    <path class="color" d="M12 2C6.5 2 2 6.5 2 12s4.5 10 10 10c.8 0 1.5-.1 2.2-.3.5 0 .9-.2 1.3-.4 3.8-1.4 6.5-5.1 6.5-9.3 0-5.5-4.5-10-10-10zm2.3 16.8c-.1.5-.3 1-.5 1.5-.1.2-.2.4-.2.6-.6 0-1.1.1-1.6.1-5 0-9-4-9-9 0-2.1.8-4.1 2-5.6 1.7-.1 2.8 0 3.2 1.6.1.4.1.9.2 1.3.1.8.2 1.7.7 2.6.5.8 1.3 1.9 2.2 2.4.3.2.7.3 1 .4.4.1.7.2 1 .4l.1.1c0 .1-.1.3-.1.5 0 .5.1 1.6.4 2.2.2.4.4.6.5.7.1-.1.1 0 .1.2zm2.6-.3c-.5.8-1.1 1.5-1.9 1.9-.1 0-.3.1-.4.1.2-.5.5-1 .6-1.6.1-.7.1-.9-.3-1.3-.1-.1-.2-.2-.3-.4-.2-.3-.3-1.2-.3-1.7v-.2c.3-.5-.1-.8-.5-1.1-.4-.3-.8-.4-1.3-.6-.3-.1-.6-.2-.8-.3-.6-.4-1.4-1.2-1.9-2-.3-.7-.4-1.3-.4-2.1 0-.5-.1-1-.2-1.5-.5-1.9-1.7-2.3-3-2.4.1-.1.3-.3.5-.4l.1-.1c.6-.5.9-.8 1.3-.7.2 0 .4.2.6.3.5.2.9.5 1.3.4.2 0 .5-.1.8-.2.2-.1.4-.1.6-.1.3 0 .4 0 .6.2.2.1.5.3 1 .4h1.1c-.4.3-.7.7-.8 1.2-.1.8.5 1.2.8 1.4.1.1.2.1.3.2l.2.2c.1.1.3.4.6.3.4 0 .6-.4.7-.8.1-.1.2-.1.2-.6h.2c.1 0 .1.3.2.4.2.4.3.6.4.7.1.2.3.3.3.3v.1c0 .5-.1.8-.6 1-.5.3-.8.6-1 .9-.3.3-.5.5-.8.6h-.9c-.9-.1-2-.1-2.3.6-.4 1 .8 1.8 1.4 2.1.1 0 .1.1.2.1l.2.1c.4.2.9.6 1.4.6.4 0 .6-.2.7-.3 1.1-.2 2 .4 2.1 1.4 0 .2.2.3.3.4.2.1.2.1.2.2.1.3-.2 1-1 2.1l-.2.2zm1.2.1c.7-1 1.3-2 1-2.8-.1-.2-.2-.5-.6-.7-.4-1.4-1.7-2.2-3.3-1.9-.3 0-.5.2-.6.3-.2 0-.6-.3-.8-.4V13c-.1 0-.1-.1-.2-.1-.9-.5-1-.8-1-.8.2-.1.9-.1 1.3 0 .5 0 1 .1 1.3 0 .6-.2.9-.6 1.2-.9.2-.3.4-.5.8-.7.8-.4 1.1-1 1.1-1.9 0-.5-.2-.7-.4-.9l-.2-.2c0-.1-.2-.4-.3-.6-.4-.7-.5-.9-.8-.9h-.8c-.2 0-.4.2-.5.5 0 .2-.1.6-.2.8 0 0-.1 0-.1-.1-.1-.1-.2-.2-.3-.2-.4-.2-.4-.3-.3-.4 0-.3.5-.7.9-.9l.3-.3c0-.1 0-.3-.1-.4-.5-.7-1.2-.7-1.8-.7h-.5c-.2 0-.4-.1-.6-.2-.3-.2-.6-.4-1.2-.3-.2 0-.5.1-.7.2-.2.1-.5.1-.6.1-.1 0-.5-.2-.7-.3h-.1C10 3.2 11 3 12 3c5 0 9 4 9 9 0 2.6-1.1 5-2.9 6.6z">
    </path>
</svg>