<svg xmlns="http://www.w3.org/2000/svg" viewBox="0 0 30 30" id="icon-instagram" width="100%" height="100%">
    <style type="text/css">
        .st0{fill:#767676;}
    </style>
    <path class="st0" d="M30 26.1c0 2.1-1.7 3.8-3.8 3.8H3.8C1.7 30 0 28.2 0 26.1V3.8C0 1.7 1.7 0 3.8 0h22.3C28.3 0 30 1.7 30 3.8v22.3zm-3.4-13.4H24c.3.8.4 1.7.4 2.6 0 5-4.2 9-9.3 9-5.1 0-9.3-4-9.3-9 0-.9.1-1.8.4-2.6H3.3v12.7c0 .7.5 1.2 1.2 1.2h20.9c.7 0 1.2-.5 1.2-1.2V12.7zM15 9.1c-3.3 0-6 2.6-6 5.8 0 3.2 2.7 5.8 6 5.8s6-2.6 6-5.8c.1-3.2-2.6-5.8-6-5.8zm11.6-4.5c0-.7-.6-1.3-1.3-1.3h-3.4c-.7 0-1.3.6-1.3 1.3v3.2c0 .7.6 1.3 1.3 1.3h3.4c.7 0 1.3-.6 1.3-1.3V4.6z">
    </path>
</svg>