<?xml version="1.0" encoding="utf-8"?>
<!-- Generator: Adobe Illustrator 18.1.1, SVG Export Plug-In . SVG Version: 6.00 Build 0)  -->

<svg version="1.1" id="Layer_1" xmlns="http://www.w3.org/2000/svg" xmlns:xlink="http://www.w3.org/1999/xlink" x="0px" y="0px"
	 viewBox="0 0 24 24" width="24" height="24" enable-background="new 0 0 24 24" xml:space="preserve">
<title>icon_blk/search</title>
<desc>Created with Sketch.</desc>
    <style type="text/css">
	.st0{fill:#adadad;}
</style>
<path class="st0" d="M21.8,21.2L16,15.3c1.2-1.4,2-3.3,2-5.3c0-4.4-3.6-8-8-8c-4.4,0-8,3.6-8,8c0,4.4,3.6,8,8,8c2,0,3.9-0.8,5.3-2l5.9,5.9
	c0.2,0.2,0.5,0.2,0.7,0C22,21.7,22,21.4,21.8,21.2z M3,10c0-3.8,3.1-7,7-7c3.9,0,7,3.1,7,7s-3.1,7-7,7C6.1,17,3,13.9,3,10z"/>
</svg>
