<?xml version="1.0" standalone="yes"?><!DOCTYPE svg PUBLIC "-//W3C//DTD SVG 1.1//EN" "http://www.w3.org/Graphics/SVG/1.1/DTD/svg11.dtd"><svg xmlns="http://www.w3.org/2000/svg" xmlns:xlink="http://www.w3.org/1999/xlink"><symbol viewBox="0 0 24 24" id="icon-add" xmlns="http://www.w3.org/2000/svg"><title>icon_blk/add</title><path d="M18.5 11H12V4.5c0-.3-.2-.5-.5-.5s-.5.2-.5.5V11H4.5c-.3 0-.5.2-.5.5s.2.5.5.5H11v6.5c0 .3.2.5.5.5s.5-.2.5-.5V12h6.5c.3 0 .5-.2.5-.5s-.2-.5-.5-.5z"/></symbol><symbol viewBox="0 0 24 24" id="icon-alarm" xmlns="http://www.w3.org/2000/svg"><title>icon_blk/alarm</title><path d="M21 16h-1V9.6c0-3.9-1.9-6.8-6-7.5V2c0-1.1-.9-2-2-2s-2 .9-2 2v.1c-4.2.7-6 3.4-6 7.6V16H3c-1.1 0-2 .9-2 2v.9c0 1.1.9 2 2 2h6v.2c0 1.6 1.3 2.8 3 2.8s3-1.3 3-2.9h6c1.1 0 2-.9 2-2v-1c0-1.1-.9-2-2-2zM12 1c.6 0 1 .4 1 1h-2c0-.5.5-1 1-1zM5 9.7C5 5.4 7 3 12 3c4.9 0 7 2.6 7 6.6V16H5V9.7zm9 11.4c0 1-.9 1.9-2 1.9s-2-.8-2-1.8V21h4v.1zm8-2.2c0 .6-.5 1-1 1H3c-.6 0-1-.5-1-1V18c0-.6.5-1 1-1h18c.6 0 1 .5 1 1v.9z"/></symbol><symbol viewBox="0 0 24 24" id="icon-alert" xmlns="http://www.w3.org/2000/svg"><title>icon_blk/alert</title><path d="M12.5 16c.3 0 .5-.2.5-.5v-7c0-.3-.2-.5-.5-.5s-.5.2-.5.5v7c0 .3.2.5.5.5z"/><circle cx="12.5" cy="18.5" r=".8"/><path d="M23.8 20.3L13.5 2.7c-.3-.5-.6-.7-1-.7s-.7.2-1 .7L1.2 20.3c-.6 1-.1 1.7 1 1.7h20.5c1.2 0 1.6-.8 1.1-1.7zm-1 .7H2s0-.1.1-.2L12.3 3.2c.1-.1.1-.2.1-.2s.1.1.1.2l10.3 17.6c0 .1.1.2.1.2h-.1z"/></symbol><symbol viewBox="0 0 24 24" id="icon-arrow-down" xmlns="http://www.w3.org/2000/svg"><title>icon_blk/arrowdown</title><path d="M12.5 16L6.1 9.8c-.1-.2-.1-.5 0-.7.2-.1.6-.1.8 0l5.6 5.5 5.6-5.5c.2-.2.5-.2.7 0 .2.2.2.5 0 .7L12.5 16z"/></symbol><symbol viewBox="0 0 24 24" id="icon-arrow-down-sm" xmlns="http://www.w3.org/2000/svg"><title>icon_blk/arrowdown_sm</title><path d="M12.5 14l-3.3-3.2c-.2-.2-.2-.5 0-.7.2-.2.5-.2.7 0l2.6 2.5 2.7-2.5c.2-.2.5-.2.7 0 .2.2.2.5 0 .7L12.5 14z"/></symbol><symbol viewBox="0 0 24 24" id="icon-arrow-left" xmlns="http://www.w3.org/2000/svg"><title>icon_blk/arrowleft</title><path d="M15.5 19c-.1 0-.2 0-.3-.1L9 12.5l6.2-6.4c.2-.2.5-.2.7 0 .2.2.2.5 0 .7l-5.5 5.6 5.5 5.6c.2.2.2.5 0 .7-.1.3-.3.3-.4.3"/></symbol><symbol viewBox="0 0 24 24" id="icon-arrow-left-sm" xmlns="http://www.w3.org/2000/svg"><title>icon_blk/arrowleft_sm</title><path d="M13.5 16c-.1 0-.2 0-.3-.1L10 12.5l3.2-3.3c.2-.2.5-.2.7 0 .2.2.2.5 0 .7l-2.5 2.6 2.5 2.7c.2.2.2.5 0 .7-.1.1-.3.1-.4.1"/></symbol><symbol viewBox="0 0 24 24" id="icon-arrow-right" xmlns="http://www.w3.org/2000/svg"><title>icon_blk/arrowright</title><path d="M9.5 19c-.1 0-.2 0-.3-.1-.2-.2-.2-.5 0-.7l5.5-5.6-5.6-5.7c-.1-.2-.1-.6 0-.8.2-.1.5-.1.7 0l6.2 6.4-6.2 6.4c-.1.1-.2.1-.3.1"/></symbol><symbol viewBox="0 0 24 24" id="icon-arrow-right-sm" xmlns="http://www.w3.org/2000/svg"><title>icon_blk/arrowright_sm</title><path d="M10.5 16c-.1 0-.2 0-.3-.1-.2-.2-.2-.5 0-.7l2.5-2.6-2.5-2.7c-.2-.2-.2-.5 0-.7.2-.2.5-.2.7 0l3.2 3.4-3.2 3.3c-.2.1-.3.1-.4.1"/></symbol><symbol viewBox="0 0 24 24" id="icon-arrow-up" xmlns="http://www.w3.org/2000/svg"><title>icon_blk/arrowup</title><path d="M18.9 15.2L12.5 9l-6.4 6.2c-.2.2-.2.5 0 .7.1.1.3.1.4.1s.3 0 .4-.1l5.6-5.5 5.6 5.5c.2.2.5.2.7 0 .2-.2.2-.5.1-.7z"/></symbol><symbol viewBox="0 0 24 24" id="icon-arrow-up-sm" xmlns="http://www.w3.org/2000/svg"><title>icon_blk/arrowup_sm</title><path d="M9.5 14c-.1 0-.3 0-.4-.1-.2-.2-.2-.5 0-.7l3.4-3.2 3.3 3.2c.2.2.2.5 0 .7-.2.2-.5.2-.7 0l-2.6-2.5-2.7 2.5c0 .1-.2.1-.3.1"/></symbol><symbol preserveAspectRatio="xMidYMid" viewBox="0 0 163 8" id="icon-bar-rating-0" xmlns="http://www.w3.org/2000/svg"><path fill="#eaeaea" d="M159 8H4a4 4 0 0 1 0-8h155a4 4 0 0 1 0 8z" class="alcls-1" fill-rule="evenodd"/></symbol><symbol preserveAspectRatio="xMidYMid" viewBox="0 0 163 8" id="icon-bar-rating-1" xmlns="http://www.w3.org/2000/svg"><path fill="#eaeaea" d="M4 0h155a4 4 0 0 1 0 8H4V0z" fill-rule="evenodd"/><path fill="#0082ca" d="M4 0h36v8H4a4 4 0 0 1 0-8z" class="amcls-2" fill-rule="evenodd"/></symbol><symbol preserveAspectRatio="xMidYMid" viewBox="0 0 163 8" id="icon-bar-rating-2" xmlns="http://www.w3.org/2000/svg"><path fill="#eaeaea" d="M4 0h155a4 4 0 0 1 0 8H4V0z" fill-rule="evenodd"/><path fill="#0082ca" d="M41 0h40v8H41z"/><path fill="#0082ca" d="M4 0h36v8H4a4 4 0 0 1 0-8z" class="ancls-3" fill-rule="evenodd"/></symbol><symbol preserveAspectRatio="xMidYMid" viewBox="0 0 163 8" id="icon-bar-rating-3" xmlns="http://www.w3.org/2000/svg"><path fill="#eaeaea" d="M4 0h155a4 4 0 0 1 0 8H4V0z" class="aocls-1" fill-rule="evenodd"/><path fill="#0082ca" class="aocls-2" d="M82 0h40v8H82zM41 0h40v8H41z"/><path fill="#0082ca" d="M4 0h36v8H4a4 4 0 0 1 0-8z" class="aocls-3" fill-rule="evenodd"/></symbol><symbol preserveAspectRatio="xMidYMid" viewBox="0 0 163 8" id="icon-bar-rating-4" xmlns="http://www.w3.org/2000/svg"><path fill="#eaeaea" d="M4 0h155a4 4 0 0 1 0 8H4V0z" class="apcls-1" fill-rule="evenodd"/><path fill="#0082ca" class="apcls-2" d="M82 0h40v8H82z"/><path fill="#0082ca" d="M123 0h36a4 4 0 0 1 0 8h-36V0z" class="apcls-3" fill-rule="evenodd"/><path fill="#0082ca" class="apcls-2" d="M41 0h40v8H41z"/><path fill="#0082ca" d="M4 0h36v8H4a4 4 0 0 1 0-8z" class="apcls-3" fill-rule="evenodd"/></symbol><symbol viewBox="0 0 24 24" id="icon-bookmark" xmlns="http://www.w3.org/2000/svg"><title>icon_blk/bookmark</title><path d="M18.5 2h-13c-.3 0-.5.2-.5.5v19c0 .2.1.4.3.5.2.1.4 0 .6-.2l6.1-7.5 6.1 7.5c.1.1.2.2.4.2h.2c.2-.1.3-.3.3-.5v-19c0-.3-.2-.5-.5-.5zM18 20.1l-5.6-6.9c-.1-.1-.2-.2-.4-.2s-.3.1-.4.2L6 20.1V3h12v17.1z"/></symbol><symbol viewBox="0 0 24 24" id="icon-brain" xmlns="http://www.w3.org/2000/svg"><title>icon_blk/brain</title><path d="M10.7 10.2c-.2-.1-.4 0-.5.1-.4.4-1.3.3-1.5.3-.2 0-.3 0-.4.1-.2.1-.3.3-.3.4 0 .1-.4.6-1 .9-.5.3-.9.4-1.2.3-1.1-.3-1.9 0-2.1.3-.2.2-.2.5 0 .7.2.2.5.2.7.1 0 0 .4-.3 1.2-.1.9.3 2-.3 2.7-.8.2-.2.5-.5.7-.8.3 0 .7 0 1.1-.1v2.5c0 .3.2.5.5.5s.5-.2.5-.5c.1-1.1 0-3.3 0-3.4-.1-.2-.2-.4-.4-.5z"/><path d="M5.7 11.4c.1 0 .2.1.2.1h.2l.3-.3c.1-.2.5-2.2.2-3.3-.1-.4-.4-.5-.6-.5-.3.1-.4.4-.3.7.1.5.1 1.4-.1 2.2-.6-.2-1.6-.4-2.6-.1-.3.1-.4.3-.3.6 0 .2.3.4.6.3 1.3-.4 2.4.3 2.4.3zM9.7 6.6c-.3.5-.5 1.3-.3 2.5 0 .3.2.4.5.4h.1c.3 0 .5-.3.4-.5-.2-1.6.4-2.1.4-2.1.2-.1.2-.3.2-.5-.1-.2-.2-.3-.4-.4-.5-.1-.9-.7-1-1-.2-.3-.5-.4-.7-.3-.3.1-.4.4-.3.7.1.1.4.8 1.1 1.2zM15.4 9.3h.1c.1 0 .2 0 .3-.1.1 0 .2-.2.2-.3.1-.4.3-1.4.7-1.7.2-.2.3-.5.1-.7-.2-.2-.5-.3-.7-.1-.6.4-.9 1.3-1 1.8-.7-.3-1.2-.6-1.4-1.1-.4-.8-.1-1.6-.1-1.6.1-.3 0-.5-.3-.6-.3-.1-.5 0-.6.3 0 0-.4 1.2.2 2.4.4.8 1.2 1.4 2.5 1.7z"/><path d="M22.3 10.2V10c0-1.9-1.2-3.5-2.9-4.2-.8-1.3-2.2-2.2-3.9-2.2h-.3c-.7-.4-1.5-.6-2.3-.6-.7 0-.9.2-1.5.5-.5-.2-1-.3-1.5-.3-1.3 0-1.9.5-2.7 1.3h-.3c-2.2 0-4.1 1.6-4.5 3.7-1 1.2-1.5 1.9-1.4 3.7.1 2.3 1.2 3.9 3.4 4.3.2 0 .5.1.7.1.6 0 1.2-.1 1.7-.4.8.7 1.2 1 2.4 1 .6 0 1.2-.1 1.8-.4.5.8 1.5 1.2 2 1.2V22h5s-.2-2.8.4-3.9c2.3-.2 3.6-1.8 3.6-3.7.8-.5 1-1.4 1-2.3 0-.9-.3-1.3-.7-1.9zm-.8 3.4c-.3.2-.5.5-.5.8 0 1.2-.7 2.5-2.6 2.7-.4 0-.7.2-.8.5-.5.9-.6 2.4-.6 3.4h-.5v-2.1c0-1.2.1-2.2 1.2-2.6 1.8-.6 2.1-1.7 2.1-1.8.1-.3-.1-.5-.4-.6-.3-.1-.5.1-.6.4 0 0-.2.7-1.4 1.1-1.9.7-1.9 2.5-1.9 3.6v2H14v-3.3c0-.5-.4-1-1-1-.2 0-.9-.3-1.2-.8-.2-.3-.5-.4-.8-.4-.1 0-.3 0-.4.1-.4.2-.9.3-1.4.3-.9 0-1.1-.1-1.7-.7-.2-.2-.5-.3-.7-.3-.2 0-.3 0-.5.1-.3.2-.8.3-1.2.3h-.5C2.9 15 2.1 13.8 2 11.9c-.1-1.5.2-1.9 1.2-3 .1-.1.2-.3.2-.5.3-1.7 1.7-2.9 3.5-2.9H7.2c.3 0 .5-.1.7-.3.8-.8 1.2-1 2-1 .4 0 .8.1 1.2.2.1 0 .2.1.3.1.2 0 .3 0 .4-.1.1-.1.2-.1.3-.1.4-.3.4-.3.8-.3.7 0 1.3.2 1.8.5.2.1.3.1.5.1h.4c1.2 0 2.4.6 3 1.7.1.2.3.3.5.4 1.4.5 2.2 1.8 2.2 3.3v.1c0 .2 0 .4.1.6l.1.1c.3.6.5.7.5 1.3 0 .9-.2 1.3-.5 1.5z"/><path d="M17.2 12.9c-.1-.8-.4-2.4-2.4-2.4-.4 0-.8-.3-1.1-.5-.3-.2-.6-.4-.9-.3-.4.2-.4.6-.1 1.9.1.5.2 1 .2 1.5.1.9-.1 1.5-.2 1.5-.1.2 0 .5.2.7.1 0 .2.1.2.1.2 0 .3-.1.4-.2 0-.1.4-.8.3-2.1-.1-.5-.2-1.1-.3-1.5 0-.1 0-.2-.1-.3.3.2.7.4 1.2.4 1.1 0 1.3.6 1.4 1.6 0 .1 0 .2.1.3.1.3.3.4.6.4.3-.1.4-.3.4-.6.1-.3.1-.4.1-.5zM19.6 11.9c-.1-.7-.4-1.3-.6-1.7 1-.8 1-1.9 1-1.9 0-.3-.2-.5-.5-.5s-.5.2-.5.5c0 0-.1.9-1 1.4-.1.1-.2.2-.2.3 0 .1 0 .3.1.4 0 0 .8 1 .7 1.9 0 .2 0 .3.1.4.1.1.3.2.4.1.5-.1 1.1-.1 1.2 0 .1.1.2.1.4.1.1 0 .3 0 .4-.1.2-.2.2-.5 0-.7-.4-.2-1-.2-1.5-.2z"/></symbol><symbol viewBox="0 0 24 24" id="icon-calculator" xmlns="http://www.w3.org/2000/svg"><title>icon_blk/calculator</title><path d="M12.5 19h-1c-.3 0-.5.2-.5.5s.2.5.5.5h1c.3 0 .5-.2.5-.5s-.2-.5-.5-.5zM12.5 16h-1c-.3 0-.5.2-.5.5s.2.5.5.5h1c.3 0 .5-.2.5-.5s-.2-.5-.5-.5zM8.5 13h-1c-.3 0-.5.2-.5.5s.2.5.5.5h1c.3 0 .5-.2.5-.5s-.2-.5-.5-.5zM8.5 16h-1c-.3 0-.5.2-.5.5s.2.5.5.5h1c.3 0 .5-.2.5-.5s-.2-.5-.5-.5zM8.5 19h-1c-.3 0-.5.2-.5.5s.2.5.5.5h1c.3 0 .5-.2.5-.5s-.2-.5-.5-.5zM16.5 13h-1c-.3 0-.5.2-.5.5s.2.5.5.5h1c.3 0 .5-.2.5-.5s-.2-.5-.5-.5zM12.5 13h-1c-.3 0-.5.2-.5.5s.2.5.5.5h1c.3 0 .5-.2.5-.5s-.2-.5-.5-.5zM16.5 3h-9C6.7 3 6 3.7 6 4.5v4c0 .8.7 1.5 1.5 1.5h9c.8 0 1.5-.7 1.5-1.5v-4c0-.8-.7-1.5-1.5-1.5zm.5 5.5c0 .3-.2.5-.5.5h-9c-.3 0-.5-.2-.5-.5v-4c0-.3.2-.5.5-.5h9c.3 0 .5.2.5.5v4z"/><path d="M19 0H5C3.9 0 3 .9 3 2v20c0 1.1.9 2 2 2h14c1.1 0 2-.9 2-2V2c0-1.1-.9-2-2-2zm1 22c0 .6-.4 1-1 1H5c-.6 0-1-.4-1-1V2c0-.6.4-1 1-1h14c.6 0 1 .4 1 1v20z"/><path d="M16.5 19h-1c-.3 0-.5.2-.5.5s.2.5.5.5h1c.3 0 .5-.2.5-.5s-.2-.5-.5-.5zM16.5 16h-1c-.3 0-.5.2-.5.5s.2.5.5.5h1c.3 0 .5-.2.5-.5s-.2-.5-.5-.5z"/></symbol><symbol viewBox="0 0 24 24" id="icon-calendar" xmlns="http://www.w3.org/2000/svg"><title>icon_blk/calendar</title><path d="M11.5 16h1c.3 0 .5-.2.5-.5s-.2-.5-.5-.5h-1c-.3 0-.5.2-.5.5s.2.5.5.5zM15.5 19h1c.3 0 .5-.2.5-.5s-.2-.5-.5-.5h-1c-.3 0-.5.2-.5.5s.2.5.5.5zM11.5 13h1c.3 0 .5-.2.5-.5s-.2-.5-.5-.5h-1c-.3 0-.5.2-.5.5s.2.5.5.5zM15.5 13h1c.3 0 .5-.2.5-.5s-.2-.5-.5-.5h-1c-.3 0-.5.2-.5.5s.2.5.5.5zM15.5 16h1c.3 0 .5-.2.5-.5s-.2-.5-.5-.5h-1c-.3 0-.5.2-.5.5s.2.5.5.5zM19.5 13h1c.3 0 .5-.2.5-.5s-.2-.5-.5-.5h-1c-.3 0-.5.2-.5.5s.2.5.5.5zM19.5 19h1c.3 0 .5-.2.5-.5s-.2-.5-.5-.5h-1c-.3 0-.5.2-.5.5s.2.5.5.5zM19.5 16h1c.3 0 .5-.2.5-.5s-.2-.5-.5-.5h-1c-.3 0-.5.2-.5.5s.2.5.5.5zM3.5 19h1c.3 0 .5-.2.5-.5s-.2-.5-.5-.5h-1c-.3 0-.5.2-.5.5s.2.5.5.5zM11.5 19h1c.3 0 .5-.2.5-.5s-.2-.5-.5-.5h-1c-.3 0-.5.2-.5.5s.2.5.5.5z"/><path d="M23 4h-4V2.5c0-.3-.2-.5-.5-.5s-.5.2-.5.5V4H6V2.5c0-.3-.2-.5-.5-.5s-.5.2-.5.5V4H1c-.5 0-1 .5-1 1.1V22c0 .5.5 1 1 1h22c.5 0 1-.5 1-1V5.1c0-.6-.4-1.1-1-1.1zm0 18H1V9h22v13zm0-14H1V5h4v1.5c0 .3.2.5.5.5s.5-.2.5-.5V5h12v1.5c0 .3.2.5.5.5s.5-.2.5-.5V5h4v3z"/><path d="M3.5 16h1c.3 0 .5-.2.5-.5s-.2-.5-.5-.5h-1c-.3 0-.5.2-.5.5s.2.5.5.5zM7.5 13h1c.3 0 .5-.2.5-.5s-.2-.5-.5-.5h-1c-.3 0-.5.2-.5.5s.2.5.5.5zM7.5 19h1c.3 0 .5-.2.5-.5s-.2-.5-.5-.5h-1c-.3 0-.5.2-.5.5s.2.5.5.5zM7.5 16h1c.3 0 .5-.2.5-.5s-.2-.5-.5-.5h-1c-.3 0-.5.2-.5.5s.2.5.5.5z"/></symbol><symbol viewBox="0 0 24 24" id="icon-california" xmlns="http://www.w3.org/2000/svg"><title>icon_blk/california</title><path d="M23 18.8l-.9-2c0-.1-.1-.1-.1-.2L12 7.8V.5c0-.3-.2-.5-.5-.5h-9c-.2 0-.3.1-.4.2-.1.1-.1.3-.1.5l.5 1.4L2 3.9v.2l1 3.5c0 .1 0 .2.1.2l2.4 2.9V12c0 .1.1.3.2.4l.6.6.2 1.1c0 .1 0 .1.1.2l2.9 4.4c.1.1.2.2.3.2l1.5.3.9 1.1c.1.1.2.2.4.2h1.3l2 1.6.2 1.4c0 .2.2.4.5.4h5c.3 0 .5-.2.5-.5v-2.3l1-1.9c-.1-.1-.1-.2-.1-.4zm-2 2.1c0 .1-.1.1-.1.2V23h-4.1l-.2-1.2c0-.1-.1-.2-.2-.3l-2.2-1.9c-.1-.1-.2-.1-.3-.1h-1.3l-.8-1.1c-.1-.1-.2-.2-.3-.2l-1.4-.3-2.7-4.1-.2-1.2c0-.1-.1-.2-.2-.3l-.6-.6v-1.2c0-.1 0-.2-.1-.3l-2.4-3L3 4l.5-1.8v-.3L3.2 1H11v7c0 .1.1.3.2.4l10 9L22 19l-1 1.9z"/></symbol><symbol viewBox="0 0 24 24" id="icon-camera" xmlns="http://www.w3.org/2000/svg"><title>icon_blk/camera</title><path d="M21.5 6h-3s-2-3-6.5-3-6.5 3-6.5 3h-3C1 6 0 7 0 8.5v10C0 20 1 21 2.5 21h19c1.5 0 2.5-1 2.5-2.5v-10C24 7 23 6 21.5 6zM23 18.5c0 1-.5 1.5-1.5 1.5h-19c-1 0-1.5-.5-1.5-1.5v-10C1 7.5 1.6 7 2.5 7H6l.3-.4C6.3 6.5 8.1 4 12 4c3.9 0 5.6 2.5 5.7 2.6l.3.4h3.5c.9 0 1.5.6 1.5 1.5v10z"/><path d="M12 8c-2.8 0-5 2.2-5 5s2.2 5 5 5 5-2.2 5-5-2.2-5-5-5zm0 9c-2.2 0-4-1.8-4-4s1.8-4 4-4 4 1.8 4 4-1.8 4-4 4z"/></symbol><symbol viewBox="0 0 48 32" id="icon-card" xmlns="http://www.w3.org/2000/svg"><title>card</title><path d="M21 18H5a1 1 0 0 0 0 2h16a1 1 0 0 0 0-2zM17 22H5a1 1 0 0 0 0 2h12a1 1 0 0 0 0-2z"/><path d="M48 4.13A4.07 4.07 0 0 0 44 0H4a4.07 4.07 0 0 0-4 4.13v23.74A4.07 4.07 0 0 0 4 32h40a4.07 4.07 0 0 0 4-4.13V4.13zM2 8h44v2H2V8zm2-6h40a2.17 2.17 0 0 1 2 2.22V6H2V4.22A2.17 2.17 0 0 1 4 2zm40 28H4a2.09 2.09 0 0 1-2-2.13V12h44v15.87A2.09 2.09 0 0 1 44 30z"/><path d="M44 17a1 1 0 0 0-1-1H31a1 1 0 0 0-1 1v6a1 1 0 0 0 1 1h12a1 1 0 0 0 1-1v-6zm-2 5H32v-4h10v4z"/></symbol><symbol viewBox="0 0 48 48" id="icon-check" xmlns="http://www.w3.org/2000/svg"><path d="M16 39.2l-12-12c-.4-.4-.7-1.3 0-2s1.9.1 2 0l10 11.1L42 9.2c.4-.4 1.3-.7 2 0s.4 1.6 0 2l-28 28z"/></symbol><symbol viewBox="0 0 24 24" id="icon-circle-add" xmlns="http://www.w3.org/2000/svg"><title>icon_blk/circleadd</title><path d="M12.5 2C6.7 2 2 6.7 2 12.5S6.7 23 12.5 23 23 18.3 23 12.5 18.3 2 12.5 2zm0 20C7.3 22 3 17.7 3 12.5S7.3 3 12.5 3 22 7.3 22 12.5 17.7 22 12.5 22z"/><path d="M17.5 12H13V7.5c0-.3-.2-.5-.5-.5s-.5.2-.5.5V12H7.5c-.3 0-.5.2-.5.5s.2.5.5.5H12v4.5c0 .3.2.5.5.5s.5-.2.5-.5V13h4.5c.3 0 .5-.2.5-.5s-.2-.5-.5-.5z"/></symbol><symbol viewBox="0 0 24 24" id="icon-circle-alert" xmlns="http://www.w3.org/2000/svg"><title>icon_blk/circlealert</title><path d="M12.5 16c.3 0 .5-.2.5-.5v-9c0-.3-.2-.5-.5-.5s-.5.2-.5.5v9c0 .3.2.5.5.5z"/><circle cx="12.5" cy="18.5" r=".8"/><path d="M12.5 2C6.7 2 2 6.7 2 12.5S6.7 23 12.5 23 23 18.3 23 12.5 18.3 2 12.5 2zm0 20C7.3 22 3 17.7 3 12.5S7.3 3 12.5 3 22 7.3 22 12.5 17.7 22 12.5 22z"/></symbol><symbol viewBox="0 0 24 24" id="icon-circle-check" xmlns="http://www.w3.org/2000/svg"><title>icon_blk/circlecheck</title><path d="M17.1 9.1l-5.6 5.6-2.7-2.6c-.2-.2-.5-.2-.7 0-.2.2-.2.5 0 .7l3 2.9.4.3.3-.3 6-6c.2-.2.2-.5 0-.7s-.5 0-.7.1z"/><path d="M12.5 2C6.7 2 2 6.7 2 12.5S6.7 23 12.5 23 23 18.3 23 12.5 18.3 2 12.5 2zm0 20C7.3 22 3 17.7 3 12.5S7.3 3 12.5 3 22 7.3 22 12.5 17.7 22 12.5 22z"/></symbol><symbol viewBox="0 0 24 24" id="icon-circle-close" xmlns="http://www.w3.org/2000/svg"><title>icon_blk/circleclose</title><path d="M16.8 8.2c-.2-.2-.6-.2-.8 0l-3.5 3.5L9 8.2c-.2-.2-.6-.2-.8 0-.3.2-.3.5 0 .8l3.5 3.5L8.2 16c-.2.2-.2.6 0 .8.1.1.2.2.4.2s.3-.1.4-.2l3.5-3.5 3.5 3.5c.1.1.3.2.4.2s.3-.1.4-.2c.2-.2.2-.6 0-.8l-3.5-3.5L16.8 9c.3-.3.3-.6 0-.8z"/><path d="M12.5 2C6.7 2 2 6.7 2 12.5S6.7 23 12.5 23 23 18.3 23 12.5 18.3 2 12.5 2zm0 20C7.3 22 3 17.7 3 12.5S7.3 3 12.5 3 22 7.3 22 12.5 17.7 22 12.5 22z"/></symbol><symbol viewBox="0 0 24 24" id="icon-circle-info" xmlns="http://www.w3.org/2000/svg"><title>icon_blk/circleinfo</title><circle cx="12.5" cy="7.6" r=".8"/><path d="M12.5 10c-.3 0-.5.2-.5.5v7.9c0 .3.2.5.5.5s.5-.2.5-.5v-7.9c0-.2-.2-.5-.5-.5z"/><path d="M12.5 2C6.7 2 2 6.7 2 12.5S6.7 23 12.5 23 23 18.3 23 12.5 18.3 2 12.5 2zm0 20C7.3 22 3 17.7 3 12.5S7.3 3 12.5 3 22 7.3 22 12.5 17.7 22 12.5 22z"/></symbol><symbol viewBox="0 0 24 24" id="icon-circle-pending" xmlns="http://www.w3.org/2000/svg"><title>icon_blk/circlepending</title><circle cx="8.5" cy="12.5" r="1"/><path d="M12.5 2C6.7 2 2 6.7 2 12.5S6.7 23 12.5 23 23 18.3 23 12.5 18.3 2 12.5 2zm0 20C7.3 22 3 17.7 3 12.5S7.3 3 12.5 3 22 7.3 22 12.5 17.7 22 12.5 22z"/><circle cx="12.5" cy="12.5" r="1"/><circle cx="16.5" cy="12.5" r="1"/></symbol><symbol viewBox="0 0 24 24" id="icon-circle-question" xmlns="http://www.w3.org/2000/svg"><title>icon_blk/circlequestion</title><circle cx="12.5" cy="19.5" r=".8"/><path d="M12.5 2C6.7 2 2 6.7 2 12.5S6.7 23 12.5 23 23 18.3 23 12.5 18.3 2 12.5 2zm0 20C7.3 22 3 17.7 3 12.5S7.3 3 12.5 3 22 7.3 22 12.5 17.7 22 12.5 22z"/><path d="M13 6c-2.6 0-5 2-5 4.5 0 .3.2.5.5.5s.5-.2.5-.5C9 8.6 10.9 7 13 7c2.3 0 4 1.2 4 2.9 0 1.1-.6 1.8-2.2 2.6-.1.1-.6.3-.8.4-1.4.7-2 1.3-2 2.3v1.3c0 .3.2.5.5.5s.5-.2.5-.5v-1.3c0-.5.4-.8 1.5-1.4.1-.1.6-.3.8-.4 1.9-1 2.8-1.9 2.8-3.5C18 7.5 15.7 6 13 6z"/></symbol><symbol viewBox="0 0 24 24" id="icon-clipboard" xmlns="http://www.w3.org/2000/svg"><title>icon_blk/clipboard</title><path d="M5.1 13.1c0 .1-.1.3-.1.4s.1.3.1.4c.1 0 .3.1.4.1s.3-.1.4-.1c0-.1.1-.3.1-.4s-.1-.3-.1-.4c-.2-.1-.6-.1-.8 0zM5.1 8.1c0 .1-.1.3-.1.4 0 .1.1.3.1.4.1 0 .3.1.4.1s.3-.1.4-.1c0-.1.1-.3.1-.4 0-.1-.1-.3-.1-.4-.2-.1-.6-.1-.8 0zM5.1 18.1c0 .1-.1.3-.1.4s.1.3.1.4c.1 0 .3.1.4.1.1 0 .3-.1.4-.1 0-.1.1-.3.1-.4s-.1-.3-.1-.4c-.2-.1-.6-.1-.8 0zM17.5 13h-9c-.3 0-.5.2-.5.5s.2.5.5.5h8.9c.3 0 .5-.2.5-.5s-.1-.5-.4-.5z"/><path d="M19.5 3H16V1.6c0-.9-.7-1.6-1.5-1.6h-6C7.7 0 7 .7 7 1.6V3H3.5C2.7 3 2 3.7 2 4.5v18c0 .8.7 1.5 1.5 1.5h16c.8 0 1.5-.7 1.5-1.5v-18c0-.8-.7-1.5-1.5-1.5zM8 1.6c0-.3.2-.6.5-.6h6.1c.2 0 .4.3.4.6V3H8V1.6zm12 20.9c0 .3-.2.5-.5.5h-16c-.3 0-.5-.2-.5-.5v-18c0-.3.2-.5.5-.5h16c.3 0 .5.2.5.5v18z"/><path d="M17.5 8h-9c-.3 0-.5.2-.5.5s.2.5.5.5h8.9c.4 0 .6-.2.6-.5s-.2-.5-.5-.5zM17.5 18h-9c-.3 0-.5.2-.5.5s.2.5.5.5h8.9c.3 0 .5-.2.5-.5s-.1-.5-.4-.5z"/></symbol><symbol viewBox="0 0 48 48" id="icon-clock" xmlns="http://www.w3.org/2000/svg"><path d="M23 4c11.6 0 21 9.4 21 21s-9.4 21-21 21S2 36.6 2 25 11.4 4 23 4m0-2C10.3 2 0 12.3 0 25s10.3 23 23 23 23-10.3 23-23S35.7 2 23 2z"/><path d="M33 36c-.3 0-.5-.1-.7-.3l-10-10c-.2-.2-.3-.4-.3-.7V7c0-.6.4-1 1-1s1 .4 1 1v17.6l9.7 9.7c.4.4.4 1 0 1.4-.2.2-.4.3-.7.3z"/></symbol><symbol viewBox="0 0 24 24" id="icon-close" xmlns="http://www.w3.org/2000/svg"><title>icon_blk/close</title><path d="M12.7 12l7.1-7.1c.2-.2.2-.5 0-.7-.2-.2-.5-.2-.7 0L12 11.3 4.9 4.1c-.2-.1-.6-.1-.8 0-.1.2-.1.6 0 .8l7.2 7.2-7.1 7.1c-.2.2-.2.5 0 .7.1.1.2.1.3.1.1 0 .3 0 .4-.1l7.1-7.1 7.1 7.1c.1.1.2.1.4.1s.3 0 .4-.1c.2-.2.2-.5 0-.7L12.7 12z"/></symbol><symbol viewBox="0 0 24 24" id="icon-cog" xmlns="http://www.w3.org/2000/svg"><title>icon_blk/cog</title><path d="M22.2 12.5c.1-1.2.8-2.1 1.8-2.6-.3-1.2-.7-2.3-1.3-3.3-.3.1-.7.2-1 .2-.8 0-1.6-.3-2.3-1-.9-.9-1.1-2.2-.8-3.4-1-.6-2.1-1.1-3.2-1.4-.5 1.1-1.6 1.8-2.9 1.8-1.3 0-2.3-.8-2.9-1.8-1.1.3-2.2.8-3.2 1.4.4 1.2.1 2.5-.8 3.4-.6.6-1.4 1-2.3 1-.3 0-.7-.1-1-.2-.6 1-1 2.1-1.3 3.3 1 .5 1.6 1.5 1.8 2.6-.2 1.2-.8 2.1-1.8 2.6.3 1.2.7 2.3 1.3 3.3.3-.1.7-.2 1-.2.8 0 1.6.3 2.3 1 .9.9 1.1 2.2.8 3.4 1 .6 2.1 1.1 3.2 1.4.5-1.1 1.6-1.8 2.9-1.8 1.3 0 2.3.8 2.9 1.8 1.1-.3 2.2-.8 3.2-1.4-.4-1.2-.1-2.5.8-3.4.6-.6 1.4-1 2.3-1 .3 0 .7.1 1 .2.6-1 1-2.1 1.3-3.3-1-.5-1.6-1.4-1.8-2.6zm0 4.8h-.5c-1.1 0-2.2.4-3 1.3-.9 1-1.4 2.3-1.2 3.6-.5.3-1.1.5-1.7.7-.8-1.1-2-1.7-3.3-1.7-1.3 0-2.5.6-3.3 1.7-.6-.2-1.1-.4-1.7-.7.2-1.3-.3-2.6-1.2-3.6-.8-.8-1.8-1.3-3-1.3h-.5c-.3-.6-.5-1.1-.7-1.7.9-.7 1.5-1.8 1.6-3v-.2c-.1-1.2-.7-2.2-1.6-3 .2-.6.4-1.2.7-1.7h.5c1.1 0 2.2-.4 3-1.3.9-1 1.4-2.3 1.2-3.6.5-.3 1.1-.5 1.7-.7.8 1.1 2 1.7 3.3 1.7 1.3 0 2.5-.6 3.3-1.7.6.2 1.1.4 1.7.7-.2 1.3.3 2.6 1.2 3.6.8.8 1.8 1.3 3 1.3h.5c.3.6.5 1.1.7 1.7-.9.7-1.5 1.8-1.6 3v.2c.1 1.2.7 2.2 1.6 3-.2.6-.5 1.1-.7 1.7z"/><path d="M12.5 9C10.6 9 9 10.6 9 12.5s1.6 3.5 3.5 3.5 3.5-1.6 3.5-3.5S14.4 9 12.5 9zm0 6c-1.4 0-2.5-1.1-2.5-2.5s1.1-2.5 2.5-2.5 2.5 1.1 2.5 2.5-1.1 2.5-2.5 2.5z"/></symbol><symbol viewBox="0 0 24 24" id="icon-coupon" xmlns="http://www.w3.org/2000/svg"><title>icon_blk/coupon</title><path d="M17.5 11c-.3 0-.5.2-.5.5v1c0 .3.2.5.5.5s.5-.2.5-.5v-1c0-.3-.2-.5-.5-.5zM17.5 14.5c-.3 0-.5.2-.5.5v1c0 .3.2.5.5.5s.5-.2.5-.5v-1c0-.3-.2-.5-.5-.5z"/><path d="M21.8 4H2.5C1.1 4 0 5.1 0 6.5v1.6c0 .7.5 1.3 1.2 1.5C2.3 9.9 3 10.9 3 12c0 1.1-.7 2.1-1.8 2.4-.7.2-1.2.8-1.2 1.5v1.6C0 18.9 1.1 20 2.5 20h19.3c1.2 0 2.2-1 2.2-2.2V6.2C24 5 23 4 21.8 4zM23 17.8c0 .7-.5 1.2-1.2 1.2H18v-.5c0-.3-.2-.5-.5-.5s-.5.2-.5.5v.5H2.5c-.8 0-1.5-.7-1.5-1.5v-1.6c0-.3.2-.5.4-.6C3 14.9 4 13.6 4 12c0-1.6-1-2.9-2.5-3.4-.3 0-.5-.3-.5-.5V6.5C1 5.7 1.7 5 2.5 5H17v.5c0 .3.2.5.5.5s.5-.2.5-.5V5h3.8c.7 0 1.2.5 1.2 1.2v11.6z"/><path d="M17.5 7.5c-.3 0-.5.2-.5.5v1c0 .3.2.5.5.5s.5-.2.5-.5V8c0-.3-.2-.5-.5-.5z"/></symbol><symbol viewBox="0 0 24 24" id="icon-dashboard" xmlns="http://www.w3.org/2000/svg"><title>icon_blk/dashboard</title><path d="M5.9 16h-2c-.3 0-.5.2-.5.5s.2.5.5.5h2c.3 0 .5-.2.5-.5s-.2-.5-.5-.5zM6.7 10.2c-.2-.2-.5-.2-.7 0-.2.2-.2.5 0 .7l1.2 1.2c.2.2.5.2.7 0 .2-.2.2-.5 0-.7l-1.2-1.2zM13 10.6v-2c0-.3-.2-.5-.5-.5s-.5.2-.5.5v2c0 .3.2.5.5.5s.5-.2.5-.5z"/><path d="M12 6C5.9 6 1 11.2 1 17.5c0 .3.2.5.5.5s.5-.2.5-.5C2 11.7 6.5 7 12 7s10 4.7 10 10.5c0 .3.2.5.5.5s.5-.2.5-.5C23 11.2 18.1 6 12 6z"/><path d="M19.9 16h-2c-.3 0-.5.2-.5.5s.2.5.5.5h2c.3 0 .5-.2.5-.5s-.2-.5-.5-.5zM17.8 10.9c.2-.2.2-.5 0-.7-.2-.2-.5-.2-.7 0L13 14.3c-.3-.2-.6-.3-1-.3-1.1 0-2 .9-2 2s.9 2 2 2 2-.9 2-2c0-.4-.1-.7-.3-1l4.1-4.1zM11.9 17c-.6 0-1-.4-1-1s.4-1 1-1 1 .4 1 1-.4 1-1 1z"/></symbol><symbol viewBox="0 0 24 24" id="icon-doctor" xmlns="http://www.w3.org/2000/svg"><title>icon_blk/doctor</title><circle cx="19.5" cy="13.5" r="1.5"/><path d="M23 13.5c0-1.9-1.6-3.5-3.5-3.5S16 11.6 16 13.5c0 1.8 1.3 3.2 3 3.5 0 3.4-2 5-5.5 5C9.9 22 8 20.2 8 16v-3c3.8-.2 6-2.4 6-7V.5c0-.3-.2-.5-.5-.5H11c-.3 0-.5.2-.5.5s.2.5.5.5h2v5c0 4.2-1.9 6-5.5 6S2 10.2 2 6V1h2c.3 0 .5-.2.5-.5S4.3 0 4 0H1.5c-.3 0-.5.2-.5.5V6c0 4.6 2.2 6.8 6 7v3c0 4.8 2.4 7 6.5 7 4 0 6.5-2 6.5-6 1.7-.3 3-1.7 3-3.5zM19.5 16c-1.4 0-2.5-1.1-2.5-2.5s1.1-2.5 2.5-2.5 2.5 1.1 2.5 2.5-1.1 2.5-2.5 2.5z"/></symbol><symbol viewBox="0 0 24 24" id="icon-dollar" xmlns="http://www.w3.org/2000/svg"><title>icon_blk/dollar</title><path d="M19 15.5c0-2.9-3.3-4.9-7-5V3c2.6.2 5 1.7 5 3.5 0 .3.2.5.5.5s.5-.2.5-.5C18 4 15.1 2.2 12 2V.5c0-.3-.2-.5-.5-.5s-.5.2-.5.5V2c-3 .2-6 2.3-6 5 0 2.9 2.6 4.4 6 4.5V20c-3-.2-6-2-6-4.5 0-.2-.2-.5-.5-.5s-.5.3-.5.5c0 3.2 3.5 5.3 7 5.5v2.5c0 .3.2.5.5.5s.5-.2.5-.5V21c3.8-.2 7-2.1 7-5.5zM6 7c0-2 2.5-3.7 5-3.9v7.5C8.1 10.3 6 9.1 6 7zm6 13v-8.5c3.2.2 6 1.8 6 4 0 2.7-2.6 4.3-6 4.5z"/></symbol><symbol viewBox="0 0 24 24" id="icon-eye" xmlns="http://www.w3.org/2000/svg"><title>icon_blk/eye</title><path d="M12 7c-2.8 0-5 2.2-5 5s2.2 5 5 5 5-2.2 5-5-2.2-5-5-5zm0 9c-2.2 0-4-1.8-4-4s1.8-4 4-4 4 1.8 4 4-1.8 4-4 4z"/><path d="M23.9 11.8C23.7 11.5 19.1 5 12 5 4.9 5 .3 11.5.1 11.8c-.1.2-.1.4 0 .6.2.2 4.8 6.6 11.9 6.6 7.1 0 11.7-6.4 11.9-6.7.1-.1.1-.4 0-.5zM12 18c-5.7 0-9.8-4.7-10.7-5.9C2.2 10.8 6.3 6 12 6c5.7 0 9.8 4.8 10.8 6.1-1 1.2-5.1 5.9-10.8 5.9z"/></symbol><symbol viewBox="0 0 30 30" id="icon-facebook" xmlns="http://www.w3.org/2000/svg"><path d="M30 5.6v18.8c0 3.1-2.5 5.6-5.6 5.6h-3.7V18.4h3.9l.6-4.5h-4.5V11c0-1.3.4-2.2 2.2-2.2h2.4v-4c-.4-.1-1.8-.2-3.5-.2-3.5 0-5.8 2.1-5.8 6v3.3h-3.9v4.5H16V30H5.6C2.5 30 0 27.5 0 24.4V5.6C0 2.5 2.5 0 5.6 0h18.8C27.5 0 30 2.5 30 5.6z"/></symbol><symbol viewBox="0 0 24 24" id="icon-facilities" xmlns="http://www.w3.org/2000/svg"><title>icon_blk/facilities</title><path d="M5 14h3v-4H5v4zm1-3h1v2H6v-2zM5 21h3v-4H5v4zm1-3h1v2H6v-2zM5 7h3V3H5v4zm1-3h1v2H6V4zM17 11h-1v2h-2v1h2v2h1v-2h2v-1h-2z"/><path d="M17 7.7V0H2v24h21V11l-6-3.3zM10 23H3V1h13v6.8L10 11v12zm8 0h-3v-4h3v4zm4 0h-3v-5h-5v5h-3V11.6L16 9l.5-.3.5.2 5 2.7V23z"/><path d="M11 7h3V3h-3v4zm1-3h1v2h-1V4z"/></symbol><symbol viewBox="0 0 24 24" id="icon-file" xmlns="http://www.w3.org/2000/svg"><title>icon_blk/file</title><path d="M14 1H6c-1.1 0-2 .9-2 2v18c0 1.1.9 2 2 2h13c1.1 0 2-.9 2-2V8.1L14 1zm0 1.4L19.5 8H15c-.5 0-1-.4-1-1V2.4zM20 21c0 .6-.4 1-1 1H6c-.6 0-1-.4-1-1V3c0-.5.4-1 1-1h7v5c0 1.1.9 2 2 2h5v12z"/></symbol><symbol viewBox="0 0 24 24" id="icon-file-csv" xmlns="http://www.w3.org/2000/svg"><path d="M14 1H6c-1.1 0-2 .9-2 2v18c0 1.1.9 2 2 2h13c1.1 0 2-.9 2-2V8.1L14 1zm5.5 7h-4C14.2 8 14 7.4 14 6.8V2.4L19.5 8zm.5 13c0 .6-.4 1-1 1H6c-.6 0-1-.4-1-1V3c0-.6.4-1 1-1h7v4.8c0 .8.3 2.2 2.5 2.2H20v12z"/><path d="M7 13h11v1H7zM7 15h11v1H7zM7 17h11v1H7zM8 8h1V5h1V4H7v1h1z"/></symbol><symbol viewBox="0 0 24 24" id="icon-file-excel" xmlns="http://www.w3.org/2000/svg"><path d="M14 1H6c-1.1 0-2 .9-2 2v18c0 1.1.9 2 2 2h13c1.1 0 2-.9 2-2V8.1L14 1zm5.5 7h-4C14.2 8 14 7.4 14 6.8V2.4L19.5 8zm.5 13c0 .6-.4 1-1 1H6c-.6 0-1-.4-1-1V3c0-.6.4-1 1-1h7v4.8c0 .8.3 2.2 2.5 2.2H20v12z"/><path d="M7.1 7.9c.1.1.3.2.4.2.1 0 .3 0 .4-.1L9 6.7l1.2 1.2c.1.1.2.1.4.1s.3 0 .4-.1c.2-.2.2-.5 0-.7L9.7 6l1.2-1.2c.2-.2.2-.5 0-.7-.2-.2-.5-.2-.7 0L9 5.3 7.8 4.1c-.2-.2-.5-.2-.7 0s-.2.5 0 .7L8.3 6 7.1 7.2c-.2.2-.2.5 0 .7zM7 19h11v-7H7v7zm1-3h4v2H8v-2zm5 2v-2h4v2h-4zm4-3h-4v-2h4v2zm-5-2v2H8v-2h4z"/></symbol><symbol viewBox="0 0 24 24" id="icon-file-pdf" xmlns="http://www.w3.org/2000/svg"><path d="M14 1H6c-1.1 0-2 .9-2 2v18c0 1.1.9 2 2 2h13c1.1 0 2-.9 2-2V8.1L14 1zm5.5 7h-4C14.2 8 14 7.4 14 6.8V2.4L19.5 8zm.5 13c0 .6-.4 1-1 1H6c-.6 0-1-.4-1-1V3c0-.6.4-1 1-1h7v4.8c0 .8.3 2.2 2.5 2.2H20v12z"/><path d="M8.7 12H7v5h1v-1h.7c1 0 1.8-1.1 1.8-2s-.8-2-1.8-2zm0 3H8v-2h.7c.4 0 .8.5.8 1s-.4 1-.8 1zM15 14v3h1v-2h2v-1h-2v-1h2v-1h-3zM12.2 12H11v5h1.2c1.3 0 2.3-1.1 2.3-2.5s-1-2.5-2.3-2.5zm0 4H12v-3h.2c.7 0 1.3.6 1.3 1.5s-.6 1.5-1.3 1.5z"/></symbol><symbol viewBox="0 0 24 24" id="icon-filter" xmlns="http://www.w3.org/2000/svg"><title>icon_blk/filter</title><path d="M7 9.1V3.5c0-.3-.2-.5-.5-.5s-.5.2-.5.5v5.6c-.6.2-1 .8-1 1.4 0 .7.4 1.2 1 1.4v8.6c0 .3.2.5.5.5s.5-.2.5-.5V12v-.1c.6-.2 1-.8 1-1.4 0-.6-.4-1.2-1-1.4zM6.5 11c-.3 0-.5-.2-.5-.5s.2-.5.5-.5.5.2.5.5-.2.5-.5.5zM20 7.5c0-.7-.4-1.2-1-1.4V3.5c0-.3-.2-.5-.5-.5s-.5.2-.5.5v2.6c-.6.2-1 .8-1 1.4 0 .7.4 1.2 1 1.4v11.6c0 .3.2.5.5.5s.5-.2.5-.5V9v-.1c.6-.2 1-.7 1-1.4zm-1.5.5c-.3 0-.5-.2-.5-.5 0-.2.2-.5.5-.5s.5.3.5.5c0 .3-.2.5-.5.5zM13 15.1s0-.1 0 0V3.5c0-.3-.2-.5-.5-.5s-.5.2-.5.5v11.6c-.6.2-1 .8-1 1.4 0 .6.4 1.2 1 1.4v2.6c0 .3.2.5.5.5s.5-.2.5-.5v-2.6c.6-.2 1-.8 1-1.4 0-.6-.4-1.2-1-1.4zm-.5 1.9c-.3 0-.5-.2-.5-.5s.2-.5.5-.5.5.2.5.5-.2.5-.5.5z"/></symbol><symbol viewBox="0 0 24 24" id="icon-folder" xmlns="http://www.w3.org/2000/svg"><title>icon_blk/folder</title><path d="M22.6 9.8c-.4-.5-1-.8-1.7-.8H20v-.7C20 6.9 19 6 17.7 6H8.9V4.5c0-.4-.2-.8-.4-1.1-.3-.2-.7-.4-1.1-.4H2.5C1.6 3 1 3.7 1 4.5v17c0 .3.1.5.4.5h16.5c1.3 0 2.7-1 3-2.3l2.1-8.1c.1-.7 0-1.4-.4-1.8zM2 6.5v-2c0-.2.2-.5.5-.5h5c.4 0 .5.4.5.5v2c0 .3.1.5.4.5h9.4C18 7 19 7 19 8.3V9H6.6c-1.4 0-2.7 1-3 2.3L2 17.8V6.5zm19.9 4.8l-2.1 8.1c-.2.8-1.1 1.6-2 1.6H2.1l2.4-9.4c.3-.9 1.2-1.6 2.1-1.6h14.3c.4 0 .7.1.9.4.2.2.2.6.1.9z"/></symbol><symbol viewBox="0 0 24 24" id="icon-gender-female" xmlns="http://www.w3.org/2000/svg"><title>icon_blk/genderfemale</title><path d="M17.5 17H13v-2c3.3-.3 6-3.1 6-6.5C19 4.9 16.1 2 12.5 2S6 4.9 6 8.5c0 3.4 2.7 6.2 6 6.5v2H7.5c-.3 0-.5.2-.5.5s.2.5.5.5H12v3.5c0 .3.2.5.5.5s.5-.2.5-.5V18h4.5c.3 0 .5-.2.5-.5s-.2-.5-.5-.5zM7 8.5C7 5.5 9.5 3 12.5 3S18 5.5 18 8.5 15.6 14 12.6 14C9.5 14 7 11.5 7 8.5z"/></symbol><symbol viewBox="0 0 24 24" id="icon-gender-male" xmlns="http://www.w3.org/2000/svg"><title>icon_blk/gendermale</title><path d="M20.5 3h-6c-.3 0-.5.2-.5.5s.2.5.5.5h4.8l-5.7 5.7C12.4 8.6 10.8 8 9 8c-3.9 0-7 3.1-7 7s3.1 7 7 7 7-3.1 7-7c0-1.8-.7-3.4-1.7-4.6L20 4.7v4.8c0 .3.2.5.5.5s.5-.2.5-.5V3h-.5zM9 21c-3.3 0-6-2.7-6-6s2.7-6 6-6 6 2.7 6 6-2.7 6-6 6z"/></symbol><symbol viewBox="0 0 24 24" id="icon-glasses" xmlns="http://www.w3.org/2000/svg"><title>icon_blk/glasses</title><path d="M23.5 12h-1c-.2-2.2-2.2-4-4.5-4-2.1 0-3.9 1.5-4.4 3.5-.5-.3-1-.5-1.6-.5-.6 0-1.2.2-1.6.5C9.9 9.5 8.1 8 6 8c-2.3 0-4.2 1.8-4.5 4h-1c-.3 0-.5.2-.5.5s.2.5.5.5h1c.2 2.2 2.2 4 4.5 4 2.4 0 4.4-1.9 4.5-4.3.3-.4.9-.7 1.5-.7s1.2.3 1.5.7c.1 2.4 2.1 4.3 4.5 4.3 2.3 0 4.2-1.8 4.5-4h1c.3 0 .5-.2.5-.5s-.2-.5-.5-.5zM6 16c-1.9 0-3.5-1.6-3.5-3.5S4.1 9 6 9s3.5 1.6 3.5 3.5S7.9 16 6 16zm12 0c-1.9 0-3.5-1.6-3.5-3.5S16.1 9 18 9s3.5 1.6 3.5 3.5S19.9 16 18 16z"/></symbol><symbol viewBox="0 0 24 24" id="icon-globe" xmlns="http://www.w3.org/2000/svg"><title>icon_blk/globe</title><path d="M12 2C6.5 2 2 6.5 2 12s4.5 10 10 10c.8 0 1.5-.1 2.2-.3.5 0 .9-.2 1.3-.4 3.8-1.4 6.5-5.1 6.5-9.3 0-5.5-4.5-10-10-10zm2.3 16.8c-.1.5-.3 1-.5 1.5-.1.2-.2.4-.2.6-.6 0-1.1.1-1.6.1-5 0-9-4-9-9 0-2.1.8-4.1 2-5.6 1.7-.1 2.8 0 3.2 1.6.1.4.1.9.2 1.3.1.8.2 1.7.7 2.6.5.8 1.3 1.9 2.2 2.4.3.2.7.3 1 .4.4.1.7.2 1 .4l.1.1c0 .1-.1.3-.1.5 0 .5.1 1.6.4 2.2.2.4.4.6.5.7.1-.1.1 0 .1.2zm2.6-.3c-.5.8-1.1 1.5-1.9 1.9-.1 0-.3.1-.4.1.2-.5.5-1 .6-1.6.1-.7.1-.9-.3-1.3-.1-.1-.2-.2-.3-.4-.2-.3-.3-1.2-.3-1.7v-.2c.3-.5-.1-.8-.5-1.1-.4-.3-.8-.4-1.3-.6-.3-.1-.6-.2-.8-.3-.6-.4-1.4-1.2-1.9-2-.3-.7-.4-1.3-.4-2.1 0-.5-.1-1-.2-1.5-.5-1.9-1.7-2.3-3-2.4.1-.1.3-.3.5-.4l.1-.1c.6-.5.9-.8 1.3-.7.2 0 .4.2.6.3.5.2.9.5 1.3.4.2 0 .5-.1.8-.2.2-.1.4-.1.6-.1.3 0 .4 0 .6.2.2.1.5.3 1 .4h1.1c-.4.3-.7.7-.8 1.2-.1.8.5 1.2.8 1.4.1.1.2.1.3.2l.2.2c.1.1.3.4.6.3.4 0 .6-.4.7-.8.1-.1.2-.1.2-.6h.2c.1 0 .1.3.2.4.2.4.3.6.4.7.1.2.3.3.3.3v.1c0 .5-.1.8-.6 1-.5.3-.8.6-1 .9-.3.3-.5.5-.8.6h-.9c-.9-.1-2-.1-2.3.6-.4 1 .8 1.8 1.4 2.1.1 0 .1.1.2.1l.2.1c.4.2.9.6 1.4.6.4 0 .6-.2.7-.3 1.1-.2 2 .4 2.1 1.4 0 .2.2.3.3.4.2.1.2.1.2.2.1.3-.2 1-1 2.1l-.2.2zm1.2.1c.7-1 1.3-2 1-2.8-.1-.2-.2-.5-.6-.7-.4-1.4-1.7-2.2-3.3-1.9-.3 0-.5.2-.6.3-.2 0-.6-.3-.8-.4V13c-.1 0-.1-.1-.2-.1-.9-.5-1-.8-1-.8.2-.1.9-.1 1.3 0 .5 0 1 .1 1.3 0 .6-.2.9-.6 1.2-.9.2-.3.4-.5.8-.7.8-.4 1.1-1 1.1-1.9 0-.5-.2-.7-.4-.9l-.2-.2c0-.1-.2-.4-.3-.6-.4-.7-.5-.9-.8-.9h-.8c-.2 0-.4.2-.5.5 0 .2-.1.6-.2.8 0 0-.1 0-.1-.1-.1-.1-.2-.2-.3-.2-.4-.2-.4-.3-.3-.4 0-.3.5-.7.9-.9l.3-.3c0-.1 0-.3-.1-.4-.5-.7-1.2-.7-1.8-.7h-.5c-.2 0-.4-.1-.6-.2-.3-.2-.6-.4-1.2-.3-.2 0-.5.1-.7.2-.2.1-.5.1-.6.1-.1 0-.5-.2-.7-.3h-.1C10 3.2 11 3 12 3c5 0 9 4 9 9 0 2.6-1.1 5-2.9 6.6z"/></symbol><symbol viewBox="0 0 24 24" id="icon-graph" xmlns="http://www.w3.org/2000/svg"><title>icon_blk/graph</title><path d="M5 21h4V7H5v14zM6 8h2v12H6V8zM10 21h4V4h-4v17zm1-16h2v15h-2V5z"/><path d="M22 0H2C.9 0 0 .9 0 2v20c0 1.1.9 2 2 2h20c1.1 0 2-.9 2-2V2c0-1.1-.9-2-2-2zm1 22c0 .6-.4 1-1 1H2c-.6 0-1-.4-1-1V2c0-.6.4-1 1-1h20c.6 0 1 .4 1 1v20z"/><path d="M15 21h4V11h-4v10zm1-9h2v8h-2v-8z"/></symbol><symbol viewBox="0 0 24 24" id="icon-hamburger" xmlns="http://www.w3.org/2000/svg"><title>icon_blk/hamburger</title><path d="M19.5 17h-14c-.3 0-.5.2-.5.5s.2.5.5.5h14c.3 0 .5-.2.5-.5s-.2-.5-.5-.5zM5.5 8h14c.3 0 .5-.2.5-.5s-.2-.5-.5-.5h-14c-.3 0-.5.2-.5.5s.2.5.5.5zM19.5 12h-14c-.3 0-.5.2-.5.5s.2.5.5.5h14c.3 0 .5-.2.5-.5s-.2-.5-.5-.5z"/></symbol><symbol viewBox="0 0 24 24" id="icon-health-spending" xmlns="http://www.w3.org/2000/svg"><title>icon_blk/healthspending</title><path d="M20.6 14H19v-1.6c0-.2-.2-.4-.5-.4s-.5.2-.5.4V14h-1.6c-.2 0-.4.2-.4.5s.2.5.4.5H18v1.6c0 .2.2.4.5.4s.5-.2.5-.4V15h1.6c.2 0 .4-.2.4-.5s-.2-.5-.4-.5z"/><path d="M22.7 11c0 .1 0 .3-.1.4-.1.3-.4.4-.6.3h-.1c.6.8 1 1.8 1 2.9 0 2.5-2 4.5-4.5 4.5S14 17 14 14.5c0-2.5 2-4.5 4.5-4.5 1.2 0 2.3.5 3.2 1.3v-.2c.1-.3.1-.6.2-.9-1-.8-2.1-1.2-3.4-1.2-3 0-5.5 2.5-5.5 5.5 0 1.9 1 3.7 2.5 4.6.1-.1.2-.2.3-.2.2-.2.5-.1.7.1.2.2.1.5 0 .7.6.2 1.3.4 2 .4 3 0 5.5-2.5 5.5-5.5 0-1.4-.5-2.7-1.3-3.6z"/><path d="M13.7 20.5c-.9.6-1.7 1.1-2.2 1.4-.1 0-.1-.1-.2-.2C8.8 20.1 1 15 1 8.7 1 5.6 3.2 3.4 5.4 3c2.4-.3 4.5 1.5 5.6 4.9.1.2.3.3.5.3s.4-.1.5-.3c1.1-3.4 3.3-5.3 5.7-4.9 2.1.4 4.3 2.6 4.3 5.7 0 .5-.1.9-.1 1.4.3.2.6.5.8.8.2-.7.3-1.5.3-2.2 0-3.3-2.3-6.2-5.2-6.7-2.6-.4-4.9 1.2-6.3 4.3C10.1 3.2 7.8 1.6 5.2 2 2.3 2.5 0 5.5 0 8.7c0 6.8 8.1 12.1 10.8 13.8.2.1.4.2.5.3.1.1.2.1.3.1.1 0 .2 0 .3-.1.5-.3 1.4-.8 2.5-1.6.8-.5 1.5-1.1 2.2-1.7-.3-.1-.7-.3-1-.5-.6.6-1.3 1.1-1.9 1.5z"/><path d="M21.7 11.3c0 .2.1.3.3.3l-.3-.3z"/></symbol><symbol viewBox="0 0 24 24" id="icon-heart" xmlns="http://www.w3.org/2000/svg"><title>icon_blk/heart</title><path d="M18.8 2.1c-2.6-.4-4.9 1.2-6.3 4.3-1.4-3.1-3.7-4.7-6.3-4.3C3.3 2.5 1 5.5 1 8.7c0 6.8 8.1 12.1 10.8 13.8.2.1.4.2.5.3.1.1.2.1.3.1.1 0 .2 0 .3-.1C14.7 21.9 24 16.1 24 8.7c0-3.2-2.3-6.2-5.2-6.6zm-6.2 19.8c-.1 0-.1-.1-.2-.2C9.8 20.1 2 15 2 8.7 2 5.6 4.2 3.4 6.4 3H7c2.1 0 4 1.8 5 4.9.1.2.3.3.5.3s.4-.1.5-.3c1.1-3.4 3.3-5.3 5.7-4.9 2.1.4 4.3 2.6 4.3 5.7 0 6.6-8.2 11.9-10.4 13.2z"/></symbol><symbol viewBox="-287 389 24 24" id="icon-heart-check" xmlns="http://www.w3.org/2000/svg"><title>icon_blk/heart</title><path d="M-278.7 401.4c-.2-.2-.5-.3-.7-.1-.2.2-.3.5-.1.7l3.6 4.6 12.7-10.7c.2-.2.2-.4.1-.6-.6-3-3.2-5.2-6.1-5.2-2.7 0-4.8 2.2-5.8 4.8-.9-2.6-3.1-4.8-5.8-4.8-3.5 0-6.3 3-6.3 6.7 0 3.8 2 7.6 5.9 11.1 2.9 2.6 5.7 4.1 5.9 4.1l.2.1.2-.1c.4-.2 9.2-5 11.3-12.2.1-.3-.1-.5-.3-.6-.3-.1-.5.1-.6.3-1.8 6.2-9.2 10.7-10.6 11.5-1.6-.9-11-6.4-11-14.2 0-3.1 2.4-5.7 5.3-5.7 3 0 5.3 3.5 5.3 6.5 0 .3.2.5.5.5s.5-.2.5-.5c0-3 2.3-6.5 5.3-6.5 2.4 0 4.5 1.8 5.1 4.3l-11.6 9.8-3-3.8z"/></symbol><symbol viewBox="0 0 24 24" id="icon-heartrate" xmlns="http://www.w3.org/2000/svg"><title>icon_blk/heartrate</title><path d="M16.2 18.1L12 21.8l-4.2-3.7c-.2-.2-.5-.2-.7 0-.2.2-.2.5 0 .7l4.5 4c.2.2.5.2.7 0l4.5-4c.2-.2.2-.5 0-.7-.1-.1-.4-.1-.6 0z"/><path d="M21.5 14h-3.7l-1.4-1.8c-.2-.3-.6-.3-.8 0l-2.5 4.2L10 9.3c-.2-.4-.8-.4-1 0L7.2 14H2.5c-.3 0-.5.2-.5.5s.2.5.5.5h5c.2 0 .4-.1.5-.3l1.6-3.9 3 6.9c.2.4.7.4.9.1l2.6-4.4 1.1 1.4c.1.1.2.2.4.2h4c.3 0 .5-.2.5-.5-.1-.3-.3-.5-.6-.5z"/><path d="M18.5 1.1C15.7.6 13.2 2 12 4.9 10.8 2 8.3.6 5.5 1.1 2.4 1.6 0 4.2 0 7.5c0 2.1.2 2.8 1.1 4.3.1.2.5.3.7.2.2-.1.3-.5.2-.7-.9-1.4-1-1.9-1-3.8 0-2.8 2-5 4.6-5.4 2.7-.4 5.1 1.2 5.9 4.6v.2l.1.1.1.1h.6l.1-.1.1-.1v-.1-.1c.8-3.4 3.2-5 5.9-4.6C21 2.5 23 4.7 23 7.5c0 1.9-.1 2.4-.9 3.7-.1.2-.1.5.2.7.2.1.5.1.7-.2.9-1.5 1.1-2.2 1.1-4.3-.1-3.2-2.5-5.8-5.6-6.3z"/></symbol><symbol viewBox="0 0 24 24" id="icon-home" xmlns="http://www.w3.org/2000/svg"><title>icon_blk/home</title><path d="M23.9 13.2l-11-11.1c-.2-.2-.5-.2-.7 0l-11 11.1c-.2.2-.2.5 0 .7.2.2.5.2.7 0L4 11.7V22c0 .6.4 1 1 1h15c.6 0 1-.4 1-1V11.7l2.1 2.2c.1.1.2.1.4.1.1 0 .3 0 .4-.1.1-.2.1-.5 0-.7zM14 22h-3v-6h3v6zm1 0v-6c0-.5-.5-1-1-1h-3c-.5 0-1 .4-1 1v6H5V10.8l7.5-7.6 7.5 7.6V22h-5z"/></symbol><symbol viewBox="0 0 24 24" id="icon-id-card" xmlns="http://www.w3.org/2000/svg"><path d="M22 5H2C.9 5 0 5.9 0 6.9V18c0 1.1.9 2 2 2h20c1.1 0 2-.9 2-1.9V6.9c0-1-.9-1.9-2-1.9m0 1c.6 0 1 .4 1 1v11.1c0 .5-.4 1-1 1H2c-.6 0-1-.4-1-1V7c0-.5.4-1 1-1h20m-2.1 4h-6c-.3 0-.5-.2-.5-.5s.2-.5.5-.5h6c.3 0 .5.2.5.5s-.2.5-.5.5m0 3h-6c-.3 0-.5-.2-.5-.5s.2-.5.5-.5h6c.3 0 .5.2.5.5s-.2.5-.5.5m0 3h-6c-.3 0-.5-.2-.5-.5s.2-.5.5-.5h6c.3 0 .5.2.5.5s-.2.5-.5.5M7 8c-1.7 0-3 1.3-3 3s1.3 3 3 3 3-1.3 3-3-1.3-3-3-3m0 1c1.1 0 2 .9 2 2s-.9 2-2 2-2-.9-2-2 .9-2 2-2m-3.2 7.9c.1-.1.3-.2.7-.4.7-.3 1.5-.5 2.5-.5s1.8.2 2.5.5c.4.2.6.3.7.4.2.2.5.2.7 0 .2-.2.2-.5 0-.7-.2-.2-.5-.4-1-.6-.8-.4-1.7-.6-2.9-.6s-2.1.2-2.9.5c-.5.2-.8.4-1 .6-.2.2-.2.5 0 .7.2.2.5.2.7.1z"/></symbol><symbol viewBox="0 0 30 30" id="icon-instagram" xmlns="http://www.w3.org/2000/svg"><path d="M30 26.1c0 2.1-1.7 3.8-3.8 3.8H3.8C1.7 30 0 28.2 0 26.1V3.8C0 1.7 1.7 0 3.8 0h22.3C28.3 0 30 1.7 30 3.8v22.3zm-3.4-13.4H24c.3.8.4 1.7.4 2.6 0 5-4.2 9-9.3 9-5.1 0-9.3-4-9.3-9 0-.9.1-1.8.4-2.6H3.3v12.7c0 .7.5 1.2 1.2 1.2h20.9c.7 0 1.2-.5 1.2-1.2V12.7zM15 9.1c-3.3 0-6 2.6-6 5.8 0 3.2 2.7 5.8 6 5.8s6-2.6 6-5.8c.1-3.2-2.6-5.8-6-5.8zm11.6-4.5c0-.7-.6-1.3-1.3-1.3h-3.4c-.7 0-1.3.6-1.3 1.3v3.2c0 .7.6 1.3 1.3 1.3h3.4c.7 0 1.3-.6 1.3-1.3V4.6z"/></symbol><symbol viewBox="0 0 24 24" id="icon-key" xmlns="http://www.w3.org/2000/svg"><title>icon_blk/key</title><path d="M24 12.5c0-1-.2-1.7-.7-2.1-.3-.3-.6-.4-.9-.4H11.6c-.8-2.4-3-4-5.6-4-3.3 0-6 2.7-6 6s2.7 6 6 6c2.2 0 4.1-1.2 5.2-3H15l.9.9.1.1H18.5l.1-.1.9-.9h2.9c.3 0 .6-.1.9-.4.5-.4.7-1.1.7-2.1zm-1.4 1.4c0 .1-.1.1-.1.1H19.1l-.1.1-.9.9h-1.7l-.9-.9-.2-.1h-4.7l-.1.3C9.6 15.9 7.9 17 6 17c-2.8 0-5-2.2-5-5s2.2-5 5-5c2.3 0 4.2 1.5 4.8 3.6l.1.4h11.6s.1 0 .2.1c.2.2.4.6.4 1.4s-.2 1.2-.5 1.4z"/><circle cx="3.5" cy="12.5" r="1"/></symbol><symbol viewBox="0 0 24 24" id="icon-logout" xmlns="http://www.w3.org/2000/svg"><title>icon_blk/logout</title><path d="M14.5 17c-.3 0-.5.2-.5.5v4c0 .3-.2.5-.5.5h-11c-.3 0-.5-.2-.5-.5v-19c0-.3.2-.5.5-.5h11c.3 0 .5.2.5.5v4c0 .3.2.5.5.5s.5-.2.5-.5v-4c0-.8-.7-1.5-1.5-1.5h-11C1.7 1 1 1.7 1 2.5v19c0 .8.7 1.5 1.5 1.5h11c.8 0 1.5-.7 1.5-1.5v-4c0-.3-.2-.5-.5-.5z"/><path d="M22.7 11.1l-4.8-4.9c-.2-.2-.5-.2-.7 0-.2.2-.2.5 0 .7l4.1 4.2H8.5c-.3-.1-.5.1-.5.4 0 .3.2.5.5.5h12.6l-4 4.2c-.2.2-.2.5 0 .7s.5.2.7 0l4.8-5.1.3-.4-.2-.3z"/></symbol><symbol viewBox="0 0 24 24" id="icon-mail" xmlns="http://www.w3.org/2000/svg"><title>icon_blk/mail</title><path d="M24 4c0-.6-.5-1-1-1H1c-.5 0-1 .5-1 1.1v16c0 .5.5.9 1 .9h22c.5 0 1-.4 1-.9V4zm-1.3 0L12 13.3 1.3 4h21.4zm.3 16H1V5l10.7 9.3c.1.1.2.1.3.1.1 0 .2 0 .3-.1L23 5.1V20z"/></symbol><symbol viewBox="0 0 24 24" id="icon-medical" xmlns="http://www.w3.org/2000/svg"><title>icon_blk/medical</title><path d="M17 12h-2v-2c0-.6-.4-1-1-1h-3c-.6 0-1 .4-1 1v2H8c-.6 0-1 .4-1 1v3c0 .6.5 1 1 1h2v2c0 .6.5 1 1 1h3c.6 0 1-.5 1-1v-2h2c.6 0 1-.5 1-1v-3c0-.6-.4-1-1-1zm-2 4h-1v3h-3v-3H8v-3h3v-3h3v3h3v3h-2z"/><path d="M22 6h-5V4.4C17 3.1 15.9 2 14.5 2h-4C9.1 2 8 3.1 8 4.4V6H3c-1.1 0-2 .9-2 2v13c0 1.1.9 2 2 2h19c1.1 0 2-.9 2-2V8c0-1.1-.9-2-2-2zM9 4.4c0-.8.7-1.4 1.5-1.4h4c.8 0 1.5.6 1.5 1.4V6H9V4.4zM23 21c0 .6-.4 1-1 1H3c-.6 0-1-.4-1-1V8c0-.6.4-1 1-1h19c.6 0 1 .4 1 1v13z"/></symbol><symbol viewBox="0 0 24 24" id="icon-mic" xmlns="http://www.w3.org/2000/svg"><title>icon_blk/mic</title><path d="M12.5 16c2.5 0 4.5-2 4.5-4.5v-7C17 2 15 0 12.5 0S8 2 8 4.5v7C8 14 10 16 12.5 16zM9 4.5C9 2.6 10.6 1 12.5 1S16 2.6 16 4.5v7c0 1.9-1.6 3.5-3.5 3.5S9 13.4 9 11.5v-7z"/><path d="M20 12c0-.3-.2-.5-.5-.5s-.5.2-.5.5c0 3.1-2.8 5.5-6.5 5.5S6 15.1 6 12c0-.3-.2-.5-.5-.5s-.5.2-.5.5c0 3.6 3 6.3 7 6.5V23H9.5c-.3 0-.5.2-.5.5s.2.5.5.5h6c.3 0 .5-.2.5-.5s-.2-.5-.5-.5H13v-4.5c4-.2 7-2.9 7-6.5z"/></symbol><symbol viewBox="0 0 24 24" id="icon-minus" xmlns="http://www.w3.org/2000/svg"><title>icon_blk/minus</title><path d="M19.5 12h-14c-.3 0-.5.2-.5.5s.2.5.5.5h14c.3 0 .5-.2.5-.5s-.2-.5-.5-.5z"/></symbol><symbol viewBox="0 0 24 24" id="icon-more" xmlns="http://www.w3.org/2000/svg"><title>icon_blk/more</title><path d="M12 14c-1.1 0-2-.9-2-2s.9-2 2-2 2 .9 2 2-.9 2-2 2m0-3c-.6 0-1 .4-1 1s.4 1 1 1 1-.4 1-1-.4-1-1-1m-7 3c-1.1 0-2-.9-2-2s.9-2 2-2 2 .9 2 2-.9 2-2 2m0-3c-.6 0-1 .4-1 1s.4 1 1 1 1-.4 1-1-.4-1-1-1m14 3c-1.1 0-2-.9-2-2s.9-2 2-2 2 .9 2 2-.9 2-2 2m0-3c-.6 0-1 .4-1 1s.4 1 1 1 1-.4 1-1-.4-1-1-1"/></symbol><symbol viewBox="0 0 24 24" id="icon-new-window" xmlns="http://www.w3.org/2000/svg"><path d="M18 7.7v3.8c0 .3.2.5.5.5s.5-.2.5-.5V6h-5.5c-.3 0-.5.2-.5.5s.2.5.5.5h3.8l-7.2 7.1c-.2.2-.2.5 0 .7.1.2.2.2.4.2.1 0 .3 0 .4-.1L18 7.7zM17 19H8c-1.3 0-2-1.3-2-2.5V8c0-1.3.7-2 2-2h1.5c.3 0 .5.2.5.5s-.2.5-.5.5H8c-.7 0-1 .3-1 1v8.5c0 .6.3 1.5 1 1.5h9c.8 0 1-1 1-1.5v-1c0-.3.2-.5.5-.5s.5.2.5.5v1c0 1.2-.7 2.5-2 2.5z"/></symbol><symbol viewBox="0 0 24 24" id="icon-none" xmlns="http://www.w3.org/2000/svg"><title>icon_blk/none</title><path d="M11.5 4C6.8 4 3 7.8 3 12.5S6.8 21 11.5 21s8.5-3.8 8.5-8.5S16.2 4 11.5 4zM4 12.5C4 8.4 7.4 5 11.5 5c2 0 3.8.8 5.2 2.1L6.1 17.7C4.8 16.3 4 14.5 4 12.5zm7.5 7.5c-1.8 0-3.4-.6-4.7-1.6L17.4 7.8c1 1.3 1.6 2.9 1.6 4.7 0 4.1-3.4 7.5-7.5 7.5z"/></symbol><symbol viewBox="0 0 24 24" id="icon-nonprofit" xmlns="http://www.w3.org/2000/svg"><title>icon_blk/nonprofit</title><path d="M11.5 13.8c.1.1.2.1.2.2h.3c.1 0 .2 0 .2-.1.6-.4 5.8-3.5 5.8-7.5 0-1.7-1.2-3.2-2.7-3.4-1.1-.2-2.4.4-3.3 2.1-.8-1.7-2.1-2.2-3.2-2.1C7.2 3.3 6 4.8 6 6.5c0 3.5 4.1 6.3 5.5 7.3zM9 4h.2c1.1 0 1.9 1 2.4 2.7 0 .2.2.3.4.3s.4-.1.4-.3C13 4.9 14 3.8 15.1 4c1 .2 1.9 1.1 1.9 2.5 0 3.1-4 5.8-5 6.5-3.3-2.3-5-4.5-5-6.5C7 5.2 8 4.2 9 4z"/><path d="M23.8 10.5c0-.3 0-.6-.1-.9-.1-.6-.1-1.3-.2-1.9 0-.4-.1-.6-.1-.8l-.1-.2c-.1-.1-.2-.2-.3-.4-.3-.3-.8-.5-1.2-.4-.4.1-.7.4-.9.8-.1.3-.1.5-.1.7l-.3 3.9c-.3 0-.6.1-.8.2-.2.1-1.6 1.8-2.5 2.5-.5.4-.9.6-1.4.8-.8.3-1.2.6-2.1 1.2-.7.6-1.2 1.4-1.7 2.6-.4-1.2-.9-2-1.7-2.6-.8-.7-1.3-.9-2.1-1.2-.6-.2-.9-.4-1.4-.8-.9-.7-2.4-2.4-2.5-2.5-.3-.2-.6-.2-.8-.2l-.3-3.8c0-.2 0-.4-.1-.7-.2-.4-.5-.7-1-.8-.5-.1-.9 0-1.2.4-.2.1-.3.3-.3.4l-.1.1c0 .2 0 .4-.1.8C.4 8.4.3 9 .3 9.6c0 .3-.1.6-.1.9C0 13-.1 14 .1 14.3L3 18.6c.2.2.5.4 1.4.7.1 0 .3.1.4.2.3.1.7.2 1.1.4.2.1.4.1.5.2.3.1.5-.1.6-.3.1-.3-.1-.5-.3-.6-.1 0-.3-.1-.5-.2-.4-.1-.7-.2-1.1-.4-.1 0-.3-.1-.4-.1-.4-.3-.9-.5-.8-.5L1 13.7c.1.1 0 0 0-.1v-.8c0-.6.1-1.4.2-2.3 0-.3 0-.6.1-.8.1-.6.1-1.3.2-1.9 0-.4.1-.7.1-.7.1-.1.2-.1.3-.1.1 0 .2.1.2.2.1.1.1.2.1.3l.3 4.3c-.3.3-.5.7-.5 1.3.1.3.4.9 1 1.9 0 .1 0 .1.1.2.2.4.5.7.7 1.1.1.2.3.4.3.5.2.2.5.3.7.1.2-.2.3-.5.1-.7-.1-.1-.2-.3-.3-.5-.2-.3-.4-.7-.6-1-.1-.1-.1-.1-.1-.2-.5-.8-.9-1.4-.9-1.5 0-.4.4-.7.8-.5 0 0 1.4 1.7 2.5 2.5.6.5 1 .7 1.6.9.7.3 1.1.5 1.8 1.1.8.6 1.3 1.8 1.8 3.6 0 .2.1.4.4.5h.4c.2-.1.4-.3.4-.5.5-1.8 1-3 1.8-3.6.8-.6 1.1-.8 1.8-1.1.6-.3 1-.5 1.6-.9 1.1-.8 2.5-2.5 2.5-2.5.4-.2.8.1.8.5 0 .1-.3.7-.8 1.5-.1.1-.1.1-.1.2-.2.4-.5.7-.7 1.1-.1.2-.3.4-.3.5-.2.2-.1.5.1.7.2.2.5.1.7-.1.1-.1.2-.3.3-.5.2-.4.5-.7.7-1.1-.1-.2-.1-.2-.1-.3.6-1 .9-1.6.9-1.9.1-.5-.2-1-.5-1.3l.3-4.2c0-.1 0-.2.1-.4.1-.1.2-.2.3-.2.1 0 .2 0 .4.1.1.1.1.4.1.7.1.6.1 1.2.2 1.9 0 .3.1.6.1.8.1.9.1 1.7.2 2.3v.9L20.2 18s-.4.2-.9.4c-.1 0-.3.1-.4.1-.3.1-.7.2-1 .4-.2.1-.4.1-.5.2-.3.1-.4.4-.3.6.1.3.4.4.6.3.1 0 .3-.1.5-.2.4-.1.7-.2 1.1-.4.1-.1.3-.1.4-.2.8-.3 1.2-.5 1.4-.7l2.9-4.3c.1-.2 0-1.2-.2-3.7z"/></symbol><symbol viewBox="0 0 24 24" id="icon-nursehelp" xmlns="http://www.w3.org/2000/svg"><title>icon_blk/nursehelp</title><path d="M14 3.5h-1v-1c0-.3-.2-.5-.5-.5s-.5.2-.5.5v1h-1c-.3 0-.5.2-.5.5s.2.5.5.5h1v1c0 .3.2.5.5.5s.5-.2.5-.5v-1h1c.3 0 .5-.2.5-.5s-.2-.5-.5-.5z"/><path d="M22.5 9.4C22 9.1 21.4 9 21 9v-.4l2-4.4c.1-.2 0-.4-.1-.6-.1-.1-.4-.3-.7-.6-.6-.4-1.2-.9-2-1.2C18 .7 15.4 0 12.5 0 9.6 0 7 .7 4.8 1.8c-.8.4-1.4.8-2 1.2-.3.3-.5.5-.7.6-.1.2-.2.4-.1.6l2 4.4V9c-.4 0-1 .1-1.5.4C1.6 10 1 11 1 12.5s.6 2.5 1.5 3.1c.2.1.3.2.5.2V19c0 2.1 1.5 3.5 3.4 3.5H8c0 .8.7 1.5 1.6 1.5h5.9c.9 0 1.6-.7 1.6-1.6v-1c1.1-.2 2.1-1.1 2.9-2.4.3-.5.6-1.1.8-1.6.1-.3.2-.6.3-.7V16c.4 0 .9-.1 1.5-.4.8-.6 1.4-1.6 1.4-3.1s-.6-2.5-1.5-3.1zM4 15h-.3c-.2 0-.5-.1-.7-.3-.6-.4-1-1.1-1-2.2 0-1.2.4-1.9 1-2.2.2-.2.4-.3.7-.3H4v5zm4 6.5H6.4c-1.3 0-2.4-1-2.4-2.5v-2.4c0 .2.1.4.2.7.2.6.4 1.1.7 1.6.8 1.5 1.8 2.4 3.1 2.6zm8 .9c0 .3-.3.6-.6.6H9.6c-.4 0-.6-.3-.6-.6V20.6c0-.3.2-.6.6-.6h5.9c.3 0 .6.3.6.6v1.8zm4-6c0 .1-.1.3-.2.6-.2.5-.5 1-.7 1.5-.6 1-1.3 1.7-2 1.9-.1-.8-.7-1.4-1.6-1.4H9.6c-.8 0-1.5.6-1.6 1.4-.9-.2-1.6-.9-2.2-1.9-.3-.5-.5-1-.6-1.5-.1-.2-.2-.4-.2-.6V16h.2c.1 0 .3-.1.5-.2.4-.2.9-.3 1.4-.5 1.4-.6 2.8-1.2 4.1-1.8 1.2-.6 2.2-1.1 3.1-1.6.6-.4 1.2-.7 1.6-1.1 0 0 0 .1.1.1.3.4.6.9 1 1.3 1 1 2 1.7 3.1 1.9v2.3zm0-3.5c-.8-.2-1.6-.7-2.3-1.5-.3-.4-.6-.8-.9-1.1-.2-.2-.3-.4-.3-.5-.2-.3-.5-.3-.8-.1-.5.4-1.1.8-1.9 1.3-.9.5-1.9 1-3.1 1.6-1.3.6-2.7 1.2-4.1 1.8-.5.2-.9.4-1.3.5-.1 0-.2.1-.3.1V8.9c.1 0 .2 0 .4-.1.6-.1 1.2-.2 1.9-.3 1.1-.2 2.3-.3 3.3-.4.7-.1 1.3-.1 1.9-.1.6 0 1.2 0 1.9.1 1 .1 2.2.2 3.3.4.7.1 1.3.2 1.9.3.1 0 .2 0 .4.1v4zm.2-5c-.1 0-.2 0-.4-.1-.6-.1-1.3-.2-1.9-.3-1.2-.2-2.3-.3-3.4-.4-.7-.1-1.4-.1-2-.1-.6 0-1.3 0-2 .1-1.1.1-2.2.2-3.4.4-.7.1-1.3.2-2 .4-.1 0-.2 0-.3.1L3.1 4.1c.1-.1.2-.1.3-.2.6-.4 1.2-.8 1.9-1.2C7.3 1.6 9.7 1 12.5 1s5.2.6 7.2 1.7c.7.4 1.3.8 1.8 1.2.2.1.3.1.4.2l-1.7 3.8zm1.8 6.8c-.2.1-.5.2-.7.3H21v-5h.3c.2 0 .5.1.7.3.6.4 1 1.1 1 2.2 0 1.2-.3 1.8-1 2.2z"/></symbol><symbol viewBox="0 0 24 24" id="icon-paperclip" xmlns="http://www.w3.org/2000/svg"><title>icon_blk/paperclip</title><path d="M20.6 12.6L12 21c-.8.7-1.9 1.1-3.1 1-1.2-.1-2.4-.6-3.3-1.5-1.9-1.8-2.1-4.7-.5-6.2L15.8 3.8c.5-.5 1.3-.8 2.1-.8s1.6.3 2.2.8c1.2 1.1 1.2 3.1 0 4.3l-9.7 9.4c-.4.5-1.3.5-1.8 0-.2-.2-.4-.5-.4-.9 0-.3.1-.7.4-.9l7.1-6.9c.2-.2.2-.5 0-.7-.2-.2-.5-.2-.7 0L7.9 15c-.4.4-.7 1-.7 1.6s.2 1.2.7 1.6c.9.9 2.4.9 3.3 0l9.7-9.4c1.5-1.5 1.5-4.1 0-5.7-.8-.7-1.9-1.1-3-1.1s-2.2.4-2.9 1.1L4.4 13.5c-2 1.9-1.8 5.4.5 7.6 1.1 1.1 2.5 1.7 4 1.8h.4c1.3 0 2.5-.5 3.4-1.3l8.6-8.4c.2-.2.2-.5 0-.7-.1-.1-.5-.1-.7.1z"/></symbol><symbol viewBox="0 0 48 48" id="icon-pcp" xmlns="http://www.w3.org/2000/svg"><path d="M22.6 27.6c6.5 0 11.8-5.3 11.8-11.8C34.4 9.3 29.1 4 22.6 4c-6.5 0-11.8 5.3-11.8 11.8 0 6.5 5.3 11.8 11.8 11.8zm0-21.6c5.4 0 9.8 4.4 9.8 9.8s-4.4 9.8-9.8 9.8-9.8-4.4-9.8-9.8S17.2 6 22.6 6zM40.8 32H38v-2.4c0-.9-.3-1.6-1.2-1.6H32c-.9 0-2 .7-2 1.6V32h-7.3c-6.5 0-12 2.2-16.8 6.7-.4.4-.4 1 0 1.4.2.2.5.3.7.3.2 0 .5-.1.7-.3C11.8 36 16.7 34 22.7 34H26v4.3c0 .9 1.1 1.7 2 1.7h2v2.4c0 .9 1.2 1.6 2.1 1.6h4.7c.9 0 1.2-.7 1.2-1.6V40h2.8c.9 0 1.2-.7 1.2-1.7v-4.7c0-.9-.3-1.6-1.2-1.6zm-.8 6h-4v4h-4v-4h-4v-4h4v-4h4v4h4v4z"/></symbol><symbol viewBox="0 0 24 24" id="icon-pencil" xmlns="http://www.w3.org/2000/svg"><title>icon_blk/pencil</title><path d="M22 3c-.7-.7-1.4-1.1-2.3-1-1.5.1-2.6 1.3-2.8 1.5L3.2 17 2 23l5.7-1.3L21.5 8.4c.1-.1 1.4-1.3 1.5-3 0-.9-.3-1.7-1-2.4zM7.3 20.8l-4 .9.7-4.2L16.5 5.4l3.2 3.4-12.4 12zM20.9 7.7l-.4.4-3.2-3.4.4-.4s1-1.2 2.1-1.2c.6 0 1.1.2 1.6.7.5.5.7 1 .7 1.6-.1 1.2-1.2 2.2-1.2 2.3z"/></symbol><symbol viewBox="0 0 24 24" id="icon-phone" xmlns="http://www.w3.org/2000/svg"><title>icon_blk/phone</title><path d="M19.1 23c-1.9 0-3.9-.5-5.9-1.6-1.9-1-3.8-2.4-5.5-4.1-1.7-1.7-3.1-3.6-4.1-5.5-1.1-2-1.6-4-1.6-5.9 0-.8.7-1.8 1.5-2.6C4.3 2.6 5.3 2 5.9 2c.3 0 .6.2 1.2.7.4.4 1 1 1.5 1.6.3.4.7.9 1 1.5.5.8.8 1.4.8 1.7 0 0-.1.2-.4.5-.3.2-.5.4-.9.6-.3.2-1.3.8-1.4.9l-.1.1v.1c-.8 1.9 5.3 8 7.4 7.8.3 0 .4-.2.8-.6.1-.2.6-.9.7-1 .2-.2.3-.4.4-.6.3-.4.6-.6.6-.6.3 0 .9.3 1.7.8.5.3 1.1.7 1.5 1 .7.5 1.2 1 1.6 1.5.5.5.7.9.7 1.2 0 .6-.6 1.6-1.3 2.4-.8.7-1.8 1.4-2.6 1.4-.3 0-.5.2-.5.5s.2.5.5.5c1.2 0 2.3-.8 3.3-1.9.9-1 1.6-2.2 1.6-3 0-.6-.3-1.2-1-1.9-.5-.5-1.1-1-1.8-1.6-.4-.3-1-.7-1.6-1.1-.9-.6-1.7-.9-2.2-.9-.5 0-.9.3-1.4 1-.1.2-.3.4-.5.6 0 .1-.5.8-.7 1-.1.1-.2.2-.2.3h.2c-1.5.1-6.9-5.2-6.4-6.4L8 9.9l.3.4s1-.6 1.4-.8c.3-.3.6-.5.9-.7.5-.4.8-.8.8-1.2 0-.6-.3-1.3-.9-2.2-.4-.6-.8-1.1-1.1-1.6C8.8 3 8.2 2.4 7.8 2 7 1.3 6.5 1 5.9 1c-.9 0-2.1.7-3.1 1.6-1 1-1.8 2.1-1.8 3.3 0 2 .6 4.2 1.7 6.4 1 2 2.5 4 4.2 5.8 1.8 1.8 3.7 3.2 5.8 4.2 2.2 1.1 4.4 1.7 6.4 1.7.3 0 .5-.2.5-.5s-.2-.5-.5-.5z"/></symbol><symbol viewBox="0 0 24 24" id="icon-pill" xmlns="http://www.w3.org/2000/svg"><title>icon_blk/pill</title><path d="M17 2c-1.4 0-2.7.6-3.6 1.5 0 0-8 8.1-9.4 9.5-1.4 1.4-2 2.3-2 4 0 2.8 2.2 5 5 5 1.1 0 2.2-.4 3-1l10.8-10.8c.8-.9 1.2-2 1.2-3.2 0-2.8-2.2-5-5-5zM9.3 20.2c-.6.5-1.4.8-2.3.8-2.2 0-4-1.8-4-4 0-1.3.3-1.9 1.7-3.3.6-.6 2.3-2.4 4.2-4.2l5.6 5.6-5.2 5.1zM20.1 9.5l-4.9 4.9-5.6-5.6c2.3-2.3 4.5-4.5 4.5-4.6.8-.8 1.8-1.2 2.9-1.2 2.2 0 4 1.8 4 4 0 .9-.3 1.8-.9 2.5z"/></symbol><symbol viewBox="0 0 48 48" id="icon-pill-bottle" xmlns="http://www.w3.org/2000/svg"><style>.st0{fill:none;stroke:#000;stroke-width:2;stroke-linecap:round;stroke-linejoin:round;stroke-miterlimit:10}</style><g id="czLayer_1"><path id="czXMLID_8399_" d="M38.1 2H10C8.9 2 8 3 8 4.1V12c0 1.1.9 2 2 2v29c0 1.7 1.3 3 3 3h22c.8 0 1.6-.3 2.1-.9.6-.6.9-1.3.9-2.1V14h.1c1.1 0 1.9-.9 1.9-2V4.1C40 3 39.2 2 38.1 2zM38 12h-4V4h4v8zm-10 0V4h4v8h-4zm-6 0V4h4v8h-4zm-6 0V4h4v8h-4zm-6-8h4v8h-4V4zm26 16H19c-.6 0-1 .4-1 1v16c0 .6.4 1 1 1h17v5c0 .3-.1.5-.3.7-.2.2-.4.3-.7.3H13c-.5 0-1-.5-1-1V14h24v6zm0 2v14H20V22h16z"/></g></symbol><symbol viewBox="0 0 24 24" id="icon-pin" xmlns="http://www.w3.org/2000/svg"><title>icon_blk/pin</title><path d="M12.5 0C7.3 0 3 4.5 3 10s9.5 14 9.5 14S22 15.5 22 10 17.7 0 12.5 0zm0 22.6C9.6 19.9 4 13.8 4 10c0-5 3.8-9 8.5-9S21 5 21 10c0 3.8-5.6 9.9-8.5 12.6z"/><path d="M12.5 6C10.6 6 9 7.6 9 9.5s1.6 3.5 3.5 3.5S16 11.4 16 9.5 14.4 6 12.5 6zm0 6c-1.4 0-2.5-1.1-2.5-2.5S11.1 7 12.5 7 15 8.1 15 9.5 13.9 12 12.5 12z"/></symbol><symbol viewBox="0 0 24 24" id="icon-pin-filled" xmlns="http://www.w3.org/2000/svg"><title>icon_blk/pinfilled</title><path d="M12.5 0C7.3 0 3 4.5 3 10s9.5 14 9.5 14S22 15.5 22 10 17.7 0 12.5 0zm0 13C10.6 13 9 11.4 9 9.5S10.6 6 12.5 6 16 7.6 16 9.5 14.4 13 12.5 13z"/></symbol><symbol viewBox="0 0 24 24" id="icon-play" xmlns="http://www.w3.org/2000/svg"><title>icon_blk/play</title><path d="M18.8 11.5L6.8 4c-.2 0-.4 0-.5.1-.2.1-.3.2-.3.4v15c0 .2.1.3.3.4 0 .1.1.1.2.1s.2 0 .3-.1l12-7.5c.1-.1.2-.3.2-.4 0-.2-.1-.4-.2-.5zM7 18.6V5.4L17.6 12 7 18.6z"/></symbol><symbol viewBox="0 0 24 24" id="icon-prescription" xmlns="http://www.w3.org/2000/svg"><title>icon_blk/prescription</title><path d="M16.2 18l3.7-4.2c.2-.2.2-.5 0-.7-.2-.2-.5-.2-.7 0l-3.7 4.1-4.9-5.2h1.9C15 12 17 9 17 6.5S15 1 12.5 1h-7c-.3 0-.5.2-.5.5v16c0 .2.2.5.5.5s.5-.3.5-.5V12h3.3l5.5 6.1-3.7 4.1c-.2.2-.2.5 0 .7.1.1.2.1.3.1.1 0 .3-.1.4-.2l3.6-4.1 3.6 4c.1.1.2.2.4.2.1 0 .2 0 .3-.1.2-.2.2-.5 0-.7L16.2 18zm-6.7-7H6V2h6.5C14.4 2 16 4.5 16 6.5S14.4 11 12.5 11h-3z"/></symbol><symbol viewBox="0 0 24 24" id="icon-preventative" xmlns="http://www.w3.org/2000/svg"><title>icon_blk/shield</title><path d="M17 10h-2V8c0-.6-.4-1-1-1h-3c-.6 0-1 .4-1 1v2H8c-.6 0-1 .4-1 1v3c0 .6.5 1 1 1h2v2c0 .6.5 1 1 1h3c.6 0 1-.5 1-1v-2h2c.6 0 1-.5 1-1v-3c0-.6-.4-1-1-1zm-2 4h-1v3h-3v-3H8v-3h3V8h3v3h3v3h-2z"/><path d="M21.5 4.7c-1.8 0-5.1-.7-9-4.7-4 4-7.3 4.7-9 4.7-1 0-1.5-.2-1.5-.2C2 21.5 12.5 24 12.5 24S23 21.5 23 4.5c0 0-.5.2-1.5.2zm-4.4 15.1c-2 2.1-4 2.9-4.6 3.1-1.4-.5-9.1-3.7-9.5-17.2h.5c2 0 5.2-.8 9-4.3 3.7 3.5 7 4.3 9 4.3h.5c-.2 6-1.8 10.9-4.9 14.1z"/></symbol><symbol viewBox="0 0 24 24" id="icon-print" xmlns="http://www.w3.org/2000/svg"><title>icon_blk/print</title><path d="M8.5 19h7c.3 0 .5-.2.5-.5s-.2-.5-.5-.5h-7c-.3 0-.5.2-.5.5s.2.5.5.5zM8.5 17h7c.3 0 .5-.2.5-.5s-.2-.5-.5-.5h-7c-.3 0-.5.2-.5.5s.2.5.5.5z"/><path d="M21.5 7H20V1.5c0-.8-.7-1.5-1.5-1.5h-13C4.7 0 4 .7 4 1.5V7H2.5C1.7 7 1 7.7 1 8.6v10c0 .8.7 1.4 1.5 1.4H5v2.5c0 .8.7 1.5 1.5 1.5h11c.8 0 1.5-.7 1.5-1.5V20h2.5c.8 0 1.5-.6 1.5-1.4v-10c0-.9-.7-1.6-1.5-1.6zM5 1.5c0-.3.2-.5.5-.5h13c.3 0 .5.2.5.5V7H5V1.5zm13 21c0 .3-.2.5-.5.5h-11c-.3 0-.5-.2-.5-.5V14h12v8.5zm4-3.9c0 .3-.3.4-.5.4H19v-5h.5c.3 0 .5-.2.5-.5s-.2-.5-.5-.5h-15c-.3 0-.5.2-.5.5s.2.5.5.5H5v5H2.5c-.2 0-.5-.2-.5-.4v-10c0-.3.2-.6.5-.6h19c.3 0 .5.3.5.6v10z"/><circle cx="18.5" cy="10.5" r="1"/><path d="M8.5 21h7c.3 0 .5-.2.5-.5s-.2-.5-.5-.5h-7c-.3 0-.5.2-.5.5s.2.5.5.5z"/></symbol><symbol viewBox="0 0 24 24" id="icon-question" xmlns="http://www.w3.org/2000/svg"><title>icon_blk/question</title><circle cx="12.5" cy="21.5" r="1"/><path d="M12.5 1C8.5 1 5 4.3 5 8c0 .3.2.5.5.5S6 8.3 6 8c0-3.2 3-6 6.5-6C15.6 2 19 3.6 19 7c0 2.5-1.9 3.6-3.8 4.7-1.6 1-3.2 1.9-3.2 3.7v2.3c0 .3.2.5.5.5s.5-.2.5-.5v-2.3c0-1.2 1.3-2 2.7-2.8C17.6 11.4 20 10 20 7c0-3.9-3.8-6-7.5-6z"/></symbol><symbol viewBox="0 0 24 24" id="icon-refresh" xmlns="http://www.w3.org/2000/svg"><title>icon_blk/refresh</title><path d="M5 16c0-.3-.2-.5-.5-.5s-.5.2-.5.5v2c-1.3-1.7-2-3.8-2-6C2 6.5 6.5 2 12 2c1 0 1.9.1 2.9.4.3.1.5-.1.6-.3.1-.3-.1-.5-.3-.6-1.1-.3-2.1-.5-3.2-.5C5.9 1 1 5.9 1 12c0 2.6.9 5 2.5 7H1c-.3 0-.5.2-.5.5s.2.5.5.5h4v-4zM23.5 4.5c0-.3-.2-.5-.5-.5h-4v4c0 .3.2.5.5.5s.5-.2.5-.5V6c1.3 1.7 2 3.8 2 6 0 5.5-4.5 10-10 10-1 0-2-.1-2.9-.4-.3-.1-.5.1-.6.3-.1.3.1.5.3.6 1 .3 2.1.5 3.2.5 6.1 0 11-4.9 11-11 0-2.6-.9-5.1-2.5-7H23c.3 0 .5-.2.5-.5z"/></symbol><symbol viewBox="0 0 24 24" id="icon-save" xmlns="http://www.w3.org/2000/svg"><title>icon_blk/save</title><path d="M15.5 3c-.3 0-.5.2-.5.5v2c0 .3.2.5.5.5s.5-.2.5-.5v-2c0-.3-.2-.5-.5-.5zM7.5 17h9c.3 0 .5-.2.5-.5s-.2-.5-.5-.5h-9c-.3 0-.5.2-.5.5s.2.5.5.5z"/><path d="M22.3 5.5l-3.7-3.9c-.4-.4-.9-.6-1.4-.6H3.1C1.9 1 1 1.9 1 3.1V21c0 1.1.9 2 2.1 2h17.8c1.1 0 2.1-.9 2.1-2.1V7c0-.6-.3-1.1-.7-1.5zM7 2h10v5H7V2zm11 20H6v-8h12v8zm4-1.1c0 .6-.5 1.1-1.1 1.1H19v-8c0-.5-.4-1-1-1H6c-.5 0-1 .4-1 1v8H3.1c-.6 0-1.1-.5-1.1-1.1V3.1C2 2.5 2.5 2 3.1 2H6v5c0 .5.4 1 1 1h10c.5 0 1-.4 1-1V2.4l3.6 3.8.1.1c.2.1.3.4.3.7v13.9z"/><path d="M7.5 20h9c.3 0 .5-.2.5-.5s-.2-.5-.5-.5h-9c-.3 0-.5.2-.5.5s.2.5.5.5z"/></symbol><symbol viewBox="0 0 24 24" id="icon-search" xmlns="http://www.w3.org/2000/svg"><title>icon_blk/search</title><path d="M21.8 21.2L16 15.3c1.2-1.4 2-3.3 2-5.3 0-4.4-3.6-8-8-8s-8 3.6-8 8 3.6 8 8 8c2 0 3.9-.8 5.3-2l5.9 5.9c.2.2.5.2.7 0 .1-.2.1-.5-.1-.7zM3 10c0-3.8 3.1-7 7-7s7 3.1 7 7-3.1 7-7 7-7-3.1-7-7z"/></symbol><symbol viewBox="0 0 24 24" id="icon-share" xmlns="http://www.w3.org/2000/svg"><title>icon_blk/share</title><path d="M8.5 7c.1 0 .3 0 .4-.1l3.2-3v9.7c0 .3.2.5.5.5s.5-.2.5-.5V3.8l3.1 3c.2.2.5.2.7 0s.2-.5 0-.7L12.5 2 8.1 6.2c-.1.1-.1.4 0 .6.1.1.3.2.4.2z"/><path d="M18.5 9h-2c-.3 0-.5.2-.5.5s.2.5.5.5h2c.3 0 .5.2.5.5v11c0 .3-.2.5-.5.5h-12c-.3 0-.5-.2-.5-.5v-11c0-.3.2-.5.5-.5h2c.3 0 .5-.2.5-.5S8.8 9 8.5 9h-2C5.7 9 5 9.7 5 10.5v11c0 .8.7 1.5 1.5 1.5h12c.8 0 1.5-.7 1.5-1.5v-11c0-.8-.7-1.5-1.5-1.5z"/></symbol><symbol viewBox="0 0 24 24" id="icon-share-download" xmlns="http://www.w3.org/2000/svg"><title>icon_blk/download</title><path d="M8.1 14.3c-.2.2-.2.5 0 .7l4.3 4.1 4.4-4.1c.2-.2.2-.5 0-.7-.2-.2-.5-.2-.7 0l-3.2 3V2.5c.1-.3-.1-.5-.4-.5-.3 0-.5.2-.5.5v14.7l-3.1-2.9c-.2-.2-.6-.2-.8 0z"/><path d="M18.5 9h-2c-.3 0-.5.2-.5.5s.2.5.5.5h2c.3 0 .5.2.5.5v11c0 .3-.2.5-.5.5h-12c-.3 0-.5-.2-.5-.5v-11c0-.3.2-.5.5-.5h2c.3 0 .5-.2.5-.5S8.8 9 8.5 9h-2C5.7 9 5 9.7 5 10.5v11c0 .8.7 1.5 1.5 1.5h12c.8 0 1.5-.7 1.5-1.5v-11c0-.8-.7-1.5-1.5-1.5z"/></symbol><symbol viewBox="0 0 24 24" id="icon-shoe" xmlns="http://www.w3.org/2000/svg"><title>icon_blk/shoe</title><path d="M20.6 13.7c-.1 0-.1 0-.1-.1-1.5-1-2.3-1.6-2.7-2-.3-.3-.4-.6-2.1-4-.2-.5-.4-.8-.6-1.2-1-2.3-1.7-3.4-2.6-3.4-.6 0-1.1.2-1.7.7l-.4.4c-.9.7-1.3.9-1.9.9-.4 0-.8-.1-1.4-.4-.3-.1-.6-.3-1.1-.5C4.1 3 4.1 3 3.5 3 2.1 3 0 7.9 0 10c0 1.8 3.1 4 6.8 5 .7.2 1.4.6 2.2 1.2.4.3 2.1 1.7 2 1.6 2.7 2.2 5 3.2 8.4 3.2.8 0 1.6-.2 2.2-.5.7-.4 1.3-.9 1.7-1.6.5-.8.6-1.7.6-2.4.1-.5 0-.6-3.3-2.8zM9.7 15.4c-1-.7-1.7-1.2-2.6-1.4-3.3-.9-6.1-2.8-6.1-4 0-.3.1-.8.2-1.4 1.5 1.9 4.2 4 6.1 4.4 1 .2 1.9.7 3 1.5.2.1.3.2.5.4-.1-.1.4.3.5.4.4.3.7.5.9.7.2.1 2 1.7 2.7 2.2 1.1.8 2.2 1.4 3.4 1.8-2.5-.2-4.4-1.1-6.6-2.9.1 0-1.6-1.4-2-1.7zm12.8 3.1c-.3.5-.6.8-1.1 1.1-2.2-.1-4-.9-5.8-2.2-.6-.5-2.5-2.1-2.8-2.3-.2-.1-.5-.3-.8-.6-.1-.1-.6-.5-.5-.4-.2-.2-.4-.3-.5-.4-1.2-.9-2.2-1.4-3.4-1.7-1.8-.4-4.7-2.7-5.9-4.6C2.2 5.7 3.1 4 3.5 4c.3 0 .5.1 2 .9.5.3.9.5 1.2.7.7.2 1.3.4 1.8.4.9 0 1.5-.3 2.5-1.1l.4-.4c.5-.3.8-.5 1.1-.5.2 0 .8.8 1.5 2.2l-2.8 1.9c-.2.2-.3.5-.1.7.2.2.5.3.7.1l2.7-1.8c.1.3.3.6.4.9 0 .1.1.2.1.2L12.2 10c-.2.2-.3.5-.1.7.2.2.5.3.7.1l2.7-1.7c1.2 2.7 1.3 2.7 1.7 3.2.4.4 1.2 1 2.8 2.1.1 0 .1 0 .1.1 1.4 1 1.7 1.1 2.1 1.5.3.2.5.4.7.5l.1.1c0 .6-.2 1.2-.5 1.9z"/></symbol><symbol viewBox="0 0 24 24" id="icon-speech-chat" xmlns="http://www.w3.org/2000/svg"><title>icon_blk/speechchat</title><path d="M6.5 8C5.7 8 5 8.7 5 9.5S5.7 11 6.5 11 8 10.3 8 9.5 7.3 8 6.5 8zm0 2c-.3 0-.5-.3-.5-.5 0-.3.2-.5.5-.5s.5.2.5.5c0 .2-.2.5-.5.5z"/><path d="M21.3 2H1.7C.8 2 0 2.8 0 3.8v11.4c0 1 .8 1.8 1.7 1.8h6.8l2.9 5 2.9-5h6.9c1 0 1.7-.8 1.7-1.8V3.8c.1-1-.7-1.8-1.6-1.8zm.7 13.2c0 .4-.3.8-.8.8h-7.4l-.3.5-2 3.6-2.1-3.6-.3-.5H1.8c-.5 0-.8-.3-.8-.8V3.8c0-.4.3-.8.7-.8h19.5c.5 0 .8.4.8.8v11.4z"/><path d="M11.5 8c-.8 0-1.5.7-1.5 1.5s.7 1.5 1.5 1.5 1.5-.7 1.5-1.5S12.3 8 11.5 8zm0 2c-.3 0-.5-.2-.5-.5s.2-.5.5-.5.5.2.5.5-.2.5-.5.5zM16.5 8c-.8 0-1.5.7-1.5 1.5s.7 1.5 1.5 1.5 1.5-.7 1.5-1.5S17.4 8 16.5 8zm0 2c-.3 0-.5-.2-.5-.5s.2-.5.5-.5.5.2.5.5-.2.5-.5.5z"/></symbol><symbol viewBox="0 0 24 24" id="icon-speech-feedback" xmlns="http://www.w3.org/2000/svg"><title>icon_blk/speechfeedback</title><path d="M11.5 12h-7c-.3 0-.5.2-.5.5s.2.5.5.5h7c.3 0 .5-.2.5-.5s-.2-.5-.5-.5zM19.5 9h-15c-.3 0-.5.2-.5.5s.2.5.5.5h14.9c.3 0 .5-.2.5-.5s-.1-.5-.4-.5z"/><path d="M22.3 2H1.9C.9 2 0 2.7 0 3.7v11.5c0 1 .8 1.8 1.8 1.8H4v5l6.6-5h11.6c1 0 1.8-.8 1.8-1.8V3.7c0-1-.7-1.7-1.7-1.7zm.7 13.2c0 .4-.3.8-.8.8H10.3l-.3.2L5 20v-4H1.8c-.4 0-.8-.4-.8-.8V3.7c0-.4.4-.7.9-.7h20.4c.4 0 .7.3.7.7v11.5z"/><path d="M19.5 6h-15c-.3 0-.5.2-.5.5s.2.5.5.5h14.9c.4 0 .6-.2.6-.5s-.2-.5-.5-.5z"/></symbol><symbol viewBox="0 0 24 24" id="icon-star" xmlns="http://www.w3.org/2000/svg"><title>icon_blk/star</title><path d="M20.5 9h-6l-2-5.7c-.2-.4-.8-.4-.9 0L9.6 9H3.5c-.4 0-.7.6-.3.9l4.4 4.2-2.5 6.2c-.2.4.3.9.7.6l6.3-3.9 6.2 3.9c.4.3.9-.2.7-.6l-2.4-6.2 4.3-4.2c.3-.3 0-.9-.4-.9zm-8.7 7l-5.2 3.2 2.1-5.1c.1-.2 0-.4-.1-.5L4.7 10h5.2c.2 0 .4-.1.5-.3L12.1 5l1.7 4.7c0 .2.2.3.4.3h5.1l-3.6 3.6c-.1.1-.2.3-.1.5l2 5.1-5.3-3.2c-.1-.1-.3-.1-.5 0z"/></symbol><symbol viewBox="0 0 24 24" id="icon-star-filled" xmlns="http://www.w3.org/2000/svg"><title>icon_blk/starfilled</title><path d="M20.5 9h-6l-2-5.7c-.2-.4-.8-.4-.9 0L9.6 9H3.5c-.4 0-.7.6-.3.9l4.4 4.2-2.5 6.2c-.2.4.3.9.7.6l6.3-3.9 6.2 3.9c.4.3.9-.2.7-.6l-2.4-6.2 4.3-4.2c.3-.3 0-.9-.4-.9z"/></symbol><symbol viewBox="0 0 24 24" id="icon-star-half" xmlns="http://www.w3.org/2000/svg"><title>icon_blk/starhalf</title><path d="M21 9.3c-.1-.1-.3-.3-.5-.3h-6l-2-5.7c0-.2-.2-.3-.4-.3s-.4.1-.5.3L9.6 9H3.5c-.2 0-.4.2-.5.4 0 .1 0 .4.2.5l4.4 4.3-2.5 6.2c-.1.2 0 .4.1.6h.3c.1 0 .2 0 .3-.1l6.3-3.9 6.2 3.9c.2.1.4.1.6 0 .2-.1.2-.4.1-.6l-2.4-6.2 4.3-4.3c.1-.1.1-.3.1-.5zm-5.3 4.4c-.1.1-.2.3-.1.5l2 5.1-5.2-3.3h-.3V5l1.7 4.7c0 .2.2.3.4.3h5.1l-3.6 3.7z"/></symbol><symbol viewBox="0 0 24 24" id="icon-support" xmlns="http://www.w3.org/2000/svg"><title>icon_blk/support</title><path d="M24 7.9c0-2.6-1.6-5.1-3.9-6.2-3.1-1.6-5.9-.3-7.6 1.4C11.2 1.8 9.5 1 7.8 1 4.1 1 1 4.2 1 8.1c0 2.4 1.5 4.4 2.9 5.9-.4.7-.3 1.7.3 2.3.4.4.8.6 1.3.6h.1c0 .5.1 1.1.5 1.5.4.4.8.6 1.3.6h.1c0 .5.1 1.1.5 1.5.6.2 1 .5 1.6.5h.1c0 .5.1 1.1.5 1.5.4.4.8.6 1.3.6s1-.2 1.3-.6l1-1.1c.3-.3.4-.6.5-1 .2.1.5.2.8.2.5 0 1-.2 1.4-.6.4-.4.6-1 .6-1.6h.1c.5 0 1-.2 1.4-.6.4-.4.6-.9.6-1.4v-.1h.1c.5 0 1-.2 1.4-.6.4-.4.6-.9.6-1.4 0-.2 0-.5-.1-.7C22.8 12 24 10.4 24 7.9zM6.2 15.6c-.2.2-.4.3-.6.3-.2 0-.5-.1-.6-.3-.3-.4-.3-.9 0-1.3l1-1.1c.2-.2.4-.3.6-.3.2 0 .5.1.6.3.2.2.3.4.3.7 0 .2-.1.5-.3.7l-1 1zm2 2c-.2.2-.4.3-.6.3-.2 0-.5-.1-.6-.3-.3-.4-.3-.9 0-1.3l1-1.1c.1-.1.4-.2.6-.2.2 0 .5.1.6.3.2.2.3.4.3.7 0 .2-.1.5-.3.7l-1 .9zm2 2.1c-.2.2-.4.3-.6.3-.2 0-.5-.1-.6-.3-.3-.4-.3-.9 0-1.3l1-1.1c.2-.2.4-.3.6-.3.2 0 .5.1.6.3.2.2.3.4.3.7 0 .2-.1.5-.3.7l-1 1zm3 1l-1 1.1c-.2.1-.4.2-.6.2-.2 0-.5-.1-.6-.3-.3-.4-.3-.9 0-1.3l1-1.1c.2-.2.4-.3.6-.3.2 0 .4.1.6.3v.1l.1.1c.1.1.2.3.2.5 0 .3-.1.5-.3.7zm6.9-5.7c-.4.4-1 .4-1.3 0l-2.3-2.4c-.2-.2-.5-.2-.7 0-.2.2-.2.5 0 .7l2.3 2.4c.2.2.3.4.3.7 0 .3-.1.5-.3.7-.4.4-1 .4-1.3 0l-2.5-2.5c-.2-.2-.5-.2-.7 0-.2.2-.2.5 0 .7l2.5 2.6c.4.4.4 1 0 1.4-.4.4-1.1.4-1.5 0l-.4-.4-.1-.1c-.4-.4-.9-.6-1.5-.6v-.1c0-.5-.2-1-.6-1.4-.5-.5-1-.7-1.5-.7v-.1c0-.5-.2-1-.6-1.4-.4-.4-.9-.6-1.4-.5v-.1c0-.5-.2-1-.6-1.4-.7-.8-1.9-.8-2.7 0l-.7.7C3.3 11.8 2 10 2 8.1c0-3.3 2.7-6 5.8-6 1.5 0 2.9.7 4 1.8L7.4 8.4c-.2.3-.3.6-.3.9.1.3.3.6.6.7.8.4 2.5.7 4.1-.9.6-.6 1.6-1.5 2.1-2l6.1 6.4s0 .1.1.1c.2.2.3.4.3.7s-.1.5-.3.7zm.6-2.3L14.3 6c-.1 0-.2-.1-.3-.1-.1 0-.2 0-.3.1-.1.1-1.7 1.5-2.6 2.4-1.1 1.2-2.3 1-3 .7l4.8-4.9c1.4-1.7 4-3 6.7-1.6 2 1 3.3 3.1 3.3 5.3.1 2.1-.9 3.4-2.2 4.8z"/></symbol><symbol viewBox="0 0 24 24" id="icon-syringe" xmlns="http://www.w3.org/2000/svg"><title>icon_blk/syringe</title><path d="M17.2 7.5l2.3-2.3 2.6 2.6c.2.2.5.2.7 0s.2-.5 0-.7l-6-5.9c-.2-.2-.5-.2-.7 0-.2.2-.2.5 0 .7l2.6 2.6-2.3 2.3-5.6-5.6c-.2-.2-.5-.2-.7 0-.2.2-.2.5 0 .7L12.3 4 1.5 14.3c-.6.6-.6 1.5 0 2.1l2.7 2.7-2.9 3c-.2.2-.2.5 0 .7.2.2.5.2.7 0l3-3 2.7 2.7c.6.6 1.5.6 2.1 0L20.7 12l1.6 1.6c.2.2.5.2.7 0s.2-.5 0-.7l-5.8-5.4zm.2 6.2s0-.1 0 0l-3.5-3.6c-.2-.2-.5-.2-.7 0-.2.2-.2.5 0 .7l3.5 3.5s.1 0 .1.1l-2.4 2.3-3.5-3.5c-.2-.2-.5-.2-.7 0-.2.2-.2.5 0 .7l3.5 3.5-2.3 2.3-3.5-3.4c-.2-.2-.5-.2-.7 0-.2.2-.2.5 0 .7l3.4 3.4L8.9 22c-.2.2-.5.2-.7 0l-6.1-6.1c-.2-.2-.2-.5 0-.7L13 4.7l6.8 6.7-2.4 2.3z"/></symbol><symbol viewBox="0 0 24 24" id="icon-tag" xmlns="http://www.w3.org/2000/svg"><title>icon_blk/tag</title><circle cx="18.5" cy="5.6" r="1"/><path d="M22 3.5c0-.8-.7-1.5-1.5-1.5h-7c-.7 0-1.6.4-2 .9l-9 9.1c-.6.6-.6 1.5-.1 2.1L9 21.5c.3.3.6.5 1 .5s.7-.1 1-.4l10.1-10.1c.5-.5.8-1.4.8-2.1l.1-5.9zm-1.5 7.4l-10.1 10c-.1.1-.2.1-.3.1-.1 0-.2-.1-.3-.2l-6.6-7.5c-.2-.2-.2-.6 0-.8l9-9.1c.3-.1.9-.4 1.3-.4h7c.3 0 .5.2.5.5v6c0 .4-.3 1.1-.5 1.4z"/></symbol><symbol viewBox="0 0 102 142" id="icon-teladoc-logo" xmlns="http://www.w3.org/2000/svg"><path d="M51 5.5c25.4 0 46 20.6 46 46s-20.6 46-46 46-46-20.6-46-46 20.6-46 46-46m0 74.8c15.9 0 28.9-12.9 28.9-28.9C79.9 35.5 67 22.5 51 22.5c-15.9 0-28.9 12.9-28.9 28.9 0 16 13 28.9 28.9 28.9M51 .5C22.8.5 0 23.3 0 51.5s22.8 51 51 51 51-22.8 51-51S79.2.5 51 .5zm0 74.8c-13.2 0-23.9-10.7-23.9-23.9S37.8 27.5 51 27.5s23.9 10.7 23.9 23.9C74.8 64.7 64.2 75.3 51 75.3zM97 119.5v8.5c0 4.6-4.1 8.5-9 8.5H5V128c0-4.6 4.1-8.5 9-8.5h83m5-5H14c-7.6 0-14 6-14 13.5v13.5h88c7.6 0 14-6 14-13.5v-13.5z"/></symbol><symbol viewBox="0 0 24 24" id="icon-tooth" xmlns="http://www.w3.org/2000/svg"><title>icon_blk/tooth</title><path d="M8.5 4C6 4 6 5.8 6 8.5c0 .3.2.5.5.5s.5-.2.5-.5C7 5.5 7.1 5 8.5 5c.3 0 .5-.2.5-.5S8.8 4 8.5 4z"/><path d="M17.5 1c-1.6 0-2.6.5-3.5.9-.7.3-1.2.6-2 .6s-1.4-.3-2-.6C9.1 1.5 8.1 1 6.5 1 3 1 3 6.5 3 8.5c0 1.7.7 3.2 1.2 4.6.4.9.8 1.8.8 2.4 0 .1.2 8.5 2.6 8.5 1.6 0 2.1-2 2.7-3.9.4-1.5.9-3.1 1.7-3.1.8 0 1.3 1.7 1.8 3.1.6 1.9 1.2 3.9 2.7 3.9 2.4 0 2.5-8.4 2.5-8.5 0-.6.4-1.5.8-2.4.6-1.4 1.2-2.9 1.2-4.6C21 6.4 21 1 17.5 1zm1.3 11.7c-.5 1.1-.8 2-.8 2.8 0 3-.8 7.5-1.5 7.5-.8 0-1.3-1.7-1.7-3.1C14.1 18 13.6 16 12 16c-1.5 0-2.1 2-2.7 3.8-.4 1.5-1 3.2-1.8 3.2-.7 0-1.5-4.5-1.5-7.5 0-.8-.4-1.7-.8-2.8C4.6 11.4 4 10 4 8.5 4 5.7 4.3 2 6.5 2c1.4 0 2.2.4 3 .8.7.3 1.5.7 2.5.7s1.8-.4 2.5-.7c.8-.4 1.6-.8 3-.8C19.7 2 20 5.7 20 8.5c0 1.5-.6 2.9-1.2 4.2z"/></symbol><symbol viewBox="0 0 24 24" id="icon-trash" xmlns="http://www.w3.org/2000/svg"><title>icon_blk/trash</title><path d="M12.5 22.1c.3 0 .5-.2.5-.5v-13c0-.3-.2-.5-.5-.5s-.5.2-.5.5v13c0 .3.2.5.5.5zM16.5 22.1c.3 0 .5-.2.5-.5v-13c0-.3-.2-.5-.5-.5s-.5.2-.5.5v13c0 .3.2.5.5.5zM8.5 22.1c.3 0 .5-.2.5-.5v-13c0-.3-.2-.5-.5-.5s-.5.2-.5.5v13c0 .3.2.5.5.5z"/><path d="M22.5 2H16V.5c0-.3-.2-.5-.5-.5h-6c-.3 0-.5.2-.5.5V2H2.5c-.3 0-.5.2-.5.5v4c0 .3.2.5.5.5H4v14.5C4 22.9 5.1 24 6.5 24h12c1.4 0 2.5-1.1 2.5-2.5V7h1.5c.3 0 .5-.2.5-.5v-4c0-.3-.2-.5-.5-.5zM10 1h5v1h-5V1zm10 20.5c0 .8-.7 1.5-1.5 1.5h-12c-.8 0-1.5-.7-1.5-1.5V7h15v14.5zM22 6H3V3h19v3z"/></symbol><symbol viewBox="0 0 24 24" id="icon-treadmill" xmlns="http://www.w3.org/2000/svg"><title>icon_blk/treadmill</title><path d="M23.9 6.3c-.2-.2-.5-.3-.7-.1l-5 4c-.2.2-.3.5-.1.7.2.2.5.3.7.1L21 9.2v7.9L.4 20c-.2 0-.4.2-.4.5v2c0 .3.2.5.5.5h21c.3 0 .5-.2.5-.5V8.6v-.1L23.8 7c.2-.2.3-.5.1-.7zM21 18.1V22H1v-1.1l20-2.8z"/><path d="M12 10.9l-.9 3.3-2.8 1.9c-.2.2-.3.5-.1.7.2.2.5.3.7.1l3-2c.1-.1.2-.2.2-.3l.8-2.7 2.2 2v2.6c0 .3.2.5.5.5s.5-.2.5-.5v-2.9c0-.1-.1-.3-.2-.4L13 10.8V6.5L15.2 8c.2.1.5.1.6-.1l2-2.1c.2-.2.2-.5 0-.7s-.5-.2-.7 0L15.4 7l-2.6-1.8h-.1-.1-.1-.1-.1L8.8 6.6c-.2.1-.3.2-.3.4L8 9.5c-.1.2.1.5.4.5.3.1.5-.1.6-.3l.4-2.2L12 6.3v4.6zM12.5 4c1.1 0 2-.9 2-2s-.9-2-2-2-2 .9-2 2 .9 2 2 2zm0-3c.6 0 1 .5 1 1s-.5 1-1 1-1-.5-1-1 .4-1 1-1z"/></symbol><symbol viewBox="0 0 24 24" id="icon-trophy" xmlns="http://www.w3.org/2000/svg"><title>icon_blk/trophy</title><path d="M16.2 12.5c3-.1 4.8-1.7 4.8-4.5 0-.6-.2-1.1-.6-1.5-.6-.5-1.4-.7-1.9-.8V4.5c0-.3-.2-.5-.5-.5H7c-.3 0-.5.2-.5.5v1.2c-.5.1-1.3.3-1.9.8-.4.4-.6.9-.6 1.5 0 2.8 1.8 4.4 4.8 4.5 1.7 1.7 2.2 2.2 2.2 2.5v1.2c-.9.6-3 2.1-3 3.3 0 .3.2.5.5.5h8.1c.3 0 .5-.2.5-.5 0-1.1-2-2.5-3-3.3V15c-.1-.3.3-.8 2.1-2.5zm3.5-5.3c.2.2.3.5.3.8 0 2.4-1.5 3.2-2.9 3.4.8-1.4 1.2-3.2 1.3-4.7.4.1 1 .2 1.3.5zM5 8c0-.3.1-.6.3-.8.3-.3.9-.4 1.3-.5.1 1.5.5 3.3 1.3 4.7C6.5 11.2 5 10.4 5 8zm8.2 8.9c1.1.7 2.1 1.5 2.5 2.1H9.2c.5-.6 1.5-1.5 2.5-2.1.1-.1.2-.3.2-.4V15c0-.7-.5-1.2-2.7-3.3C7.7 10.1 7.5 6.3 7.5 5h10.1c0 1.3-.2 5.1-1.9 6.7-2.3 2.1-2.7 2.6-2.7 3.3v1.5c0 .2.1.3.2.4z"/></symbol><symbol viewBox="0 0 30 30" id="icon-twitter" xmlns="http://www.w3.org/2000/svg"><path d="M30 24.4c0 3.1-2.5 5.6-5.6 5.6H5.6C2.5 30 0 27.5 0 24.4V5.6C0 2.5 2.5 0 5.6 0h18.8C27.5 0 30 2.5 30 5.6v18.8zm-7.4-14.3c.9-.5 1.5-1.3 1.8-2.3-.8.5-1.7.8-2.6 1-.7-.8-1.8-1.3-3-1.3-2.3 0-4.1 1.8-4.1 4.1 0 .3 0 .6.1.9-3.4-.2-6.4-1.8-8.5-4.3-.3.6-.5 1.4-.5 2.1 0 1.4.7 2.7 1.8 3.4-.7 0-1.3-.2-2-.5 0 2 1.5 3.7 3.4 4-.4.1-.6.2-1 .2-.3 0-.5 0-.8-.1.5 1.6 2 2.8 3.8 2.9C9.7 21.3 7.9 22 6 22c-.3 0-.7 0-1-.1 1.8 1.2 4 1.8 6.3 1.8C18.8 23.7 23 17.5 23 12v-.5c.8-.6 1.5-1.3 2.1-2.1-.8.3-1.6.6-2.5.7z"/></symbol><symbol viewBox="0 0 24 24" id="icon-urgent-care" xmlns="http://www.w3.org/2000/svg"><title>icon_blk/urgentcare</title><path d="M17 7h-2V5c0-.6-.4-1-1-1h-3c-.6 0-1 .4-1 1v2H8c-.5 0-1 .4-1 1v3c0 .6.5 1 1 1h2v2c0 .6.5 1 1 1h3c.6 0 1-.5 1-1v-2h2c.6 0 1-.5 1-1V8c0-.6-.4-1-1-1zm-2 4h-1v3h-3v-3H8V8h3V5h3v3h3v3h-2z"/><path d="M12.5 0C7.3 0 3 4.5 3 10s9.5 14 9.5 14S22 15.5 22 10 17.7 0 12.5 0zm0 22.6C9.6 19.9 4 13.8 4 10c0-5 3.8-9 8.5-9S21 5 21 10c0 3.8-5.6 9.9-8.5 12.6z"/></symbol><symbol viewBox="-11 13 24 24" id="icon-urgent-care-filled" xmlns="http://www.w3.org/2000/svg"><title>icon_blk/urgentcare</title><path d="M1.5 13C-3.7 13-8 17.5-8 23s9.5 14 9.5 14S11 28.5 11 23 6.7 13 1.5 13zM6 24H3v3H0v-3h-3v-3h3v-3h3v3h3v3z"/></symbol><symbol viewBox="0 0 24 24" id="icon-user" xmlns="http://www.w3.org/2000/svg"><title>icon_blk/user</title><path d="M22.9 22.2C20.4 19.5 16.5 18 12 18c-4.2 0-7.7 1.4-10.8 4.1-.2.2-.2.5 0 .7.2.2.5.2.7 0C4.8 20.2 8 19 12 19c4.2 0 7.8 1.4 10.1 3.8.1.1.2.2.4.2.1 0 .3 0 .3-.1.3-.2.3-.5.1-.7zM12 16c3.9 0 7-3.1 7-7s-3.1-7-7-7-7 3.1-7 7 3.1 7 7 7zm0-13c3.3 0 6 2.7 6 6s-2.7 6-6 6-6-2.7-6-6 2.7-6 6-6z"/></symbol><symbol viewBox="0 0 24 24" id="icon-users" xmlns="http://www.w3.org/2000/svg"><title>icon_blk/users</title><path d="M5.5 13C7.4 13 9 11.4 9 9.5S7.4 6 5.5 6 2 7.6 2 9.5 3.6 13 5.5 13zm0-6C6.9 7 8 8.1 8 9.5S6.9 12 5.5 12 3 10.9 3 9.5 4.1 7 5.5 7zM16 14c2.8 0 5-2.2 5-5s-2.2-5-5-5-5 2.2-5 5 2.2 5 5 5zm-.1-9.1C18.2 4.9 20 6.7 20 9s-1.8 4.1-4.1 4.1-4.1-1.8-4.1-4.1 1.9-4.1 4.1-4.1zM23.9 18.2c-1.8-2-4.5-3.2-7.9-3.2-1.9 0-3.6.4-5.1 1.2C9.7 14.8 7.8 14 5.5 14c-2.2 0-3.9.8-5.4 2.1-.2.2-.2.5 0 .7.2.2.5.2.7 0C2.1 15.6 3.6 15 5.5 15c1.9 0 3.4.6 4.5 1.7-.6.4-1.2.9-1.8 1.4-.2.2-.2.5 0 .7.2.2.5.2.7 0 2-1.8 4.2-2.8 7.2-2.8 3.1 0 5.5 1.1 7.1 2.9.2.2.5.2.7 0s.2-.5 0-.7z"/></symbol><symbol viewBox="0 0 24 24" id="icon-video" xmlns="http://www.w3.org/2000/svg"><title>icon_blk/video</title><path d="M15 6H3c-1.1 0-2 .9-2 2v9c0 1.1.9 2 2 2h12c1.1 0 2-.9 2-2V8c0-1.1-.9-2-2-2zm1 11c0 .6-.4 1-1 1H3c-.6 0-1-.4-1-1V8c0-.6.4-1 1-1h12c.6 0 1 .4 1 1v9zM23.7 7.1c-.2-.1-.3-.1-.5 0l-5 3c-.1.1-.2.3-.2.4V15c0 .2.1.4.3.4l5 2.5c.1 0 .1.1.2.1s.2 0 .3-.1c.1-.1.2-.3.2-.4v-10c0-.1-.1-.3-.3-.4zm-.7 9.6l-4-2v-3.9l4-2.4v8.3z"/></symbol><symbol viewBox="0 0 24 24" id="icon-view-list" xmlns="http://www.w3.org/2000/svg"><title>icon_blk/viewlist</title><path d="M2.5 12h-1c-.3 0-.5.2-.5.5s.2.5.5.5h1c.3 0 .5-.2.5-.5s-.2-.5-.5-.5zM2.5 19h-1c-.3 0-.5.2-.5.5s.2.5.5.5h1c.3 0 .5-.2.5-.5s-.2-.5-.5-.5zM23.5 12h-17c-.3 0-.5.2-.5.5s.2.5.5.5h17c.3 0 .5-.2.5-.5s-.2-.5-.5-.5zM6.5 6h17c.3 0 .5-.2.5-.5s-.2-.5-.5-.5h-17c-.3 0-.5.2-.5.5s.2.5.5.5zM2.5 5h-1c-.3 0-.5.2-.5.5s.2.5.5.5h1c.3 0 .5-.2.5-.5S2.8 5 2.5 5zM23.5 19h-17c-.3 0-.5.2-.5.5s.2.5.5.5h17c.3 0 .5-.2.5-.5s-.2-.5-.5-.5z"/></symbol><symbol viewBox="0 0 48 48" id="icon-view-map" xmlns="http://www.w3.org/2000/svg"><path d="M23.6 22c2.8 0 5-2.2 5-5s-2.2-5-5-5-5 2.2-5 5c0 2.9 2.2 5 5 5zm0-7.9c1.7 0 3 1.3 3 3s-1.3 3-3 3-3-1.3-3-3 1.3-3 3-3z"/><path d="M38.6 29.5h-6.9c2.9-4 5.5-8.1 5.5-11.5 0-7.9-6.1-14.4-13.6-14.4S10 10.1 10 18c0 3.4 2.6 7.5 5.5 11.5h-6l-9.3 15h47.5l-9.1-15zm-15-24.1c6.4 0 11.6 5.5 11.6 12.3 0 2.7-2.2 6.7-6.1 11.4-.2.2-.4.5-.6.7-1.9 2.2-3.7 4-4.9 5.1-1.3-1.2-3.3-3.3-5.3-5.6-4-4.8-6.3-8.9-6.3-11.6 0-6.8 5.2-12.3 11.6-12.3zm-13 26.1h6.8l-.3-.2c3.3 3.8 6.5 6.8 6.5 6.8s3.1-3.6 6.4-6.6h7.4l6.8 11H3.8l6.8-11z"/></symbol><symbol viewBox="0 0 24 24" id="icon-wellness" xmlns="http://www.w3.org/2000/svg"><title>icon_blk/wellness</title><path d="M23.9 16.2c-.1-.1-1.3-1.8-3.4-2.7 1-2.4.4-5 .4-5.2 0-.2-.2-.4-.4-.4-.1 0-2.6-.3-4.9 1-.8-2.4-2.8-3.8-2.9-3.9-.2-.1-.4-.1-.6 0 0 .2-2 1.6-2.8 4C7 7.7 4.6 8 4.4 8c-.2 0-.3.2-.4.4 0 .1-.6 2.8.4 5.2-2.1.9-3.3 2.6-3.3 2.7-.1.2-.1.4 0 .6.1 0 2.3 3.1 5.9 3.1 2.8 0 4.7-1.8 5.5-2.7.8.9 2.7 2.7 5.5 2.7 3.7 0 5.9-3.1 5.9-3.2.1-.2.1-.4 0-.6zM16 11c0-.3 0-.7-.1-1 1.6-1 3.4-1.1 4.2-1.1.1.8.3 2.6-.5 4.2-.5-.1-1-.2-1.6-.2-.9 0-1.8.2-2.5.5.3-.6.5-1.5.5-2.4zM4.9 9c.8 0 2.5 0 4.2 1-.1.3-.1.6-.1 1 0 .9.2 1.8.5 2.5-.7-.3-1.6-.5-2.5-.5-.6 0-1.1.1-1.6.2-.7-1.6-.6-3.5-.5-4.2zM7 19c-2.5 0-4.3-1.8-4.9-2.5.4-.5 1.4-1.5 2.8-2.1.2.3.4.6.7.9 1.5 1.5 3.5 1.8 5 1.8h.6C10.4 18 8.9 19 7 19zm-.7-4.4c-.2-.2-.3-.3-.4-.5.4-.1.7-.1 1.1-.1 1.4 0 2.6.6 3.5 1.2.3.4.6.7.8.9-1.3.1-3.5 0-5-1.5zm4.9-.1c-.6-.9-1.2-2.1-1.2-3.5v-.3l.1.1c1.4 1.4 1.8 3.1 1.9 4.3-.2-.1-.5-.4-.8-.6zm1.3-1.7c-.3-.9-.8-1.8-1.7-2.6-.2-.2-.4-.4-.7-.6.5-1.8 1.7-3 2.3-3.4.6.5 1.8 1.7 2.3 3.5-.2.2-.4.4-.7.6-.7.7-1.2 1.6-1.5 2.5zm2.4-1.9l.1-.1v.3c0 1.5-.6 2.6-1.2 3.5-.3.2-.5.4-.8.7.1-1.3.5-3.1 1.9-4.4zm-.4 4.3c.9-.6 2.1-1.2 3.5-1.2.4 0 .8 0 1.1.1-.1.2-.3.4-.4.5-1.5 1.5-3.7 1.6-5 1.5.2-.2.5-.5.8-.9zM18 19c-1.9 0-3.4-1-4.2-1.8h.6c1.5 0 3.5-.3 5-1.8.3-.3.5-.6.7-.9 1.4.6 2.4 1.6 2.8 2.1-.6.6-2.4 2.4-4.9 2.4z"/></symbol><symbol viewBox="0 0 24 24" id="icon-wellvolution" xmlns="http://www.w3.org/2000/svg"><title>icon_blk/wellvolution</title><path d="M18 15.2S15.6 18 11.9 18c-3.6 0-6-2.8-6-2.8-.2-.2-.5-.3-.8-.1-.2.2-.3.5-.1.7.2.1 2.8 3.2 7 3.2s6.8-3.1 6.9-3.2c.2-.2.1-.5-.1-.7-.2-.2-.6-.1-.8.1z"/><path d="M12 0C5.4 0 0 5.4 0 12s5.4 12 12 12 12-5.4 12-12S18.6 0 12 0zm0 23C5.9 23 1 18.1 1 12S5.9 1 12 1s11 4.9 11 11-4.9 11-11 11z"/></symbol><symbol viewBox="0 0 24 24" id="icon-wheelchair" xmlns="http://www.w3.org/2000/svg"><title>icon_blk/wheelchair</title><path d="M16.5 17c-1.4 0-2.5 1.1-2.5 2.5s1.1 2.5 2.5 2.5 2.5-1.1 2.5-2.5-1.1-2.5-2.5-2.5zm0 4c-.9 0-1.5-.7-1.5-1.5 0-.9.6-1.5 1.5-1.5s1.5.6 1.5 1.5-.6 1.5-1.5 1.5z"/><path d="M23 17.3c-.1-.3-.4-.4-.7-.2l-1.6.7-2.6-4.5-.2-.3H17V7h.5c.3 0 .5-.2.5-.5s-.2-.5-.5-.5H8V4.5C8 2.9 7.2 2 5.5 2h-1c-.3 0-.5.2-.5.5s.2.5.5.5h1C6.6 3 7 3.4 7 4.5v5.6c-2.9.5-5 2.9-5 5.9 0 3.4 2.6 6 6 6s6-2.6 6-6c0-.7-.1-1.4-.3-2h3.7l2.7 4.7.2.4.4-.2 2-.9c.3-.2.4-.5.3-.7zM13 16c0 2.9-2.2 5-5 5-2.9 0-5-2.1-5-5 0-2.5 1.7-4.5 4-4.9V14h5.7c.2.6.3 1.3.3 2zm-5-5c1.7 0 3.2.8 4.1 2H8v-2zm0-1V7h8v6h-2.8c-1-1.8-2.9-3-5.2-3z"/></symbol><symbol viewBox="0 0 24 24" id="icon-yinyang" xmlns="http://www.w3.org/2000/svg"><title>icon_blk/yintang</title><path d="M10 6c0 1.1.9 2 2 2s2-.9 2-2-.9-2-2-2-2 .9-2 2zm3 0c0 .6-.4 1-1 1s-1-.4-1-1 .4-1 1-1 1 .4 1 1zM12 16c-1.1 0-2 .9-2 2s.9 2 2 2 2-.9 2-2-.9-2-2-2zm0 3c-.6 0-1-.4-1-1s.4-1 1-1 1 .4 1 1-.4 1-1 1z"/><path d="M23 11.1c-.4-5.2-4.5-9.4-9.7-10-.4-.1-.9-.1-1.3-.1v1c.4 0 .8 0 1.1.1l1.5.3s.1 0 .1.1c.1 0 .2.1.3.2.3.2.5.4.8.6.8.6 1.2 1.5 1.2 2.7 0 2.5-1.9 4.5-5.2 5.5C8.2 12.7 6 14.9 6 18c0 .9.2 1.6.5 2.3-2.6-1.7-4.4-4.7-4.5-7.8C1.9 9.7 2.9 7 4.9 5c1.9-2 4.4-3 7.2-3V1C5.8 1 .8 6.2 1 12.5c.2 5.3 4.9 10.1 10.2 10.4h.7c6.5.1 11.6-5.3 11.1-11.8zm-3.6 7.7c-2 2-4.6 3.2-7.4 3.2h-.7c-.7 0-1.5-.2-2.2-.4-.1 0-.2-.1-.3-.2-.3-.1-.5-.3-.8-.6-.6-.7-1-1.6-1-2.8 0-2.6 1.9-4.5 5.1-5.5C15.7 11.3 18 9 18 6c0-.9-.2-1.7-.6-2.4C20 5.2 21.8 8 22 11.2c.2 2.8-.7 5.5-2.6 7.6z"/></symbol></svg>