<svg xmlns="http://www.w3.org/2000/svg" viewBox="0 0 30 30" id="icon-twitter" width="100%" height="100%">
    <style type="text/css">
	    .st0{fill:#767676;}
    </style>
    <path class="st0" d="M30 24.4c0 3.1-2.5 5.6-5.6 5.6H5.6C2.5 30 0 27.5 0 24.4V5.6C0 2.5 2.5 0 5.6 0h18.8C27.5 0 30 2.5 30 5.6v18.8zm-7.4-14.3c.9-.5 1.5-1.3 1.8-2.3-.8.5-1.7.8-2.6 1-.7-.8-1.8-1.3-3-1.3-2.3 0-4.1 1.8-4.1 4.1 0 .3 0 .6.1.9-3.4-.2-6.4-1.8-8.5-4.3-.3.6-.5 1.4-.5 2.1 0 1.4.7 2.7 1.8 3.4-.7 0-1.3-.2-2-.5 0 2 1.5 3.7 3.4 4-.4.1-.6.2-1 .2-.3 0-.5 0-.8-.1.5 1.6 2 2.8 3.8 2.9C9.7 21.3 7.9 22 6 22c-.3 0-.7 0-1-.1 1.8 1.2 4 1.8 6.3 1.8C18.8 23.7 23 17.5 23 12v-.5c.8-.6 1.5-1.3 2.1-2.1-.8.3-1.6.6-2.5.7z">
    </path>
</svg>